<svg width="459" height="457" viewBox="0 0 459 457" fill="none" xmlns="http://www.w3.org/2000/svg">
    <path fill-rule="evenodd" clip-rule="evenodd" d="M142.534 92.8895C169.069 79.8059 199.621 89.8963 229.174 91.7709C256.746 93.5198 284.051 91.9547 309.195 103.461C339.406 117.286 369.335 134.544 385.778 163.436C404.499 196.332 415.797 236.096 405.349 272.418C394.733 309.319 361.319 333.327 330.379 356.007C299.052 378.97 265.815 402.492 226.949 403.189C187.546 403.897 144.626 390.616 119.976 359.785C96.6868 330.657 112.792 288.24 105.772 251.629C99.9448 221.239 75.4818 194.229 82.4565 164.112C89.6463 133.066 113.981 106.968 142.534 92.8895Z" fill="#D1F9F2"/>
    <g style="mix-blend-mode:hard-light">
        <path d="M213.263 245.48C210.41 245.48 207.823 244.867 205.503 243.64C203.21 242.387 201.396 240.667 200.063 238.48C198.756 236.267 198.103 233.773 198.103 231C198.103 228.227 198.756 225.747 200.063 223.56C201.396 221.347 203.21 219.627 205.503 218.4C207.823 217.147 210.423 216.52 213.303 216.52C215.73 216.52 217.916 216.947 219.863 217.8C221.836 218.653 223.49 219.88 224.823 221.48L220.663 225.32C218.77 223.133 216.423 222.04 213.623 222.04C211.89 222.04 210.343 222.427 208.983 223.2C207.623 223.947 206.556 225 205.783 226.36C205.036 227.72 204.663 229.267 204.663 231C204.663 232.733 205.036 234.28 205.783 235.64C206.556 237 207.623 238.067 208.983 238.84C210.343 239.587 211.89 239.96 213.623 239.96C216.423 239.96 218.77 238.853 220.663 236.64L224.823 240.48C223.49 242.107 221.836 243.347 219.863 244.2C217.89 245.053 215.69 245.48 213.263 245.48ZM247.092 239H234.092L231.612 245H224.972L237.452 217H243.852L256.372 245H249.572L247.092 239ZM245.052 234.08L240.612 223.36L236.172 234.08H245.052ZM284.757 245L284.717 228.2L276.477 242.04H273.557L265.357 228.56V245H259.277V217H264.637L275.117 234.4L285.437 217H290.757L290.837 245H284.757ZM309.6 217C312.08 217 314.227 217.413 316.04 218.24C317.88 219.067 319.293 220.24 320.28 221.76C321.267 223.28 321.76 225.08 321.76 227.16C321.76 229.213 321.267 231.013 320.28 232.56C319.293 234.08 317.88 235.253 316.04 236.08C314.227 236.88 312.08 237.28 309.6 237.28H303.96V245H297.48V217H309.6ZM309.24 232C311.187 232 312.667 231.587 313.68 230.76C314.693 229.907 315.2 228.707 315.2 227.16C315.2 225.587 314.693 224.387 313.68 223.56C312.667 222.707 311.187 222.28 309.24 222.28H303.96V232H309.24ZM100.387 266V294H93.9067V282.52H81.1867V294H74.7067V266H81.1867V277.04H93.9067V266H100.387ZM120.571 294.48C117.665 294.48 115.038 293.853 112.691 292.6C110.371 291.347 108.545 289.627 107.211 287.44C105.905 285.227 105.251 282.747 105.251 280C105.251 277.253 105.905 274.787 107.211 272.6C108.545 270.387 110.371 268.653 112.691 267.4C115.038 266.147 117.665 265.52 120.571 265.52C123.478 265.52 126.091 266.147 128.411 267.4C130.731 268.653 132.558 270.387 133.891 272.6C135.225 274.787 135.891 277.253 135.891 280C135.891 282.747 135.225 285.227 133.891 287.44C132.558 289.627 130.731 291.347 128.411 292.6C126.091 293.853 123.478 294.48 120.571 294.48ZM120.571 288.96C122.225 288.96 123.718 288.587 125.051 287.84C126.385 287.067 127.425 286 128.171 284.64C128.945 283.28 129.331 281.733 129.331 280C129.331 278.267 128.945 276.72 128.171 275.36C127.425 274 126.385 272.947 125.051 272.2C123.718 271.427 122.225 271.04 120.571 271.04C118.918 271.04 117.425 271.427 116.091 272.2C114.758 272.947 113.705 274 112.931 275.36C112.185 276.72 111.811 278.267 111.811 280C111.811 281.733 112.185 283.28 112.931 284.64C113.705 286 114.758 287.067 116.091 287.84C117.425 288.587 118.918 288.96 120.571 288.96ZM158.601 294L153.201 286.2H152.881H147.241V294H140.761V266H152.881C155.361 266 157.508 266.413 159.321 267.24C161.161 268.067 162.575 269.24 163.561 270.76C164.548 272.28 165.041 274.08 165.041 276.16C165.041 278.24 164.535 280.04 163.521 281.56C162.535 283.053 161.121 284.2 159.281 285L165.561 294H158.601ZM158.481 276.16C158.481 274.587 157.975 273.387 156.961 272.56C155.948 271.707 154.468 271.28 152.521 271.28H147.241V281.04H152.521C154.468 281.04 155.948 280.613 156.961 279.76C157.975 278.907 158.481 277.707 158.481 276.16ZM175.585 271.28H166.625V266H191.025V271.28H182.065V294H175.585V271.28ZM216.191 288.8V294H194.511V266H215.671V271.2H200.951V277.28H213.951V282.32H200.951V288.8H216.191ZM247.027 266V294H241.707L227.747 277V294H221.347V266H226.707L240.627 283V266H247.027ZM260.132 271.2V278.6H273.092V283.8H260.132V294H253.652V266H274.812V271.2H260.132ZM300.879 288.8V294H279.199V266H300.359V271.2H285.639V277.28H298.639V282.32H285.639V288.8H300.879ZM315.235 294.48C313.022 294.48 310.875 294.187 308.795 293.6C306.742 292.987 305.088 292.2 303.835 291.24L306.035 286.36C307.235 287.24 308.662 287.947 310.315 288.48C311.968 289.013 313.622 289.28 315.275 289.28C317.115 289.28 318.475 289.013 319.355 288.48C320.235 287.92 320.675 287.187 320.675 286.28C320.675 285.613 320.408 285.067 319.875 284.64C319.368 284.187 318.702 283.827 317.875 283.56C317.075 283.293 315.982 283 314.595 282.68C312.462 282.173 310.715 281.667 309.355 281.16C307.995 280.653 306.822 279.84 305.835 278.72C304.875 277.6 304.395 276.107 304.395 274.24C304.395 272.613 304.835 271.147 305.715 269.84C306.595 268.507 307.915 267.453 309.675 266.68C311.462 265.907 313.635 265.52 316.195 265.52C317.982 265.52 319.728 265.733 321.435 266.16C323.142 266.587 324.635 267.2 325.915 268L323.915 272.92C321.328 271.453 318.742 270.72 316.155 270.72C314.342 270.72 312.995 271.013 312.115 271.6C311.262 272.187 310.835 272.96 310.835 273.92C310.835 274.88 311.328 275.6 312.315 276.08C313.328 276.533 314.862 276.987 316.915 277.44C319.048 277.947 320.795 278.453 322.155 278.96C323.515 279.467 324.675 280.267 325.635 281.36C326.622 282.453 327.115 283.933 327.115 285.8C327.115 287.4 326.662 288.867 325.755 290.2C324.875 291.507 323.542 292.547 321.755 293.32C319.968 294.093 317.795 294.48 315.235 294.48ZM336.952 271.28H327.992V266H352.392V271.28H343.432V294H336.952V271.28ZM355.879 266H362.359V294H355.879V266ZM395.767 266L383.647 294H377.247L365.167 266H372.167L380.687 286L389.327 266H395.767ZM415.608 288H402.608L400.128 294H393.488L405.968 266H412.368L424.888 294H418.088L415.608 288ZM413.568 283.08L409.128 272.36L404.688 283.08H413.568ZM427.793 266H434.273V288.72H448.313V294H427.793V266Z" fill="white"/>
        <path d="M205.503 243.64L205.023 244.518L205.036 244.524L205.503 243.64ZM200.063 238.48L199.202 238.988L199.205 238.995L199.209 239.001L200.063 238.48ZM200.063 223.56L199.206 223.044L199.205 223.047L200.063 223.56ZM205.503 218.4L205.975 219.282L205.978 219.28L205.503 218.4ZM219.863 217.8L219.461 218.716L219.466 218.718L219.863 217.8ZM224.823 221.48L225.501 222.215L226.2 221.57L225.591 220.84L224.823 221.48ZM220.663 225.32L219.907 225.975L220.583 226.755L221.341 226.055L220.663 225.32ZM208.983 223.2L209.464 224.077L209.471 224.073L209.477 224.069L208.983 223.2ZM205.783 226.36L204.914 225.866L204.91 225.872L204.906 225.879L205.783 226.36ZM205.783 235.64L204.906 236.121L204.91 236.128L204.914 236.134L205.783 235.64ZM208.983 238.84L208.489 239.709L208.495 239.713L208.502 239.717L208.983 238.84ZM220.663 236.64L221.341 235.905L220.578 235.201L219.903 235.99L220.663 236.64ZM224.823 240.48L225.596 241.114L226.194 240.385L225.501 239.745L224.823 240.48ZM219.863 244.2L219.466 243.282L219.466 243.282L219.863 244.2ZM213.263 244.48C210.558 244.48 208.134 243.9 205.97 242.756L205.036 244.524C207.512 245.833 210.261 246.48 213.263 246.48V244.48ZM205.983 242.762C203.84 241.591 202.157 239.993 200.917 237.959L199.209 239.001C200.636 241.34 202.579 243.182 205.023 244.518L205.983 242.762ZM200.924 237.972C199.716 235.924 199.103 233.609 199.103 231H197.103C197.103 233.938 197.797 236.609 199.202 238.988L200.924 237.972ZM199.103 231C199.103 228.391 199.716 226.091 200.921 224.073L199.205 223.047C197.797 225.402 197.103 228.063 197.103 231H199.103ZM200.92 224.076C202.159 222.018 203.839 220.424 205.975 219.282L205.031 217.518C202.58 218.829 200.633 220.675 199.206 223.044L200.92 224.076ZM205.978 219.28C208.139 218.112 210.573 217.52 213.303 217.52V215.52C210.273 215.52 207.507 216.181 205.028 217.52L205.978 219.28ZM213.303 217.52C215.611 217.52 217.658 217.925 219.461 218.716L220.264 216.884C218.174 215.968 215.848 215.52 213.303 215.52V217.52ZM219.466 218.718C221.3 219.511 222.825 220.645 224.055 222.12L225.591 220.84C224.154 219.115 222.372 217.796 220.26 216.882L219.466 218.718ZM224.145 220.745L219.985 224.585L221.341 226.055L225.501 222.215L224.145 220.745ZM221.419 224.665C219.343 222.268 216.724 221.04 213.623 221.04V223.04C216.122 223.04 218.196 223.999 219.907 225.975L221.419 224.665ZM213.623 221.04C211.735 221.04 210.015 221.463 208.489 222.331L209.477 224.069C210.671 223.391 212.044 223.04 213.623 223.04V221.04ZM208.502 222.323C206.978 223.16 205.778 224.346 204.914 225.866L206.652 226.854C207.335 225.654 208.268 224.733 209.464 224.077L208.502 222.323ZM204.906 225.879C204.07 227.403 203.663 229.118 203.663 231H205.663C205.663 229.415 206.003 228.037 206.66 226.841L204.906 225.879ZM203.663 231C203.663 232.881 204.07 234.597 204.906 236.121L206.66 235.159C206.003 233.963 205.663 232.585 205.663 231H203.663ZM204.914 236.134C205.776 237.651 206.972 238.847 208.489 239.709L209.477 237.971C208.274 237.286 207.337 236.349 206.652 235.146L204.914 236.134ZM208.502 239.717C210.026 240.553 211.741 240.96 213.623 240.96V238.96C212.038 238.96 210.66 238.62 209.464 237.963L208.502 239.717ZM213.623 240.96C216.728 240.96 219.348 239.715 221.423 237.29L219.903 235.99C218.191 237.991 216.117 238.96 213.623 238.96V240.96ZM219.985 237.375L224.145 241.215L225.501 239.745L221.341 235.905L219.985 237.375ZM224.05 239.846C222.82 241.347 221.296 242.491 219.466 243.282L220.26 245.118C222.376 244.203 224.16 242.867 225.596 241.114L224.05 239.846ZM219.466 243.282C217.633 244.075 215.571 244.48 213.263 244.48V246.48C215.809 246.48 218.146 246.032 220.26 245.118L219.466 243.282ZM247.092 239L248.016 238.618L247.761 238H247.092V239ZM234.092 239V238H233.423L233.168 238.618L234.092 239ZM231.612 245V246H232.281L232.536 245.382L231.612 245ZM224.972 245L224.059 244.593L223.431 246H224.972V245ZM237.452 217V216H236.803L236.539 216.593L237.452 217ZM243.852 217L244.765 216.592L244.5 216H243.852V217ZM256.372 245V246H257.915L257.285 244.592L256.372 245ZM249.572 245L248.648 245.382L248.903 246H249.572V245ZM245.052 234.08V235.08H246.549L245.976 233.697L245.052 234.08ZM240.612 223.36L241.536 222.977L240.612 220.747L239.688 222.977L240.612 223.36ZM236.172 234.08L235.248 233.697L234.675 235.08H236.172V234.08ZM247.092 238H234.092V240H247.092V238ZM233.168 238.618L230.688 244.618L232.536 245.382L235.016 239.382L233.168 238.618ZM231.612 244H224.972V246H231.612V244ZM225.885 245.407L238.365 217.407L236.539 216.593L224.059 244.593L225.885 245.407ZM237.452 218H243.852V216H237.452V218ZM242.939 217.408L255.459 245.408L257.285 244.592L244.765 216.592L242.939 217.408ZM256.372 244H249.572V246H256.372V244ZM250.496 244.618L248.016 238.618L246.168 239.382L248.648 245.382L250.496 244.618ZM245.976 233.697L241.536 222.977L239.688 223.743L244.128 234.463L245.976 233.697ZM239.688 222.977L235.248 233.697L237.096 234.463L241.536 223.743L239.688 222.977ZM236.172 235.08H245.052V233.08H236.172V235.08ZM284.757 245L283.757 245.002L283.759 246H284.757V245ZM284.717 228.2L285.717 228.198L285.708 224.58L283.858 227.688L284.717 228.2ZM276.477 242.04V243.04H277.045L277.336 242.552L276.477 242.04ZM273.557 242.04L272.703 242.56L272.995 243.04H273.557V242.04ZM265.357 228.56L266.211 228.04L264.357 224.992V228.56H265.357ZM265.357 245V246H266.357V245H265.357ZM259.277 245H258.277V246H259.277V245ZM259.277 217V216H258.277V217H259.277ZM264.637 217L265.494 216.484L265.202 216H264.637V217ZM275.117 234.4L274.26 234.916L275.124 236.349L275.977 234.91L275.117 234.4ZM285.437 217V216H284.867L284.577 216.49L285.437 217ZM290.757 217L291.757 216.997L291.754 216H290.757V217ZM290.837 245V246H291.84L291.837 244.997L290.837 245ZM285.757 244.998L285.717 228.198L283.717 228.202L283.757 245.002L285.757 244.998ZM283.858 227.688L275.618 241.528L277.336 242.552L285.576 228.712L283.858 227.688ZM276.477 241.04H273.557V243.04H276.477V241.04ZM274.411 241.52L266.211 228.04L264.503 229.08L272.703 242.56L274.411 241.52ZM264.357 228.56V245H266.357V228.56H264.357ZM265.357 244H259.277V246H265.357V244ZM260.277 245V217H258.277V245H260.277ZM259.277 218H264.637V216H259.277V218ZM263.78 217.516L274.26 234.916L275.974 233.884L265.494 216.484L263.78 217.516ZM275.977 234.91L286.297 217.51L284.577 216.49L274.257 233.89L275.977 234.91ZM285.437 218H290.757V216H285.437V218ZM289.757 217.003L289.837 245.003L291.837 244.997L291.757 216.997L289.757 217.003ZM290.837 244H284.757V246H290.837V244ZM316.04 218.24L315.625 219.15L315.63 219.152L316.04 218.24ZM320.28 232.56L321.119 233.104L321.123 233.098L320.28 232.56ZM316.04 236.08L316.444 236.995L316.45 236.992L316.04 236.08ZM303.96 237.28V236.28H302.96V237.28H303.96ZM303.96 245V246H304.96V245H303.96ZM297.48 245H296.48V246H297.48V245ZM297.48 217V216H296.48V217H297.48ZM313.68 230.76L314.312 231.535L314.318 231.53L314.324 231.525L313.68 230.76ZM313.68 223.56L313.036 224.325L313.042 224.33L313.048 224.335L313.68 223.56ZM303.96 222.28V221.28H302.96V222.28H303.96ZM303.96 232H302.96V233H303.96V232ZM309.6 218C311.971 218 313.97 218.395 315.625 219.15L316.455 217.33C314.484 216.431 312.189 216 309.6 216V218ZM315.63 219.152C317.316 219.909 318.571 220.964 319.441 222.304L321.119 221.216C320.016 219.516 318.445 218.224 316.45 217.328L315.63 219.152ZM319.441 222.304C320.308 223.639 320.76 225.244 320.76 227.16H322.76C322.76 224.916 322.226 222.921 321.119 221.216L319.441 222.304ZM320.76 227.16C320.76 229.046 320.309 230.655 319.437 232.022L321.123 233.098C322.224 231.372 322.76 229.38 322.76 227.16H320.76ZM319.441 232.016C318.571 233.356 317.316 234.411 315.63 235.168L316.45 236.992C318.445 236.096 320.016 234.804 321.119 233.104L319.441 232.016ZM315.637 235.165C313.978 235.897 311.975 236.28 309.6 236.28V238.28C312.185 238.28 314.476 237.863 316.444 236.995L315.637 235.165ZM309.6 236.28H303.96V238.28H309.6V236.28ZM302.96 237.28V245H304.96V237.28H302.96ZM303.96 244H297.48V246H303.96V244ZM298.48 245V217H296.48V245H298.48ZM297.48 218H309.6V216H297.48V218ZM309.24 233C311.309 233 313.051 232.563 314.312 231.535L313.048 229.985C312.282 230.61 311.065 231 309.24 231V233ZM314.324 231.525C315.602 230.449 316.2 228.947 316.2 227.16H314.2C314.2 228.467 313.785 229.364 313.036 229.995L314.324 231.525ZM316.2 227.16C316.2 225.354 315.606 223.841 314.312 222.785L313.048 224.335C313.781 224.933 314.2 225.82 314.2 227.16H316.2ZM314.324 222.795C313.063 221.733 311.315 221.28 309.24 221.28V223.28C311.059 223.28 312.271 223.681 313.036 224.325L314.324 222.795ZM309.24 221.28H303.96V223.28H309.24V221.28ZM302.96 222.28V232H304.96V222.28H302.96ZM303.96 233H309.24V231H303.96V233ZM100.387 266H101.387V265H100.387V266ZM100.387 294V295H101.387V294H100.387ZM93.9067 294H92.9067V295H93.9067V294ZM93.9067 282.52H94.9067V281.52H93.9067V282.52ZM81.1867 282.52V281.52H80.1867V282.52H81.1867ZM81.1867 294V295H82.1867V294H81.1867ZM74.7067 294H73.7067V295H74.7067V294ZM74.7067 266V265H73.7067V266H74.7067ZM81.1867 266H82.1867V265H81.1867V266ZM81.1867 277.04H80.1867V278.04H81.1867V277.04ZM93.9067 277.04V278.04H94.9067V277.04H93.9067ZM93.9067 266V265H92.9067V266H93.9067ZM99.3867 266V294H101.387V266H99.3867ZM100.387 293H93.9067V295H100.387V293ZM94.9067 294V282.52H92.9067V294H94.9067ZM93.9067 281.52H81.1867V283.52H93.9067V281.52ZM80.1867 282.52V294H82.1867V282.52H80.1867ZM81.1867 293H74.7067V295H81.1867V293ZM75.7067 294V266H73.7067V294H75.7067ZM74.7067 267H81.1867V265H74.7067V267ZM80.1867 266V277.04H82.1867V266H80.1867ZM81.1867 278.04H93.9067V276.04H81.1867V278.04ZM94.9067 277.04V266H92.9067V277.04H94.9067ZM93.9067 267H100.387V265H93.9067V267ZM112.691 292.6L112.216 293.48L112.22 293.482L112.691 292.6ZM107.211 287.44L106.35 287.948L106.354 287.955L106.358 287.961L107.211 287.44ZM107.211 272.6L106.355 272.084L106.353 272.087L107.211 272.6ZM112.691 267.4L112.22 266.518L112.216 266.52L112.691 267.4ZM133.891 272.6L133.035 273.116L133.038 273.121L133.891 272.6ZM133.891 287.44L134.745 287.961L134.748 287.956L133.891 287.44ZM128.411 292.6L128.887 293.48L128.887 293.48L128.411 292.6ZM125.051 287.84L125.54 288.713L125.547 288.709L125.553 288.705L125.051 287.84ZM128.171 284.64L127.302 284.146L127.298 284.152L127.295 284.159L128.171 284.64ZM128.171 275.36L127.295 275.841L127.298 275.848L127.302 275.854L128.171 275.36ZM125.051 272.2L124.55 273.065L124.556 273.069L124.563 273.073L125.051 272.2ZM116.091 272.2L116.58 273.073L116.587 273.069L116.593 273.065L116.091 272.2ZM112.931 275.36L112.062 274.866L112.058 274.872L112.055 274.879L112.931 275.36ZM112.931 284.64L112.055 285.121L112.058 285.128L112.062 285.134L112.931 284.64ZM116.091 287.84L115.59 288.705L115.596 288.709L115.603 288.713L116.091 287.84ZM120.571 293.48C117.814 293.48 115.351 292.887 113.163 291.718L112.22 293.482C114.725 294.82 117.516 295.48 120.571 295.48V293.48ZM113.167 291.72C110.998 290.548 109.304 288.95 108.065 286.919L106.358 287.961C107.786 290.303 109.745 292.145 112.216 293.48L113.167 291.72ZM108.073 286.932C106.863 284.883 106.251 282.581 106.251 280H104.251C104.251 282.913 104.946 285.57 106.35 287.948L108.073 286.932ZM106.251 280C106.251 277.419 106.863 275.132 108.07 273.113L106.353 272.087C104.946 274.441 104.251 277.087 104.251 280H106.251ZM108.068 273.116C109.307 271.059 111.001 269.45 113.167 268.28L112.216 266.52C109.742 267.857 107.782 269.714 106.355 272.084L108.068 273.116ZM113.163 268.282C115.351 267.113 117.814 266.52 120.571 266.52V264.52C117.516 264.52 114.725 265.18 112.22 266.518L113.163 268.282ZM120.571 266.52C123.329 266.52 125.777 267.113 127.936 268.28L128.887 266.52C126.406 265.18 123.627 264.52 120.571 264.52V266.52ZM127.936 268.28C130.102 269.45 131.796 271.059 133.035 273.116L134.748 272.084C133.32 269.714 131.361 267.857 128.887 266.52L127.936 268.28ZM133.038 273.121C134.268 275.139 134.891 277.423 134.891 280H136.891C136.891 277.083 136.181 274.434 134.745 272.079L133.038 273.121ZM134.891 280C134.891 282.577 134.268 284.876 133.035 286.924L134.748 287.956C136.181 285.577 136.891 282.917 136.891 280H134.891ZM133.038 286.919C131.799 288.95 130.105 290.548 127.936 291.72L128.887 293.48C131.358 292.145 133.317 290.303 134.745 287.961L133.038 286.919ZM127.936 291.72C125.777 292.887 123.329 293.48 120.571 293.48V295.48C123.627 295.48 126.406 294.82 128.887 293.48L127.936 291.72ZM120.571 289.96C122.381 289.96 124.045 289.55 125.54 288.713L124.563 286.967C123.391 287.624 122.068 287.96 120.571 287.96V289.96ZM125.553 288.705C127.045 287.84 128.214 286.64 129.048 285.121L127.295 284.159C126.635 285.36 125.724 286.294 124.55 286.975L125.553 288.705ZM129.041 285.134C129.909 283.608 130.331 281.887 130.331 280H128.331C128.331 281.579 127.981 282.952 127.302 284.146L129.041 285.134ZM130.331 280C130.331 278.113 129.909 276.392 129.041 274.866L127.302 275.854C127.981 277.048 128.331 278.421 128.331 280H130.331ZM129.048 274.879C128.213 273.357 127.039 272.167 125.54 271.327L124.563 273.073C125.73 273.726 126.637 274.643 127.295 275.841L129.048 274.879ZM125.553 271.335C124.056 270.467 122.388 270.04 120.571 270.04V272.04C122.062 272.04 123.38 272.387 124.55 273.065L125.553 271.335ZM120.571 270.04C118.755 270.04 117.087 270.467 115.59 271.335L116.593 273.065C117.763 272.387 119.081 272.04 120.571 272.04V270.04ZM115.603 271.327C114.107 272.165 112.923 273.351 112.062 274.866L113.801 275.854C114.486 274.649 115.41 273.728 116.58 273.073L115.603 271.327ZM112.055 274.879C111.218 276.403 110.811 278.118 110.811 280H112.811C112.811 278.415 113.151 277.037 113.808 275.841L112.055 274.879ZM110.811 280C110.811 281.881 111.218 283.597 112.055 285.121L113.808 284.159C113.151 282.963 112.811 281.585 112.811 280H110.811ZM112.062 285.134C112.922 286.646 114.101 287.841 115.59 288.705L116.593 286.975C115.415 286.292 114.488 285.354 113.801 284.146L112.062 285.134ZM115.603 288.713C117.098 289.55 118.761 289.96 120.571 289.96V287.96C119.075 287.96 117.752 287.624 116.58 286.967L115.603 288.713ZM158.601 294L157.779 294.569L158.077 295H158.601V294ZM153.201 286.2L154.024 285.631L153.725 285.2H153.201V286.2ZM147.241 286.2V285.2H146.241V286.2H147.241ZM147.241 294V295H148.241V294H147.241ZM140.761 294H139.761V295H140.761V294ZM140.761 266V265H139.761V266H140.761ZM159.321 267.24L158.907 268.15L158.912 268.152L159.321 267.24ZM163.521 281.56L162.689 281.005L162.687 281.009L163.521 281.56ZM159.281 285L158.883 284.083L157.762 284.57L158.461 285.572L159.281 285ZM165.561 294V295H167.479L166.381 293.428L165.561 294ZM156.961 272.56L156.317 273.325L156.323 273.33L156.329 273.335L156.961 272.56ZM147.241 271.28V270.28H146.241V271.28H147.241ZM147.241 281.04H146.241V282.04H147.241V281.04ZM156.961 279.76L157.606 280.525L157.606 280.525L156.961 279.76ZM159.424 293.431L154.024 285.631L152.379 286.769L157.779 294.569L159.424 293.431ZM153.201 285.2H152.881V287.2H153.201V285.2ZM152.881 285.2H147.241V287.2H152.881V285.2ZM146.241 286.2V294H148.241V286.2H146.241ZM147.241 293H140.761V295H147.241V293ZM141.761 294V266H139.761V294H141.761ZM140.761 267H152.881V265H140.761V267ZM152.881 267C155.252 267 157.251 267.395 158.907 268.15L159.736 266.33C157.765 265.431 155.471 265 152.881 265V267ZM158.912 268.152C160.597 268.909 161.852 269.964 162.723 271.304L164.4 270.216C163.297 268.516 161.726 267.224 159.731 266.328L158.912 268.152ZM162.723 271.304C163.589 272.639 164.041 274.244 164.041 276.16H166.041C166.041 273.916 165.507 271.921 164.4 270.216L162.723 271.304ZM164.041 276.16C164.041 278.071 163.579 279.672 162.689 281.005L164.353 282.115C165.491 280.408 166.041 278.409 166.041 276.16H164.041ZM162.687 281.009C161.82 282.321 160.567 283.35 158.883 284.083L159.68 285.917C161.675 285.05 163.25 283.785 164.356 282.111L162.687 281.009ZM158.461 285.572L164.741 294.572L166.381 293.428L160.101 284.428L158.461 285.572ZM165.561 293H158.601V295H165.561V293ZM159.481 276.16C159.481 274.354 158.887 272.841 157.594 271.785L156.329 273.335C157.062 273.933 157.481 274.82 157.481 276.16H159.481ZM157.606 271.795C156.344 270.733 154.596 270.28 152.521 270.28V272.28C154.34 272.28 155.552 272.681 156.317 273.325L157.606 271.795ZM152.521 270.28H147.241V272.28H152.521V270.28ZM146.241 271.28V281.04H148.241V271.28H146.241ZM147.241 282.04H152.521V280.04H147.241V282.04ZM152.521 282.04C154.596 282.04 156.344 281.587 157.606 280.525L156.317 278.995C155.552 279.639 154.34 280.04 152.521 280.04V282.04ZM157.606 280.525C158.883 279.449 159.481 277.947 159.481 276.16H157.481C157.481 277.467 157.066 278.364 156.317 278.995L157.606 280.525ZM175.585 271.28H176.585V270.28H175.585V271.28ZM166.625 271.28H165.625V272.28H166.625V271.28ZM166.625 266V265H165.625V266H166.625ZM191.025 266H192.025V265H191.025V266ZM191.025 271.28V272.28H192.025V271.28H191.025ZM182.065 271.28V270.28H181.065V271.28H182.065ZM182.065 294V295H183.065V294H182.065ZM175.585 294H174.585V295H175.585V294ZM175.585 270.28H166.625V272.28H175.585V270.28ZM167.625 271.28V266H165.625V271.28H167.625ZM166.625 267H191.025V265H166.625V267ZM190.025 266V271.28H192.025V266H190.025ZM191.025 270.28H182.065V272.28H191.025V270.28ZM181.065 271.28V294H183.065V271.28H181.065ZM182.065 293H175.585V295H182.065V293ZM176.585 294V271.28H174.585V294H176.585ZM216.191 288.8H217.191V287.8H216.191V288.8ZM216.191 294V295H217.191V294H216.191ZM194.511 294H193.511V295H194.511V294ZM194.511 266V265H193.511V266H194.511ZM215.671 266H216.671V265H215.671V266ZM215.671 271.2V272.2H216.671V271.2H215.671ZM200.951 271.2V270.2H199.951V271.2H200.951ZM200.951 277.28H199.951V278.28H200.951V277.28ZM213.951 277.28H214.951V276.28H213.951V277.28ZM213.951 282.32V283.32H214.951V282.32H213.951ZM200.951 282.32V281.32H199.951V282.32H200.951ZM200.951 288.8H199.951V289.8H200.951V288.8ZM215.191 288.8V294H217.191V288.8H215.191ZM216.191 293H194.511V295H216.191V293ZM195.511 294V266H193.511V294H195.511ZM194.511 267H215.671V265H194.511V267ZM214.671 266V271.2H216.671V266H214.671ZM215.671 270.2H200.951V272.2H215.671V270.2ZM199.951 271.2V277.28H201.951V271.2H199.951ZM200.951 278.28H213.951V276.28H200.951V278.28ZM212.951 277.28V282.32H214.951V277.28H212.951ZM213.951 281.32H200.951V283.32H213.951V281.32ZM199.951 282.32V288.8H201.951V282.32H199.951ZM200.951 289.8H216.191V287.8H200.951V289.8ZM247.027 266H248.027V265H247.027V266ZM247.027 294V295H248.027V294H247.027ZM241.707 294L240.935 294.635L241.235 295H241.707V294ZM227.747 277L228.52 276.365L226.747 274.206V277H227.747ZM227.747 294V295H228.747V294H227.747ZM221.347 294H220.347V295H221.347V294ZM221.347 266V265H220.347V266H221.347ZM226.707 266L227.481 265.366L227.181 265H226.707V266ZM240.627 283L239.854 283.634L241.627 285.8V283H240.627ZM240.627 266V265H239.627V266H240.627ZM246.027 266V294H248.027V266H246.027ZM247.027 293H241.707V295H247.027V293ZM242.48 293.365L228.52 276.365L226.975 277.635L240.935 294.635L242.48 293.365ZM226.747 277V294H228.747V277H226.747ZM227.747 293H221.347V295H227.747V293ZM222.347 294V266H220.347V294H222.347ZM221.347 267H226.707V265H221.347V267ZM225.934 266.634L239.854 283.634L241.401 282.366L227.481 265.366L225.934 266.634ZM241.627 283V266H239.627V283H241.627ZM240.627 267H247.027V265H240.627V267ZM260.132 271.2V270.2H259.132V271.2H260.132ZM260.132 278.6H259.132V279.6H260.132V278.6ZM273.092 278.6H274.092V277.6H273.092V278.6ZM273.092 283.8V284.8H274.092V283.8H273.092ZM260.132 283.8V282.8H259.132V283.8H260.132ZM260.132 294V295H261.132V294H260.132ZM253.652 294H252.652V295H253.652V294ZM253.652 266V265H252.652V266H253.652ZM274.812 266H275.812V265H274.812V266ZM274.812 271.2V272.2H275.812V271.2H274.812ZM259.132 271.2V278.6H261.132V271.2H259.132ZM260.132 279.6H273.092V277.6H260.132V279.6ZM272.092 278.6V283.8H274.092V278.6H272.092ZM273.092 282.8H260.132V284.8H273.092V282.8ZM259.132 283.8V294H261.132V283.8H259.132ZM260.132 293H253.652V295H260.132V293ZM254.652 294V266H252.652V294H254.652ZM253.652 267H274.812V265H253.652V267ZM273.812 266V271.2H275.812V266H273.812ZM274.812 270.2H260.132V272.2H274.812V270.2ZM300.879 288.8H301.879V287.8H300.879V288.8ZM300.879 294V295H301.879V294H300.879ZM279.199 294H278.199V295H279.199V294ZM279.199 266V265H278.199V266H279.199ZM300.359 266H301.359V265H300.359V266ZM300.359 271.2V272.2H301.359V271.2H300.359ZM285.639 271.2V270.2H284.639V271.2H285.639ZM285.639 277.28H284.639V278.28H285.639V277.28ZM298.639 277.28H299.639V276.28H298.639V277.28ZM298.639 282.32V283.32H299.639V282.32H298.639ZM285.639 282.32V281.32H284.639V282.32H285.639ZM285.639 288.8H284.639V289.8H285.639V288.8ZM299.879 288.8V294H301.879V288.8H299.879ZM300.879 293H279.199V295H300.879V293ZM280.199 294V266H278.199V294H280.199ZM279.199 267H300.359V265H279.199V267ZM299.359 266V271.2H301.359V266H299.359ZM300.359 270.2H285.639V272.2H300.359V270.2ZM284.639 271.2V277.28H286.639V271.2H284.639ZM285.639 278.28H298.639V276.28H285.639V278.28ZM297.639 277.28V282.32H299.639V277.28H297.639ZM298.639 281.32H285.639V283.32H298.639V281.32ZM284.639 282.32V288.8H286.639V282.32H284.639ZM285.639 289.8H300.879V287.8H285.639V289.8ZM308.795 293.6L308.509 294.558L308.516 294.56L308.523 294.562L308.795 293.6ZM303.835 291.24L302.923 290.829L302.597 291.552L303.227 292.034L303.835 291.24ZM306.035 286.36L306.626 285.554L305.631 284.823L305.123 285.949L306.035 286.36ZM310.315 288.48L310.622 287.528L310.622 287.528L310.315 288.48ZM319.355 288.48L319.873 289.335L319.882 289.33L319.892 289.324L319.355 288.48ZM319.875 284.64L319.208 285.385L319.229 285.404L319.25 285.421L319.875 284.64ZM317.875 283.56L317.559 284.509L317.568 284.512L317.875 283.56ZM314.595 282.68L314.364 283.653L314.37 283.654L314.595 282.68ZM309.355 281.16L309.704 280.223L309.704 280.223L309.355 281.16ZM305.835 278.72L305.076 279.371L305.084 279.381L305.835 278.72ZM305.715 269.84L306.544 270.399L306.549 270.391L305.715 269.84ZM309.675 266.68L309.278 265.762L309.273 265.764L309.675 266.68ZM321.435 266.16L321.677 265.19L321.677 265.19L321.435 266.16ZM325.915 268L326.841 268.377L327.158 267.598L326.445 267.152L325.915 268ZM323.915 272.92L323.422 273.79L324.412 274.352L324.841 273.297L323.915 272.92ZM312.115 271.6L311.56 270.768L311.554 270.772L311.548 270.776L312.115 271.6ZM312.315 276.08L311.877 276.979L311.892 276.986L311.906 276.993L312.315 276.08ZM316.915 277.44L317.146 276.467L317.138 276.465L317.13 276.464L316.915 277.44ZM322.155 278.96L322.504 278.023L322.504 278.023L322.155 278.96ZM325.635 281.36L324.883 282.02L324.892 282.03L325.635 281.36ZM325.755 290.2L324.928 289.638L324.925 289.641L325.755 290.2ZM321.755 293.32L321.358 292.402L321.358 292.402L321.755 293.32ZM315.235 293.48C313.111 293.48 311.056 293.199 309.066 292.638L308.523 294.562C310.694 295.175 312.932 295.48 315.235 295.48V293.48ZM309.081 292.642C307.105 292.052 305.572 291.311 304.443 290.446L303.227 292.034C304.604 293.089 306.378 293.922 308.509 294.558L309.081 292.642ZM304.746 291.651L306.946 286.771L305.123 285.949L302.923 290.829L304.746 291.651ZM305.443 287.166C306.743 288.119 308.269 288.871 310.008 289.432L310.622 287.528C309.054 287.022 307.727 286.361 306.626 285.554L305.443 287.166ZM310.008 289.432C311.755 289.995 313.512 290.28 315.275 290.28V288.28C313.731 288.28 312.181 288.031 310.622 287.528L310.008 289.432ZM315.275 290.28C317.173 290.28 318.757 290.012 319.873 289.335L318.837 287.625C318.193 288.015 317.056 288.28 315.275 288.28V290.28ZM319.892 289.324C321.009 288.613 321.675 287.585 321.675 286.28H319.675C319.675 286.788 319.46 287.227 318.818 287.636L319.892 289.324ZM321.675 286.28C321.675 285.301 321.263 284.47 320.5 283.859L319.25 285.421C319.553 285.663 319.675 285.926 319.675 286.28H321.675ZM320.542 283.895C319.906 283.326 319.106 282.906 318.182 282.608L317.568 284.512C318.297 284.747 318.83 285.047 319.208 285.385L320.542 283.895ZM318.191 282.611C317.348 282.33 316.219 282.029 314.82 281.706L314.37 283.654C315.744 283.971 316.802 284.257 317.559 284.509L318.191 282.611ZM314.826 281.707C312.715 281.206 311.011 280.71 309.704 280.223L309.006 282.097C310.418 282.623 312.208 283.141 314.364 283.653L314.826 281.707ZM309.704 280.223C308.503 279.775 307.466 279.059 306.585 278.059L305.084 279.381C306.177 280.621 307.487 281.531 309.006 282.097L309.704 280.223ZM306.594 278.069C305.827 277.174 305.395 275.933 305.395 274.24H303.395C303.395 276.28 303.923 278.026 305.076 279.371L306.594 278.069ZM305.395 274.24C305.395 272.805 305.779 271.535 306.544 270.399L304.885 269.281C303.89 270.759 303.395 272.421 303.395 274.24H305.395ZM306.549 270.391C307.304 269.248 308.457 268.307 310.077 267.596L309.273 265.764C307.373 266.599 305.886 267.765 304.88 269.289L306.549 270.391ZM310.072 267.598C311.701 266.893 313.731 266.52 316.195 266.52V264.52C313.539 264.52 311.222 264.92 309.278 265.762L310.072 267.598ZM316.195 266.52C317.901 266.52 319.566 266.724 321.192 267.13L321.677 265.19C319.89 264.743 318.062 264.52 316.195 264.52V266.52ZM321.192 267.13C322.814 267.536 324.207 268.112 325.385 268.848L326.445 267.152C325.063 266.288 323.469 265.638 321.677 265.19L321.192 267.13ZM324.988 267.623L322.988 272.543L324.841 273.297L326.841 268.377L324.988 267.623ZM324.408 272.05C321.694 270.511 318.939 269.72 316.155 269.72V271.72C318.544 271.72 320.963 272.396 323.422 273.79L324.408 272.05ZM316.155 269.72C314.269 269.72 312.684 270.018 311.56 270.768L312.67 272.432C313.305 272.008 314.414 271.72 316.155 271.72V269.72ZM311.548 270.776C310.449 271.532 309.835 272.601 309.835 273.92H311.835C311.835 273.319 312.074 272.841 312.681 272.424L311.548 270.776ZM309.835 273.92C309.835 274.581 310.008 275.202 310.38 275.745C310.747 276.281 311.268 276.683 311.877 276.979L312.752 275.181C312.375 274.997 312.156 274.799 312.03 274.615C311.908 274.438 311.835 274.219 311.835 273.92H309.835ZM311.906 276.993C313.014 277.488 314.627 277.959 316.699 278.416L317.13 276.464C315.096 276.014 313.642 275.578 312.723 275.167L311.906 276.993ZM316.684 278.413C318.795 278.914 320.498 279.41 321.806 279.897L322.504 278.023C321.091 277.497 319.301 276.979 317.146 276.467L316.684 278.413ZM321.806 279.897C323.01 280.346 324.032 281.05 324.883 282.02L326.386 280.7C325.317 279.483 324.019 278.587 322.504 278.023L321.806 279.897ZM324.892 282.03C325.672 282.894 326.115 284.112 326.115 285.8H328.115C328.115 283.754 327.571 282.012 326.377 280.69L324.892 282.03ZM326.115 285.8C326.115 287.198 325.723 288.469 324.928 289.638L326.582 290.762C327.6 289.265 328.115 287.602 328.115 285.8H326.115ZM324.925 289.641C324.175 290.756 323.01 291.687 321.358 292.402L322.152 294.238C324.073 293.406 325.575 292.258 326.584 290.759L324.925 289.641ZM321.358 292.402C319.729 293.107 317.699 293.48 315.235 293.48V295.48C317.891 295.48 320.207 295.08 322.152 294.238L321.358 292.402ZM336.952 271.28H337.952V270.28H336.952V271.28ZM327.992 271.28H326.992V272.28H327.992V271.28ZM327.992 266V265H326.992V266H327.992ZM352.392 266H353.392V265H352.392V266ZM352.392 271.28V272.28H353.392V271.28H352.392ZM343.432 271.28V270.28H342.432V271.28H343.432ZM343.432 294V295H344.432V294H343.432ZM336.952 294H335.952V295H336.952V294ZM336.952 270.28H327.992V272.28H336.952V270.28ZM328.992 271.28V266H326.992V271.28H328.992ZM327.992 267H352.392V265H327.992V267ZM351.392 266V271.28H353.392V266H351.392ZM352.392 270.28H343.432V272.28H352.392V270.28ZM342.432 271.28V294H344.432V271.28H342.432ZM343.432 293H336.952V295H343.432V293ZM337.952 294V271.28H335.952V294H337.952ZM355.879 266V265H354.879V266H355.879ZM362.359 266H363.359V265H362.359V266ZM362.359 294V295H363.359V294H362.359ZM355.879 294H354.879V295H355.879V294ZM355.879 267H362.359V265H355.879V267ZM361.359 266V294H363.359V266H361.359ZM362.359 293H355.879V295H362.359V293ZM356.879 294V266H354.879V294H356.879ZM395.767 266L396.685 266.397L397.29 265H395.767V266ZM383.647 294V295H384.304L384.565 294.397L383.647 294ZM377.247 294L376.329 294.396L376.59 295H377.247V294ZM365.167 266V265H363.647L364.249 266.396L365.167 266ZM372.167 266L373.087 265.608L372.828 265H372.167V266ZM380.687 286L379.767 286.392L380.681 288.536L381.605 286.397L380.687 286ZM389.327 266V265H388.67L388.409 265.603L389.327 266ZM394.85 265.603L382.73 293.603L384.565 294.397L396.685 266.397L394.85 265.603ZM383.647 293H377.247V295H383.647V293ZM378.166 293.604L366.086 265.604L364.249 266.396L376.329 294.396L378.166 293.604ZM365.167 267H372.167V265H365.167V267ZM371.247 266.392L379.767 286.392L381.607 285.608L373.087 265.608L371.247 266.392ZM381.605 286.397L390.245 266.397L388.409 265.603L379.769 285.603L381.605 286.397ZM389.327 267H395.767V265H389.327V267ZM415.608 288L416.532 287.618L416.276 287H415.608V288ZM402.608 288V287H401.939L401.683 287.618L402.608 288ZM400.128 294V295H400.796L401.052 294.382L400.128 294ZM393.488 294L392.574 293.593L391.947 295H393.488V294ZM405.968 266V265H405.319L405.054 265.593L405.968 266ZM412.368 266L413.281 265.592L413.016 265H412.368V266ZM424.888 294V295H426.43L425.801 293.592L424.888 294ZM418.088 294L417.163 294.382L417.419 295H418.088V294ZM413.568 283.08V284.08H415.064L414.492 282.697L413.568 283.08ZM409.128 272.36L410.052 271.977L409.128 269.747L408.204 271.977L409.128 272.36ZM404.688 283.08L403.764 282.697L403.191 284.08H404.688V283.08ZM415.608 287H402.608V289H415.608V287ZM401.683 287.618L399.203 293.618L401.052 294.382L403.532 288.382L401.683 287.618ZM400.128 293H393.488V295H400.128V293ZM394.401 294.407L406.881 266.407L405.054 265.593L392.574 293.593L394.401 294.407ZM405.968 267H412.368V265H405.968V267ZM411.455 266.408L423.975 294.408L425.801 293.592L413.281 265.592L411.455 266.408ZM424.888 293H418.088V295H424.888V293ZM419.012 293.618L416.532 287.618L414.683 288.382L417.163 294.382L419.012 293.618ZM414.492 282.697L410.052 271.977L408.204 272.743L412.644 283.463L414.492 282.697ZM408.204 271.977L403.764 282.697L405.612 283.463L410.052 272.743L408.204 271.977ZM404.688 284.08H413.568V282.08H404.688V284.08ZM427.793 266V265H426.793V266H427.793ZM434.273 266H435.273V265H434.273V266ZM434.273 288.72H433.273V289.72H434.273V288.72ZM448.313 288.72H449.313V287.72H448.313V288.72ZM448.313 294V295H449.313V294H448.313ZM427.793 294H426.793V295H427.793V294ZM427.793 267H434.273V265H427.793V267ZM433.273 266V288.72H435.273V266H433.273ZM434.273 289.72H448.313V287.72H434.273V289.72ZM447.313 288.72V294H449.313V288.72H447.313ZM448.313 293H427.793V295H448.313V293ZM428.793 294V266H426.793V294H428.793Z" fill="black"/>
    </g>
</svg>
