<svg width="919" height="431" viewBox="0 0 919 431" fill="none" xmlns="http://www.w3.org/2000/svg">
<path d="M2 36V314H198V163.375" stroke="white" stroke-width="3"/>
<path d="M1 36H199V104" stroke="white" stroke-width="3"/>
<path d="M195 35H448V103" stroke="white"/>
<path d="M199 315H370.5V341.5M370.5 341.5H449.5M370.5 341.5V365.5M449.5 341.5V315V175H459.5H467.5M449.5 341.5V365.5M449.5 365.5H370.5M449.5 365.5V388.5M370.5 365.5V388.5M370.5 388.5H449.5M370.5 388.5V409.25M449.5 388.5V409.25M449.5 409.25V430H370.5V409.25M449.5 409.25H370.5" stroke="white"/>
<path d="M594 35H694.612H917V314H594V165.5" stroke="white" stroke-width="3"/>
<path d="M598 315H450" stroke="white"/>
<path d="M596 34V103.5" stroke="white" stroke-width="3"/>
<path d="M448 35H596" stroke="white"/>
<path d="M595 175H517" stroke="white"/>
<path d="M441.923 16H434.004V14.896L438.188 10.2476C438.808 9.54476 439.234 8.97477 439.466 8.5376C439.704 8.09489 439.823 7.63835 439.823 7.16797C439.823 6.53711 439.632 6.01969 439.25 5.61572C438.869 5.21175 438.36 5.00977 437.723 5.00977C436.959 5.00977 436.365 5.22835 435.938 5.66553C435.518 6.09717 435.308 6.70036 435.308 7.4751H433.772C433.772 6.36279 434.129 5.46354 434.843 4.77734C435.562 4.09115 436.522 3.74805 437.723 3.74805C438.847 3.74805 439.735 4.04411 440.388 4.63623C441.041 5.22282 441.367 6.00586 441.367 6.98535C441.367 8.17513 440.609 9.5918 439.093 11.2354L435.855 14.7466H441.923V16ZM443.741 15.1948C443.741 14.9292 443.819 14.7078 443.974 14.5308C444.134 14.3537 444.372 14.2651 444.688 14.2651C445.003 14.2651 445.241 14.3537 445.401 14.5308C445.567 14.7078 445.65 14.9292 445.65 15.1948C445.65 15.4494 445.567 15.6624 445.401 15.834C445.241 16.0055 445.003 16.0913 444.688 16.0913C444.372 16.0913 444.134 16.0055 443.974 15.834C443.819 15.6624 443.741 15.4494 443.741 15.1948ZM456.134 16.166C454.917 16.166 453.926 15.7676 453.163 14.9707C452.399 14.1683 452.017 13.0975 452.017 11.7583V11.4761C452.017 10.5851 452.186 9.79102 452.523 9.09375C452.867 8.39095 453.342 7.8431 453.951 7.4502C454.565 7.05176 455.229 6.85254 455.943 6.85254C457.111 6.85254 458.019 7.23714 458.666 8.00635C459.313 8.77555 459.637 9.87679 459.637 11.3101V11.9492H453.553C453.575 12.8346 453.832 13.5513 454.325 14.0991C454.823 14.6414 455.454 14.9126 456.217 14.9126C456.76 14.9126 457.219 14.8019 457.595 14.5806C457.972 14.3592 458.301 14.0659 458.583 13.7007L459.521 14.4312C458.768 15.5877 457.639 16.166 456.134 16.166ZM455.943 8.11426C455.324 8.11426 454.803 8.34115 454.383 8.79492C453.962 9.24316 453.702 9.87402 453.603 10.6875H458.102V10.5713C458.057 9.79102 457.847 9.18783 457.471 8.76172C457.094 8.33008 456.585 8.11426 455.943 8.11426ZM463.505 4.84375V7.01855H465.182V8.20557H463.505V13.7754C463.505 14.1351 463.58 14.4062 463.729 14.5889C463.879 14.766 464.133 14.8545 464.493 14.8545C464.67 14.8545 464.914 14.8213 465.224 14.7549V16C464.82 16.1107 464.427 16.166 464.045 16.166C463.359 16.166 462.841 15.9585 462.493 15.5435C462.144 15.1284 461.97 14.5391 461.97 13.7754V8.20557H460.334V7.01855H461.97V4.84375H463.505ZM466.618 11.4346C466.618 10.0345 466.942 8.9222 467.589 8.09766C468.237 7.26758 469.095 6.85254 470.163 6.85254C471.258 6.85254 472.113 7.23991 472.728 8.01465L472.802 7.01855H474.205V15.7842C474.205 16.9463 473.859 17.8621 473.167 18.5317C472.481 19.2013 471.557 19.5361 470.395 19.5361C469.748 19.5361 469.114 19.3978 468.494 19.1211C467.874 18.8444 467.401 18.4653 467.075 17.9839L467.872 17.0625C468.53 17.876 469.335 18.2827 470.287 18.2827C471.034 18.2827 471.615 18.0724 472.03 17.6519C472.451 17.2313 472.661 16.6392 472.661 15.8755V15.1035C472.047 15.8118 471.208 16.166 470.146 16.166C469.095 16.166 468.242 15.7427 467.589 14.896C466.942 14.0493 466.618 12.8955 466.618 11.4346ZM468.162 11.6089C468.162 12.6216 468.37 13.4185 468.785 13.9995C469.2 14.575 469.781 14.8628 470.528 14.8628C471.496 14.8628 472.207 14.4229 472.661 13.543V9.44238C472.191 8.58464 471.485 8.15576 470.544 8.15576C469.797 8.15576 469.214 8.44629 468.793 9.02734C468.372 9.6084 468.162 10.4689 468.162 11.6089Z" fill="white"/>
<path d="M510.009 249.19L510.242 250.784L510.582 249.348L512.973 240.914H514.317L516.65 249.348L516.982 250.809L517.239 249.182L519.115 240.914H520.717L517.787 253H516.334L513.844 244.193L513.653 243.271L513.462 244.193L510.881 253H509.428L506.506 240.914H508.1L510.009 249.19ZM535.601 249.165C535.451 250.443 534.978 251.431 534.181 252.128C533.39 252.82 532.336 253.166 531.019 253.166C529.591 253.166 528.445 252.654 527.582 251.63C526.724 250.607 526.295 249.237 526.295 247.521V246.359C526.295 245.236 526.495 244.248 526.893 243.396C527.297 242.544 527.867 241.891 528.603 241.437C529.339 240.978 530.191 240.748 531.16 240.748C532.444 240.748 533.473 241.108 534.248 241.827C535.022 242.541 535.473 243.532 535.601 244.799H533.999C533.86 243.836 533.559 243.139 533.094 242.707C532.634 242.275 531.99 242.06 531.16 242.06C530.141 242.06 529.342 242.436 528.761 243.188C528.185 243.941 527.897 245.012 527.897 246.401V247.571C527.897 248.883 528.171 249.926 528.719 250.701C529.267 251.475 530.034 251.863 531.019 251.863C531.904 251.863 532.582 251.664 533.052 251.265C533.528 250.861 533.844 250.161 533.999 249.165H535.601Z" fill="white"/>
<path d="M510.009 249.19L510.999 249.046L510.993 249.005L510.984 248.965L510.009 249.19ZM510.242 250.784L509.252 250.928L511.215 251.014L510.242 250.784ZM510.582 249.348L509.62 249.075L509.614 249.096L509.609 249.117L510.582 249.348ZM512.973 240.914V239.914H512.217L512.011 240.641L512.973 240.914ZM514.317 240.914L515.281 240.647L515.078 239.914H514.317V240.914ZM516.65 249.348L517.625 249.126L517.62 249.103L517.614 249.081L516.65 249.348ZM516.982 250.809L516.007 251.03L517.97 250.965L516.982 250.809ZM517.239 249.182L516.264 248.96L516.257 248.993L516.252 249.025L517.239 249.182ZM519.115 240.914V239.914H518.317L518.14 240.693L519.115 240.914ZM520.717 240.914L521.689 241.15L521.989 239.914H520.717V240.914ZM517.787 253V254H518.574L518.759 253.236L517.787 253ZM516.334 253L515.372 253.272L515.578 254H516.334V253ZM513.844 244.193L512.865 244.396L512.872 244.431L512.882 244.465L513.844 244.193ZM513.653 243.271L514.633 243.069H512.674L513.653 243.271ZM513.462 244.193L514.422 244.474L514.433 244.435L514.442 244.396L513.462 244.193ZM510.881 253V254H511.63L511.84 253.281L510.881 253ZM509.428 253L508.456 253.235L508.641 254H509.428V253ZM506.506 240.914V239.914H505.236L505.534 241.149L506.506 240.914ZM508.1 240.914L509.075 240.689L508.896 239.914H508.1V240.914ZM509.02 249.334L509.252 250.928L511.231 250.639L510.999 249.046L509.02 249.334ZM511.215 251.014L511.555 249.578L509.609 249.117L509.269 250.553L511.215 251.014ZM511.544 249.62L513.935 241.187L512.011 240.641L509.62 249.075L511.544 249.62ZM512.973 241.914H514.317V239.914H512.973V241.914ZM513.354 241.181L515.686 249.614L517.614 249.081L515.281 240.647L513.354 241.181ZM515.675 249.569L516.007 251.03L517.957 250.587L517.625 249.126L515.675 249.569ZM517.97 250.965L518.227 249.338L516.252 249.025L515.994 250.652L517.97 250.965ZM518.214 249.403L520.09 241.135L518.14 240.693L516.264 248.96L518.214 249.403ZM519.115 241.914H520.717V239.914H519.115V241.914ZM519.745 240.678L516.815 252.764L518.759 253.236L521.689 241.15L519.745 240.678ZM517.787 252H516.334V254H517.787V252ZM517.297 252.728L514.807 243.921L512.882 244.465L515.372 253.272L517.297 252.728ZM514.823 243.99L514.633 243.069L512.674 243.474L512.865 244.396L514.823 243.99ZM512.674 243.069L512.483 243.99L514.442 244.396L514.633 243.474L512.674 243.069ZM512.503 243.912L509.921 252.719L511.84 253.281L514.422 244.474L512.503 243.912ZM510.881 252H509.428V254H510.881V252ZM510.4 252.765L507.478 240.679L505.534 241.149L508.456 253.235L510.4 252.765ZM506.506 241.914H508.1V239.914H506.506V241.914ZM507.126 241.139L509.035 249.415L510.984 248.965L509.075 240.689L507.126 241.139ZM535.601 249.165L536.594 249.281L536.724 248.165H535.601V249.165ZM534.181 252.128L534.839 252.881L534.84 252.881L534.181 252.128ZM527.582 251.63L526.816 252.273L526.818 252.275L527.582 251.63ZM526.893 243.396L525.989 242.968L525.987 242.972L526.893 243.396ZM528.603 241.437L529.128 242.288L529.132 242.285L528.603 241.437ZM534.248 241.827L533.567 242.56L533.57 242.563L534.248 241.827ZM535.601 244.799V245.799H536.706L536.596 244.699L535.601 244.799ZM533.999 244.799L533.009 244.941L533.132 245.799H533.999V244.799ZM533.094 242.707L532.409 243.436L532.413 243.44L533.094 242.707ZM528.761 243.188L527.969 242.577L527.966 242.581L528.761 243.188ZM533.052 251.265L533.699 252.028L533.699 252.028L533.052 251.265ZM533.999 249.165V248.165H533.142L533.01 249.011L533.999 249.165ZM534.607 249.049C534.48 250.137 534.095 250.875 533.523 251.376L534.84 252.881C535.861 251.987 536.422 250.75 536.594 249.281L534.607 249.049ZM533.523 251.376C532.957 251.871 532.157 252.166 531.019 252.166V254.166C532.514 254.166 533.823 253.77 534.839 252.881L533.523 251.376ZM531.019 252.166C529.863 252.166 529.006 251.768 528.347 250.986L526.818 252.275C527.885 253.541 529.318 254.166 531.019 254.166V252.166ZM528.349 250.988C527.68 250.191 527.295 249.07 527.295 247.521H525.295C525.295 249.404 525.768 251.023 526.816 252.273L528.349 250.988ZM527.295 247.521V246.359H525.295V247.521H527.295ZM527.295 246.359C527.295 245.354 527.473 244.516 527.799 243.82L525.987 242.972C525.516 243.981 525.295 245.118 525.295 246.359H527.295ZM527.797 243.824C528.126 243.13 528.571 242.631 529.128 242.288L528.078 240.586C527.163 241.15 526.468 241.957 525.989 242.968L527.797 243.824ZM529.132 242.285C529.692 241.936 530.356 241.748 531.16 241.748V239.748C530.026 239.748 528.986 240.019 528.074 240.589L529.132 242.285ZM531.16 241.748C532.248 241.748 533.015 242.048 533.567 242.56L534.928 241.094C533.93 240.168 532.639 239.748 531.16 239.748V241.748ZM533.57 242.563C534.129 243.078 534.497 243.822 534.606 244.899L536.596 244.699C536.449 243.242 535.916 242.005 534.925 241.092L533.57 242.563ZM535.601 243.799H533.999V245.799H535.601V243.799ZM534.988 244.657C534.834 243.582 534.476 242.625 533.774 241.974L532.413 243.44C532.642 243.652 532.886 244.09 533.009 244.941L534.988 244.657ZM533.779 241.978C533.081 241.323 532.161 241.06 531.16 241.06V243.06C531.818 243.06 532.188 243.228 532.409 243.436L533.779 241.978ZM531.16 241.06C529.857 241.06 528.755 241.56 527.969 242.577L529.552 243.8C529.929 243.312 530.426 243.06 531.16 243.06V241.06ZM527.966 242.581C527.208 243.573 526.897 244.891 526.897 246.401H528.897C528.897 245.133 529.162 244.309 529.555 243.796L527.966 242.581ZM526.897 246.401V247.571H528.897V246.401H526.897ZM526.897 247.571C526.897 249.013 527.198 250.281 527.903 251.278L529.536 250.123C529.145 249.571 528.897 248.753 528.897 247.571H526.897ZM527.903 251.278C528.646 252.33 529.724 252.863 531.019 252.863V250.863C530.343 250.863 529.888 250.621 529.536 250.123L527.903 251.278ZM531.019 252.863C532.039 252.863 532.983 252.634 533.699 252.028L532.406 250.502C532.181 250.693 531.769 250.863 531.019 250.863V252.863ZM533.699 252.028C534.442 251.397 534.816 250.415 534.987 249.319L533.01 249.011C532.871 249.907 532.615 250.325 532.405 250.503L533.699 252.028ZM533.999 250.165H535.601V248.165H533.999V250.165Z" fill="white"/>
<path d="M311.326 184.415C310.917 185.001 310.344 185.441 309.608 185.734C308.877 186.022 308.025 186.166 307.051 186.166C306.066 186.166 305.192 185.936 304.428 185.477C303.665 185.012 303.072 184.354 302.652 183.501C302.237 182.649 302.024 181.661 302.013 180.538V179.484C302.013 177.663 302.436 176.252 303.283 175.25C304.135 174.249 305.33 173.748 306.869 173.748C308.13 173.748 309.146 174.072 309.915 174.719C310.684 175.361 311.155 176.274 311.326 177.458H309.732C309.434 175.859 308.482 175.06 306.877 175.06C305.809 175.06 304.998 175.436 304.445 176.188C303.897 176.936 303.62 178.02 303.615 179.442V180.43C303.615 181.786 303.925 182.865 304.544 183.667C305.164 184.464 306.003 184.863 307.06 184.863C307.657 184.863 308.18 184.796 308.628 184.664C309.077 184.531 309.447 184.307 309.741 183.991V181.277H306.943V179.982H311.326V184.415ZM319.295 186C319.206 185.823 319.134 185.507 319.079 185.054C318.365 185.795 317.513 186.166 316.522 186.166C315.637 186.166 314.909 185.917 314.339 185.419C313.775 184.915 313.493 184.279 313.493 183.51C313.493 182.575 313.847 181.85 314.555 181.335C315.269 180.815 316.271 180.555 317.56 180.555H319.054V179.849C319.054 179.312 318.894 178.886 318.573 178.571C318.252 178.25 317.779 178.089 317.153 178.089C316.605 178.089 316.146 178.228 315.775 178.504C315.405 178.781 315.219 179.116 315.219 179.509H313.675C313.675 179.061 313.833 178.629 314.148 178.214C314.469 177.793 314.901 177.461 315.443 177.218C315.991 176.974 316.592 176.853 317.245 176.853C318.279 176.853 319.09 177.113 319.677 177.633C320.263 178.147 320.568 178.859 320.59 179.766V183.9C320.59 184.724 320.695 185.38 320.905 185.867V186H319.295ZM316.747 184.83C317.228 184.83 317.685 184.705 318.116 184.456C318.548 184.207 318.861 183.883 319.054 183.485V181.642H317.851C315.969 181.642 315.028 182.193 315.028 183.294C315.028 183.775 315.189 184.152 315.51 184.423C315.831 184.694 316.243 184.83 316.747 184.83ZM324.45 177.019L324.5 178.147C325.186 177.284 326.082 176.853 327.189 176.853C329.087 176.853 330.044 177.923 330.061 180.065V186H328.525V180.057C328.52 179.409 328.37 178.931 328.077 178.621C327.789 178.311 327.338 178.156 326.724 178.156C326.226 178.156 325.789 178.289 325.413 178.554C325.036 178.82 324.743 179.168 324.533 179.6V186H322.997V177.019H324.45ZM332.012 181.435C332.012 180.035 332.335 178.922 332.983 178.098C333.63 177.268 334.488 176.853 335.556 176.853C336.652 176.853 337.507 177.24 338.121 178.015L338.196 177.019H339.599V185.784C339.599 186.946 339.253 187.862 338.561 188.532C337.875 189.201 336.951 189.536 335.789 189.536C335.141 189.536 334.507 189.398 333.888 189.121C333.268 188.844 332.795 188.465 332.468 187.984L333.265 187.062C333.924 187.876 334.729 188.283 335.681 188.283C336.428 188.283 337.009 188.072 337.424 187.652C337.844 187.231 338.055 186.639 338.055 185.875V185.104C337.44 185.812 336.602 186.166 335.54 186.166C334.488 186.166 333.636 185.743 332.983 184.896C332.335 184.049 332.012 182.896 332.012 181.435ZM333.556 181.609C333.556 182.622 333.763 183.418 334.178 184C334.593 184.575 335.174 184.863 335.921 184.863C336.89 184.863 337.601 184.423 338.055 183.543V179.442C337.584 178.585 336.879 178.156 335.938 178.156C335.191 178.156 334.607 178.446 334.187 179.027C333.766 179.608 333.556 180.469 333.556 181.609Z" fill="white"/>
<path d="M73.8442 149.945C73.8442 149.663 73.8 149.414 73.7114 149.198C73.6284 148.977 73.479 148.778 73.2632 148.601C73.0529 148.424 72.7596 148.255 72.3833 148.094C72.0125 147.934 71.5422 147.771 70.9722 147.604C70.3745 147.427 69.835 147.231 69.3535 147.015C68.8721 146.794 68.4598 146.542 68.1167 146.26C67.7736 145.978 67.5107 145.654 67.3281 145.289C67.1455 144.923 67.0542 144.506 67.0542 144.035C67.0542 143.565 67.151 143.13 67.3447 142.732C67.5384 142.333 67.8151 141.988 68.1748 141.694C68.54 141.396 68.9744 141.163 69.478 140.997C69.9816 140.831 70.5433 140.748 71.1631 140.748C72.0706 140.748 72.8398 140.922 73.4707 141.271C74.1071 141.614 74.5913 142.065 74.9233 142.624C75.2554 143.177 75.4214 143.77 75.4214 144.4H73.8276C73.8276 143.947 73.7308 143.545 73.5371 143.197C73.3434 142.843 73.0501 142.566 72.6572 142.367C72.2643 142.162 71.7663 142.06 71.1631 142.06C70.5931 142.06 70.1227 142.145 69.752 142.317C69.3812 142.488 69.1045 142.721 68.9219 143.014C68.7448 143.307 68.6562 143.642 68.6562 144.019C68.6562 144.273 68.7088 144.506 68.814 144.716C68.9246 144.921 69.0934 145.111 69.3203 145.289C69.5527 145.466 69.846 145.629 70.2002 145.778C70.5599 145.928 70.9888 146.072 71.4868 146.21C72.173 146.404 72.7651 146.619 73.2632 146.857C73.7612 147.095 74.1707 147.364 74.4917 147.663C74.8182 147.956 75.0589 148.291 75.2139 148.667C75.3743 149.038 75.4546 149.458 75.4546 149.929C75.4546 150.421 75.355 150.867 75.1558 151.265C74.9565 151.664 74.6715 152.004 74.3008 152.286C73.93 152.568 73.4845 152.787 72.9644 152.942C72.4497 153.091 71.8742 153.166 71.2378 153.166C70.6789 153.166 70.1283 153.089 69.5859 152.934C69.0492 152.779 68.5594 152.546 68.1167 152.236C67.6795 151.926 67.3281 151.545 67.0625 151.091C66.8024 150.632 66.6724 150.1 66.6724 149.497H68.2661C68.2661 149.912 68.3464 150.269 68.5068 150.568C68.6673 150.861 68.8859 151.105 69.1626 151.298C69.4448 151.492 69.763 151.636 70.1172 151.73C70.4769 151.819 70.8504 151.863 71.2378 151.863C71.7967 151.863 72.2699 151.785 72.6572 151.63C73.0446 151.475 73.3379 151.254 73.5371 150.966C73.7419 150.679 73.8442 150.338 73.8442 149.945ZM76.8574 148.609V148.418C76.8574 147.771 76.9515 147.17 77.1396 146.617C77.3278 146.058 77.599 145.574 77.9531 145.164C78.3073 144.749 78.7362 144.428 79.2397 144.201C79.7433 143.969 80.3078 143.853 80.9331 143.853C81.564 143.853 82.1312 143.969 82.6348 144.201C83.1439 144.428 83.5755 144.749 83.9297 145.164C84.2894 145.574 84.5633 146.058 84.7515 146.617C84.9396 147.17 85.0337 147.771 85.0337 148.418V148.609C85.0337 149.256 84.9396 149.857 84.7515 150.41C84.5633 150.964 84.2894 151.448 83.9297 151.863C83.5755 152.272 83.1466 152.593 82.6431 152.826C82.145 153.053 81.5806 153.166 80.9497 153.166C80.3188 153.166 79.7516 153.053 79.248 152.826C78.7445 152.593 78.3128 152.272 77.9531 151.863C77.599 151.448 77.3278 150.964 77.1396 150.41C76.9515 149.857 76.8574 149.256 76.8574 148.609ZM78.3931 148.418V148.609C78.3931 149.057 78.4456 149.48 78.5508 149.879C78.6559 150.272 78.8136 150.62 79.0239 150.925C79.2397 151.229 79.5081 151.47 79.8291 151.647C80.1501 151.819 80.5236 151.904 80.9497 151.904C81.3703 151.904 81.7383 151.819 82.0537 151.647C82.3747 151.47 82.6403 151.229 82.8506 150.925C83.0609 150.62 83.2186 150.272 83.3237 149.879C83.4344 149.48 83.4897 149.057 83.4897 148.609V148.418C83.4897 147.975 83.4344 147.557 83.3237 147.165C83.2186 146.766 83.0581 146.415 82.8423 146.11C82.632 145.8 82.3664 145.557 82.0454 145.38C81.73 145.203 81.3592 145.114 80.9331 145.114C80.5125 145.114 80.1418 145.203 79.8208 145.38C79.5054 145.557 79.2397 145.8 79.0239 146.11C78.8136 146.415 78.6559 146.766 78.5508 147.165C78.4456 147.557 78.3931 147.975 78.3931 148.418ZM89.5576 151.614L92.0146 144.019H93.5835L90.3545 153H89.3252L89.5576 151.614ZM87.5073 144.019L90.0391 151.655L90.2134 153H89.1841L85.9302 144.019H87.5073ZM98.6719 153.166C98.0465 153.166 97.4793 153.061 96.9702 152.851C96.4666 152.635 96.0322 152.333 95.667 151.946C95.3073 151.558 95.0306 151.099 94.8369 150.568C94.6432 150.037 94.5464 149.456 94.5464 148.825V148.476C94.5464 147.746 94.6543 147.095 94.8701 146.525C95.0859 145.95 95.3792 145.463 95.75 145.064C96.1208 144.666 96.5413 144.364 97.0117 144.16C97.4821 143.955 97.9691 143.853 98.4727 143.853C99.1146 143.853 99.668 143.963 100.133 144.185C100.603 144.406 100.988 144.716 101.287 145.114C101.585 145.507 101.807 145.972 101.951 146.509C102.095 147.04 102.167 147.621 102.167 148.252V148.941H95.4595V147.688H100.631V147.571C100.609 147.173 100.526 146.785 100.382 146.409C100.243 146.033 100.022 145.723 99.7178 145.479C99.4134 145.236 98.9984 145.114 98.4727 145.114C98.124 145.114 97.8031 145.189 97.5098 145.338C97.2165 145.482 96.9647 145.698 96.7544 145.986C96.5441 146.274 96.3809 146.625 96.2646 147.04C96.1484 147.455 96.0903 147.934 96.0903 148.476V148.825C96.0903 149.251 96.1484 149.652 96.2646 150.028C96.3864 150.399 96.5607 150.726 96.7876 151.008C97.02 151.29 97.2995 151.511 97.626 151.672C97.958 151.832 98.3343 151.913 98.7549 151.913C99.2972 151.913 99.7565 151.802 100.133 151.581C100.509 151.359 100.838 151.063 101.121 150.692L102.05 151.431C101.857 151.724 101.61 152.004 101.312 152.27C101.013 152.535 100.645 152.751 100.208 152.917C99.7759 153.083 99.264 153.166 98.6719 153.166ZM105.495 145.43V153H103.959V144.019H105.454L105.495 145.43ZM108.301 143.969L108.292 145.396C108.165 145.369 108.043 145.352 107.927 145.347C107.817 145.336 107.689 145.33 107.545 145.33C107.191 145.33 106.879 145.385 106.607 145.496C106.336 145.607 106.107 145.762 105.918 145.961C105.73 146.16 105.581 146.398 105.47 146.675C105.365 146.946 105.296 147.245 105.263 147.571L104.831 147.82C104.831 147.278 104.884 146.769 104.989 146.293C105.099 145.817 105.268 145.396 105.495 145.031C105.722 144.66 106.01 144.373 106.358 144.168C106.713 143.958 107.133 143.853 107.62 143.853C107.731 143.853 107.858 143.866 108.002 143.894C108.146 143.916 108.245 143.941 108.301 143.969ZM109.147 148.609V148.418C109.147 147.771 109.242 147.17 109.43 146.617C109.618 146.058 109.889 145.574 110.243 145.164C110.597 144.749 111.026 144.428 111.53 144.201C112.033 143.969 112.598 143.853 113.223 143.853C113.854 143.853 114.421 143.969 114.925 144.201C115.434 144.428 115.866 144.749 116.22 145.164C116.579 145.574 116.853 146.058 117.042 146.617C117.23 147.17 117.324 147.771 117.324 148.418V148.609C117.324 149.256 117.23 149.857 117.042 150.41C116.853 150.964 116.579 151.448 116.22 151.863C115.866 152.272 115.437 152.593 114.933 152.826C114.435 153.053 113.871 153.166 113.24 153.166C112.609 153.166 112.042 153.053 111.538 152.826C111.035 152.593 110.603 152.272 110.243 151.863C109.889 151.448 109.618 150.964 109.43 150.41C109.242 149.857 109.147 149.256 109.147 148.609ZM110.683 148.418V148.609C110.683 149.057 110.736 149.48 110.841 149.879C110.946 150.272 111.104 150.62 111.314 150.925C111.53 151.229 111.798 151.47 112.119 151.647C112.44 151.819 112.814 151.904 113.24 151.904C113.66 151.904 114.028 151.819 114.344 151.647C114.665 151.47 114.93 151.229 115.141 150.925C115.351 150.62 115.509 150.272 115.614 149.879C115.724 149.48 115.78 149.057 115.78 148.609V148.418C115.78 147.975 115.724 147.557 115.614 147.165C115.509 146.766 115.348 146.415 115.132 146.11C114.922 145.8 114.656 145.557 114.335 145.38C114.02 145.203 113.649 145.114 113.223 145.114C112.803 145.114 112.432 145.203 112.111 145.38C111.795 145.557 111.53 145.8 111.314 146.11C111.104 146.415 110.946 146.766 110.841 147.165C110.736 147.557 110.683 147.975 110.683 148.418ZM120.777 145.803V153H119.233V144.019H120.694L120.777 145.803ZM120.461 148.169L119.748 148.144C119.753 147.53 119.833 146.963 119.988 146.442C120.143 145.917 120.373 145.46 120.677 145.073C120.982 144.685 121.361 144.387 121.814 144.176C122.268 143.96 122.794 143.853 123.392 143.853C123.812 143.853 124.2 143.913 124.554 144.035C124.908 144.151 125.215 144.337 125.475 144.591C125.735 144.846 125.937 145.172 126.081 145.571C126.225 145.969 126.297 146.451 126.297 147.015V153H124.761V147.09C124.761 146.619 124.681 146.243 124.521 145.961C124.366 145.679 124.144 145.474 123.856 145.347C123.569 145.214 123.231 145.147 122.844 145.147C122.39 145.147 122.011 145.228 121.707 145.388C121.402 145.549 121.159 145.77 120.976 146.052C120.793 146.334 120.661 146.658 120.578 147.023C120.5 147.383 120.461 147.765 120.461 148.169ZM126.28 147.322L125.251 147.638C125.257 147.145 125.337 146.672 125.492 146.218C125.652 145.764 125.882 145.361 126.181 145.006C126.485 144.652 126.859 144.373 127.301 144.168C127.744 143.958 128.25 143.853 128.82 143.853C129.302 143.853 129.728 143.916 130.099 144.043C130.475 144.171 130.79 144.367 131.045 144.633C131.305 144.893 131.501 145.228 131.634 145.637C131.767 146.047 131.833 146.534 131.833 147.098V153H130.29V147.082C130.29 146.578 130.209 146.188 130.049 145.911C129.894 145.629 129.673 145.432 129.385 145.322C129.103 145.206 128.765 145.147 128.372 145.147C128.035 145.147 127.736 145.206 127.476 145.322C127.215 145.438 126.997 145.598 126.82 145.803C126.643 146.002 126.507 146.232 126.413 146.492C126.325 146.752 126.28 147.029 126.28 147.322Z" fill="white"/>
<path d="M100.183 193.035L100.03 194H94.1523L94.292 193.105L97.707 189.779C97.9398 189.546 98.1873 189.296 98.4497 189.03C98.7121 188.763 98.9427 188.478 99.1416 188.173C99.3405 187.868 99.4632 187.54 99.5098 187.189C99.5436 186.901 99.5161 186.639 99.4272 186.402C99.3384 186.161 99.1924 185.968 98.9893 185.824C98.7861 185.676 98.5322 185.598 98.2275 185.589C97.834 185.577 97.4933 185.651 97.2056 185.812C96.9178 185.972 96.6851 186.197 96.5073 186.484C96.3338 186.772 96.2196 187.1 96.1646 187.468L95.0347 187.475C95.0897 186.899 95.2632 186.396 95.5552 185.964C95.8514 185.532 96.2344 185.2 96.7041 184.967C97.1738 184.73 97.6965 184.618 98.272 184.631C98.7502 184.639 99.1797 184.741 99.5605 184.936C99.9414 185.126 100.233 185.401 100.437 185.761C100.644 186.12 100.724 186.552 100.678 187.056C100.652 187.386 100.57 187.703 100.43 188.008C100.291 188.308 100.117 188.598 99.9097 188.877C99.7065 189.153 99.4865 189.413 99.2495 189.658C99.0125 189.904 98.7798 190.134 98.5513 190.35L95.7266 193.035H100.183ZM108.727 192.14C108.765 191.878 108.716 191.673 108.581 191.524C108.449 191.376 108.276 191.264 108.06 191.188C107.848 191.108 107.641 191.042 107.438 190.991C107.184 190.928 106.928 190.849 106.67 190.756C106.412 190.663 106.175 190.545 105.959 190.401C105.747 190.253 105.578 190.071 105.451 189.855C105.328 189.635 105.273 189.368 105.286 189.055C105.303 188.717 105.392 188.418 105.553 188.16C105.718 187.902 105.929 187.686 106.188 187.513C106.45 187.339 106.736 187.21 107.044 187.125C107.353 187.041 107.66 187.001 107.965 187.005C108.396 187.013 108.788 187.102 109.139 187.271C109.495 187.441 109.776 187.684 109.983 188.001C110.191 188.319 110.288 188.704 110.275 189.157L109.139 189.15C109.148 188.909 109.099 188.702 108.993 188.528C108.887 188.355 108.741 188.222 108.555 188.128C108.369 188.031 108.157 187.98 107.92 187.976C107.696 187.972 107.476 188.008 107.26 188.084C107.044 188.156 106.86 188.27 106.708 188.427C106.556 188.579 106.463 188.778 106.429 189.023C106.403 189.205 106.431 189.356 106.511 189.474C106.592 189.588 106.702 189.681 106.841 189.753C106.985 189.821 107.135 189.878 107.292 189.925C107.453 189.967 107.599 190.005 107.73 190.039C108.077 190.136 108.42 190.259 108.758 190.407C109.097 190.555 109.372 190.761 109.583 191.023C109.795 191.281 109.89 191.622 109.869 192.045C109.852 192.405 109.757 192.718 109.583 192.984C109.414 193.247 109.194 193.465 108.923 193.638C108.657 193.807 108.363 193.932 108.041 194.013C107.719 194.093 107.398 194.131 107.076 194.127C106.632 194.118 106.217 194.028 105.832 193.854C105.451 193.676 105.146 193.422 104.918 193.092C104.689 192.758 104.582 192.352 104.594 191.874L105.743 191.88C105.743 192.155 105.8 192.388 105.915 192.578C106.033 192.764 106.196 192.906 106.403 193.003C106.611 193.101 106.848 193.152 107.114 193.156C107.339 193.16 107.567 193.13 107.8 193.067C108.037 193.003 108.24 192.898 108.409 192.75C108.583 192.597 108.688 192.394 108.727 192.14ZM111.297 190.68L111.316 190.534C111.367 190.073 111.481 189.629 111.659 189.201C111.841 188.774 112.08 188.393 112.376 188.059C112.673 187.724 113.024 187.462 113.43 187.271C113.836 187.081 114.289 186.992 114.789 187.005C115.271 187.013 115.684 187.117 116.026 187.316C116.373 187.515 116.653 187.779 116.864 188.109C117.08 188.435 117.23 188.803 117.315 189.214C117.4 189.624 117.421 190.048 117.378 190.483L117.366 190.629C117.311 191.091 117.192 191.533 117.01 191.956C116.828 192.379 116.587 192.756 116.287 193.086C115.99 193.416 115.639 193.676 115.233 193.867C114.827 194.053 114.376 194.14 113.881 194.127C113.403 194.118 112.99 194.017 112.643 193.822C112.3 193.623 112.023 193.361 111.812 193.035C111.6 192.709 111.452 192.343 111.367 191.937C111.283 191.531 111.259 191.112 111.297 190.68ZM112.459 190.534L112.446 190.687C112.417 190.953 112.415 191.23 112.44 191.518C112.47 191.806 112.537 192.072 112.643 192.318C112.753 192.563 112.912 192.764 113.119 192.921C113.326 193.077 113.595 193.16 113.925 193.168C114.277 193.177 114.585 193.109 114.852 192.965C115.119 192.817 115.345 192.618 115.531 192.369C115.722 192.119 115.872 191.842 115.982 191.537C116.096 191.232 116.172 190.93 116.21 190.629L116.223 190.483C116.253 190.217 116.253 189.94 116.223 189.652C116.198 189.36 116.13 189.089 116.02 188.839C115.914 188.585 115.758 188.38 115.55 188.224C115.343 188.063 115.074 187.978 114.744 187.97C114.393 187.957 114.082 188.027 113.811 188.179C113.544 188.327 113.318 188.528 113.132 188.782C112.946 189.036 112.795 189.318 112.681 189.626C112.571 189.931 112.497 190.234 112.459 190.534ZM120.362 192.883L123.066 187.132H124.278L120.806 194H120L120.362 192.883ZM119.727 187.132L120.705 193.029L120.673 194H119.937L118.591 187.132H119.727ZM127.021 194.127C126.551 194.118 126.142 194.025 125.795 193.848C125.453 193.666 125.171 193.422 124.951 193.118C124.735 192.809 124.581 192.458 124.488 192.064C124.395 191.67 124.367 191.258 124.405 190.826L124.431 190.553C124.473 190.113 124.581 189.681 124.754 189.258C124.928 188.831 125.159 188.446 125.446 188.103C125.738 187.76 126.081 187.489 126.475 187.291C126.872 187.087 127.312 186.992 127.795 187.005C128.273 187.013 128.671 187.115 128.988 187.31C129.306 187.504 129.553 187.762 129.731 188.084C129.913 188.401 130.031 188.759 130.086 189.157C130.141 189.55 130.146 189.954 130.099 190.369L130.029 190.896H125.046L125.199 189.938L129.001 189.944L129.02 189.842C129.062 189.538 129.045 189.243 128.969 188.96C128.893 188.676 128.753 188.444 128.55 188.262C128.351 188.076 128.083 187.978 127.744 187.97C127.393 187.957 127.088 188.029 126.83 188.186C126.572 188.338 126.356 188.545 126.183 188.808C126.009 189.066 125.872 189.349 125.77 189.658C125.673 189.963 125.605 190.261 125.567 190.553L125.542 190.82C125.516 191.091 125.525 191.364 125.567 191.639C125.609 191.914 125.69 192.166 125.808 192.394C125.931 192.618 126.1 192.802 126.316 192.946C126.532 193.086 126.798 193.16 127.116 193.168C127.501 193.177 127.846 193.094 128.15 192.921C128.459 192.743 128.741 192.519 128.995 192.248L129.648 192.807C129.45 193.099 129.213 193.344 128.938 193.543C128.662 193.742 128.362 193.89 128.036 193.987C127.71 194.085 127.372 194.131 127.021 194.127ZM132.905 188.522L131.496 196.641H130.34L131.991 187.132H133.044L132.905 188.522ZM137.037 190.471L137.024 190.604C136.969 191.019 136.868 191.438 136.72 191.861C136.576 192.28 136.379 192.663 136.129 193.01C135.88 193.357 135.573 193.634 135.209 193.841C134.849 194.049 134.426 194.146 133.939 194.133C133.512 194.125 133.146 194.032 132.841 193.854C132.537 193.672 132.291 193.433 132.105 193.137C131.919 192.836 131.785 192.502 131.705 192.134C131.629 191.761 131.604 191.381 131.629 190.991L131.718 190.287C131.79 189.872 131.91 189.468 132.08 189.074C132.253 188.676 132.473 188.319 132.74 188.001C133.006 187.684 133.322 187.437 133.686 187.259C134.054 187.077 134.471 186.992 134.936 187.005C135.406 187.018 135.787 187.132 136.079 187.348C136.375 187.559 136.599 187.836 136.751 188.179C136.908 188.518 137.005 188.888 137.043 189.29C137.082 189.688 137.079 190.081 137.037 190.471ZM135.869 190.598L135.888 190.458C135.918 190.204 135.924 189.935 135.907 189.652C135.895 189.368 135.842 189.104 135.749 188.858C135.66 188.609 135.518 188.403 135.323 188.243C135.133 188.082 134.873 187.997 134.542 187.989C134.28 187.98 134.03 188.025 133.793 188.122C133.561 188.215 133.349 188.348 133.159 188.522C132.968 188.691 132.805 188.888 132.67 189.112C132.535 189.332 132.435 189.565 132.372 189.811L132.099 191.467C132.094 191.768 132.16 192.047 132.295 192.305C132.431 192.559 132.615 192.764 132.848 192.921C133.085 193.077 133.353 193.16 133.654 193.168C134.005 193.177 134.31 193.107 134.568 192.959C134.83 192.807 135.05 192.604 135.228 192.35C135.406 192.091 135.548 191.81 135.653 191.505C135.759 191.196 135.831 190.894 135.869 190.598ZM140.827 184.25L139.132 194H137.983L139.671 184.25H140.827ZM145.111 192.826L145.683 189.277C145.712 189.015 145.687 188.784 145.606 188.585C145.53 188.387 145.401 188.232 145.219 188.122C145.042 188.012 144.817 187.953 144.546 187.944C144.309 187.94 144.077 187.978 143.848 188.059C143.624 188.139 143.429 188.26 143.264 188.42C143.099 188.581 142.991 188.784 142.94 189.03L141.798 189.036C141.827 188.693 141.935 188.395 142.122 188.141C142.308 187.883 142.541 187.669 142.82 187.5C143.099 187.326 143.4 187.2 143.721 187.119C144.043 187.035 144.356 186.994 144.661 186.999C145.122 187.007 145.522 187.106 145.86 187.297C146.203 187.483 146.461 187.745 146.635 188.084C146.808 188.423 146.872 188.829 146.825 189.303L146.298 192.502C146.26 192.735 146.237 192.97 146.229 193.207C146.224 193.439 146.252 193.668 146.311 193.892L146.298 194L145.137 194.006C145.09 193.812 145.067 193.615 145.067 193.416C145.071 193.217 145.086 193.02 145.111 192.826ZM145.816 189.836L145.683 190.661L144.597 190.655C144.369 190.655 144.127 190.672 143.874 190.706C143.62 190.739 143.378 190.803 143.15 190.896C142.921 190.989 142.729 191.125 142.572 191.302C142.416 191.476 142.32 191.702 142.287 191.981C142.261 192.21 142.289 192.409 142.369 192.578C142.454 192.743 142.581 192.872 142.75 192.965C142.919 193.058 143.116 193.107 143.34 193.111C143.632 193.116 143.92 193.058 144.204 192.94C144.487 192.821 144.735 192.652 144.946 192.432C145.158 192.212 145.304 191.958 145.384 191.67L145.803 192.235C145.723 192.515 145.592 192.773 145.41 193.01C145.228 193.243 145.012 193.444 144.762 193.613C144.517 193.782 144.252 193.913 143.969 194.006C143.685 194.099 143.402 194.144 143.118 194.14C142.733 194.131 142.384 194.044 142.071 193.879C141.762 193.714 141.516 193.484 141.334 193.188C141.157 192.887 141.081 192.538 141.106 192.14C141.131 191.704 141.246 191.338 141.449 191.042C141.652 190.746 141.912 190.509 142.229 190.331C142.551 190.153 142.902 190.026 143.283 189.95C143.664 189.87 144.041 189.83 144.413 189.83L145.816 189.836ZM152.068 192.14C152.106 191.878 152.058 191.673 151.922 191.524C151.791 191.376 151.618 191.264 151.402 191.188C151.19 191.108 150.983 191.042 150.78 190.991C150.526 190.928 150.27 190.849 150.012 190.756C149.754 190.663 149.517 190.545 149.301 190.401C149.089 190.253 148.92 190.071 148.793 189.855C148.67 189.635 148.615 189.368 148.628 189.055C148.645 188.717 148.734 188.418 148.895 188.16C149.06 187.902 149.271 187.686 149.529 187.513C149.792 187.339 150.077 187.21 150.386 187.125C150.695 187.041 151.002 187.001 151.307 187.005C151.738 187.013 152.13 187.102 152.481 187.271C152.836 187.441 153.118 187.684 153.325 188.001C153.533 188.319 153.63 188.704 153.617 189.157L152.481 189.15C152.489 188.909 152.441 188.702 152.335 188.528C152.229 188.355 152.083 188.222 151.897 188.128C151.711 188.031 151.499 187.98 151.262 187.976C151.038 187.972 150.818 188.008 150.602 188.084C150.386 188.156 150.202 188.27 150.05 188.427C149.897 188.579 149.804 188.778 149.771 189.023C149.745 189.205 149.773 189.356 149.853 189.474C149.933 189.588 150.043 189.681 150.183 189.753C150.327 189.821 150.477 189.878 150.634 189.925C150.795 189.967 150.941 190.005 151.072 190.039C151.419 190.136 151.762 190.259 152.1 190.407C152.439 190.555 152.714 190.761 152.925 191.023C153.137 191.281 153.232 191.622 153.211 192.045C153.194 192.405 153.099 192.718 152.925 192.984C152.756 193.247 152.536 193.465 152.265 193.638C151.999 193.807 151.704 193.932 151.383 194.013C151.061 194.093 150.74 194.131 150.418 194.127C149.974 194.118 149.559 194.028 149.174 193.854C148.793 193.676 148.488 193.422 148.26 193.092C148.031 192.758 147.923 192.352 147.936 191.874L149.085 191.88C149.085 192.155 149.142 192.388 149.256 192.578C149.375 192.764 149.538 192.906 149.745 193.003C149.952 193.101 150.189 193.152 150.456 193.156C150.68 193.16 150.909 193.13 151.142 193.067C151.379 193.003 151.582 192.898 151.751 192.75C151.924 192.597 152.03 192.394 152.068 192.14ZM158.581 192.14C158.619 191.878 158.57 191.673 158.435 191.524C158.304 191.376 158.13 191.264 157.915 191.188C157.703 191.108 157.496 191.042 157.292 190.991C157.039 190.928 156.783 190.849 156.524 190.756C156.266 190.663 156.029 190.545 155.813 190.401C155.602 190.253 155.433 190.071 155.306 189.855C155.183 189.635 155.128 189.368 155.141 189.055C155.158 188.717 155.246 188.418 155.407 188.16C155.572 187.902 155.784 187.686 156.042 187.513C156.304 187.339 156.59 187.21 156.899 187.125C157.208 187.041 157.515 187.001 157.819 187.005C158.251 187.013 158.642 187.102 158.994 187.271C159.349 187.441 159.631 187.684 159.838 188.001C160.045 188.319 160.143 188.704 160.13 189.157L158.994 189.15C159.002 188.909 158.953 188.702 158.848 188.528C158.742 188.355 158.596 188.222 158.41 188.128C158.223 188.031 158.012 187.98 157.775 187.976C157.551 187.972 157.331 188.008 157.115 188.084C156.899 188.156 156.715 188.27 156.562 188.427C156.41 188.579 156.317 188.778 156.283 189.023C156.258 189.205 156.285 189.356 156.366 189.474C156.446 189.588 156.556 189.681 156.696 189.753C156.84 189.821 156.99 189.878 157.146 189.925C157.307 189.967 157.453 190.005 157.584 190.039C157.931 190.136 158.274 190.259 158.613 190.407C158.951 190.555 159.226 190.761 159.438 191.023C159.65 191.281 159.745 191.622 159.724 192.045C159.707 192.405 159.611 192.718 159.438 192.984C159.269 193.247 159.049 193.465 158.778 193.638C158.511 193.807 158.217 193.932 157.896 194.013C157.574 194.093 157.252 194.131 156.931 194.127C156.486 194.118 156.072 194.028 155.687 193.854C155.306 193.676 155.001 193.422 154.772 193.092C154.544 192.758 154.436 192.352 154.449 191.874L155.598 191.88C155.598 192.155 155.655 192.388 155.769 192.578C155.888 192.764 156.05 192.906 156.258 193.003C156.465 193.101 156.702 193.152 156.969 193.156C157.193 193.16 157.422 193.13 157.654 193.067C157.891 193.003 158.094 192.898 158.264 192.75C158.437 192.597 158.543 192.394 158.581 192.14ZM163.761 194.127C163.291 194.118 162.883 194.025 162.536 193.848C162.193 193.666 161.911 193.422 161.691 193.118C161.476 192.809 161.321 192.458 161.228 192.064C161.135 191.67 161.107 191.258 161.146 190.826L161.171 190.553C161.213 190.113 161.321 189.681 161.495 189.258C161.668 188.831 161.899 188.446 162.187 188.103C162.479 187.76 162.821 187.489 163.215 187.291C163.613 187.087 164.053 186.992 164.535 187.005C165.013 187.013 165.411 187.115 165.729 187.31C166.046 187.504 166.293 187.762 166.471 188.084C166.653 188.401 166.772 188.759 166.827 189.157C166.882 189.55 166.886 189.954 166.839 190.369L166.77 190.896H161.787L161.939 189.938L165.741 189.944L165.76 189.842C165.803 189.538 165.786 189.243 165.709 188.96C165.633 188.676 165.494 188.444 165.291 188.262C165.092 188.076 164.823 187.978 164.484 187.97C164.133 187.957 163.828 188.029 163.57 188.186C163.312 188.338 163.096 188.545 162.923 188.808C162.749 189.066 162.612 189.349 162.51 189.658C162.413 189.963 162.345 190.261 162.307 190.553L162.282 190.82C162.256 191.091 162.265 191.364 162.307 191.639C162.349 191.914 162.43 192.166 162.548 192.394C162.671 192.618 162.84 192.802 163.056 192.946C163.272 193.086 163.539 193.16 163.856 193.168C164.241 193.177 164.586 193.094 164.891 192.921C165.2 192.743 165.481 192.519 165.735 192.248L166.389 192.807C166.19 193.099 165.953 193.344 165.678 193.543C165.403 193.742 165.102 193.89 164.776 193.987C164.451 194.085 164.112 194.131 163.761 194.127ZM169.689 188.262L168.693 194H167.544L168.737 187.132H169.854L169.689 188.262ZM171.917 187.075L171.81 188.179C171.721 188.162 171.63 188.147 171.537 188.135C171.448 188.122 171.359 188.116 171.27 188.116C170.995 188.111 170.747 188.154 170.527 188.243C170.312 188.327 170.119 188.448 169.95 188.604C169.785 188.761 169.643 188.945 169.524 189.157C169.41 189.368 169.319 189.597 169.251 189.842L168.89 190.033C168.936 189.69 169.012 189.339 169.118 188.979C169.228 188.619 169.378 188.287 169.569 187.982C169.764 187.678 170.007 187.432 170.299 187.246C170.595 187.06 170.951 186.973 171.365 186.986C171.458 186.986 171.549 186.994 171.638 187.011C171.731 187.028 171.824 187.049 171.917 187.075Z" fill="white"/>
<path d="M315.183 57.0352L315.03 58H309.152L309.292 57.105L312.707 53.7788C312.94 53.5461 313.187 53.2964 313.45 53.0298C313.712 52.7632 313.943 52.4775 314.142 52.1729C314.34 51.8682 314.463 51.5402 314.51 51.189C314.544 50.9012 314.516 50.6388 314.427 50.4019C314.338 50.1606 314.192 49.9681 313.989 49.8242C313.786 49.6761 313.532 49.5978 313.228 49.5894C312.834 49.5767 312.493 49.6507 312.206 49.8115C311.918 49.9723 311.685 50.1966 311.507 50.4844C311.334 50.7721 311.22 51.1001 311.165 51.4683L310.035 51.4746C310.09 50.8991 310.263 50.3955 310.555 49.9639C310.851 49.5322 311.234 49.2 311.704 48.9673C312.174 48.7303 312.696 48.6182 313.272 48.6309C313.75 48.6393 314.18 48.7409 314.561 48.9355C314.941 49.126 315.233 49.401 315.437 49.7607C315.644 50.1204 315.724 50.5521 315.678 51.0557C315.652 51.3857 315.57 51.7031 315.43 52.0078C315.291 52.3083 315.117 52.5981 314.91 52.8774C314.707 53.1525 314.486 53.4128 314.25 53.6582C314.013 53.9036 313.78 54.1343 313.551 54.3501L310.727 57.0352H315.183ZM323.727 56.1401C323.765 55.8778 323.716 55.6725 323.581 55.5244C323.449 55.3763 323.276 55.2642 323.06 55.188C322.848 55.1076 322.641 55.042 322.438 54.9912C322.184 54.9277 321.928 54.8494 321.67 54.7563C321.412 54.6632 321.175 54.5448 320.959 54.4009C320.747 54.2528 320.578 54.0708 320.451 53.855C320.328 53.6349 320.273 53.3683 320.286 53.0552C320.303 52.7166 320.392 52.4183 320.553 52.1602C320.718 51.902 320.929 51.6862 321.188 51.5127C321.45 51.3392 321.736 51.2101 322.044 51.1255C322.353 51.0409 322.66 51.0007 322.965 51.0049C323.396 51.0133 323.788 51.1022 324.139 51.2715C324.495 51.4408 324.776 51.6841 324.983 52.0015C325.191 52.3188 325.288 52.7039 325.275 53.1567L324.139 53.1504C324.148 52.9092 324.099 52.7018 323.993 52.5283C323.887 52.3548 323.741 52.2215 323.555 52.1284C323.369 52.0311 323.157 51.9803 322.92 51.9761C322.696 51.9718 322.476 52.0078 322.26 52.084C322.044 52.1559 321.86 52.2702 321.708 52.4268C321.556 52.5791 321.463 52.778 321.429 53.0234C321.403 53.2054 321.431 53.3556 321.511 53.4741C321.592 53.5884 321.702 53.6815 321.841 53.7534C321.985 53.8211 322.135 53.8783 322.292 53.9248C322.453 53.9671 322.599 54.0052 322.73 54.0391C323.077 54.1364 323.42 54.2591 323.758 54.4072C324.097 54.5553 324.372 54.7606 324.583 55.0229C324.795 55.2811 324.89 55.6217 324.869 56.0449C324.852 56.4046 324.757 56.7178 324.583 56.9844C324.414 57.2467 324.194 57.4647 323.923 57.6382C323.657 57.8075 323.363 57.9323 323.041 58.0127C322.719 58.0931 322.398 58.1312 322.076 58.127C321.632 58.1185 321.217 58.0275 320.832 57.854C320.451 57.6763 320.146 57.4224 319.918 57.0923C319.689 56.758 319.582 56.3517 319.594 55.8735L320.743 55.8799C320.743 56.1549 320.8 56.3877 320.915 56.5781C321.033 56.7643 321.196 56.9061 321.403 57.0034C321.611 57.1007 321.848 57.1515 322.114 57.1558C322.339 57.16 322.567 57.1304 322.8 57.0669C323.037 57.0034 323.24 56.8976 323.409 56.7495C323.583 56.5972 323.688 56.394 323.727 56.1401ZM326.297 54.6802L326.316 54.5342C326.367 54.0729 326.481 53.6286 326.659 53.2012C326.841 52.7738 327.08 52.3929 327.376 52.0586C327.673 51.7243 328.024 51.4619 328.43 51.2715C328.836 51.0811 329.289 50.9922 329.789 51.0049C330.271 51.0133 330.684 51.117 331.026 51.3159C331.373 51.5148 331.653 51.7793 331.864 52.1094C332.08 52.4352 332.23 52.8034 332.315 53.2139C332.4 53.6243 332.421 54.0475 332.378 54.4834L332.366 54.6294C332.311 55.0907 332.192 55.5329 332.01 55.9561C331.828 56.3792 331.587 56.7559 331.287 57.0859C330.99 57.416 330.639 57.6763 330.233 57.8667C329.827 58.0529 329.376 58.1396 328.881 58.127C328.403 58.1185 327.99 58.0169 327.643 57.8223C327.3 57.6234 327.023 57.361 326.812 57.0352C326.6 56.7093 326.452 56.3433 326.367 55.937C326.283 55.5308 326.259 55.1118 326.297 54.6802ZM327.459 54.5342L327.446 54.6865C327.417 54.9531 327.415 55.2303 327.44 55.5181C327.47 55.8058 327.537 56.0724 327.643 56.3179C327.753 56.5633 327.912 56.7643 328.119 56.9209C328.326 57.0775 328.595 57.16 328.925 57.1685C329.277 57.1769 329.585 57.1092 329.852 56.9653C330.119 56.8172 330.345 56.6183 330.531 56.3687C330.722 56.119 330.872 55.8418 330.982 55.5371C331.096 55.2324 331.172 54.9299 331.21 54.6294L331.223 54.4834C331.253 54.2168 331.253 53.9396 331.223 53.6519C331.198 53.3599 331.13 53.089 331.02 52.8394C330.914 52.5854 330.758 52.3802 330.55 52.2236C330.343 52.0628 330.074 51.9782 329.744 51.9697C329.393 51.957 329.082 52.0269 328.811 52.1792C328.544 52.3273 328.318 52.5283 328.132 52.7822C327.946 53.0361 327.795 53.3175 327.681 53.6265C327.571 53.9312 327.497 54.2337 327.459 54.5342ZM335.362 56.8828L338.066 51.1318H339.278L335.806 58H335L335.362 56.8828ZM334.727 51.1318L335.705 57.0288L335.673 58H334.937L333.591 51.1318H334.727ZM342.021 58.127C341.551 58.1185 341.142 58.0254 340.795 57.8477C340.453 57.6657 340.171 57.4224 339.951 57.1177C339.735 56.8088 339.581 56.4575 339.488 56.064C339.395 55.6704 339.367 55.2578 339.405 54.8262L339.431 54.5532C339.473 54.1131 339.581 53.6815 339.754 53.2583C339.928 52.8309 340.159 52.4458 340.446 52.103C340.738 51.7603 341.081 51.4894 341.475 51.2905C341.872 51.0874 342.312 50.9922 342.795 51.0049C343.273 51.0133 343.671 51.1149 343.988 51.3096C344.306 51.5042 344.553 51.7624 344.731 52.084C344.913 52.4014 345.031 52.759 345.086 53.1567C345.141 53.5503 345.146 53.9544 345.099 54.3691L345.029 54.896H340.046L340.199 53.9375L344.001 53.9438L344.02 53.8423C344.062 53.5376 344.045 53.2435 343.969 52.96C343.893 52.6764 343.753 52.4437 343.55 52.2617C343.351 52.0755 343.083 51.9782 342.744 51.9697C342.393 51.957 342.088 52.029 341.83 52.1855C341.572 52.3379 341.356 52.5452 341.183 52.8076C341.009 53.0658 340.872 53.3493 340.77 53.6582C340.673 53.9629 340.605 54.2612 340.567 54.5532L340.542 54.8198C340.516 55.0907 340.525 55.3636 340.567 55.6387C340.609 55.9137 340.69 56.1655 340.808 56.394C340.931 56.6183 341.1 56.8024 341.316 56.9463C341.532 57.0859 341.798 57.16 342.116 57.1685C342.501 57.1769 342.846 57.0944 343.15 56.9209C343.459 56.7432 343.741 56.5189 343.995 56.248L344.648 56.8066C344.45 57.0986 344.213 57.3441 343.938 57.543C343.662 57.7419 343.362 57.89 343.036 57.9873C342.71 58.0846 342.372 58.1312 342.021 58.127ZM347.905 52.522L346.496 60.6406H345.34L346.991 51.1318H348.044L347.905 52.522ZM352.037 54.4707L352.024 54.604C351.969 55.0187 351.868 55.4377 351.72 55.8608C351.576 56.2798 351.379 56.6628 351.129 57.0098C350.88 57.3568 350.573 57.634 350.209 57.8413C349.849 58.0487 349.426 58.146 348.939 58.1333C348.512 58.1248 348.146 58.0317 347.841 57.854C347.537 57.672 347.291 57.4329 347.105 57.1367C346.919 56.8363 346.785 56.502 346.705 56.1338C346.629 55.7614 346.604 55.3805 346.629 54.9912L346.718 54.2866C346.79 53.8719 346.91 53.4678 347.08 53.0742C347.253 52.6764 347.473 52.3188 347.74 52.0015C348.006 51.6841 348.322 51.4365 348.686 51.2588C349.054 51.0768 349.471 50.9922 349.936 51.0049C350.406 51.0176 350.787 51.1318 351.079 51.3477C351.375 51.5592 351.599 51.8364 351.751 52.1792C351.908 52.5177 352.005 52.888 352.043 53.29C352.082 53.6878 352.079 54.0814 352.037 54.4707ZM350.869 54.5977L350.888 54.458C350.918 54.2041 350.924 53.9354 350.907 53.6519C350.895 53.3683 350.842 53.1038 350.749 52.8584C350.66 52.6087 350.518 52.4035 350.323 52.2427C350.133 52.0819 349.873 51.9972 349.542 51.9888C349.28 51.9803 349.03 52.0247 348.793 52.1221C348.561 52.2152 348.349 52.3485 348.159 52.522C347.968 52.6912 347.805 52.888 347.67 53.1123C347.535 53.3324 347.435 53.5651 347.372 53.8105L347.099 55.4673C347.094 55.7677 347.16 56.047 347.295 56.3052C347.431 56.5591 347.615 56.7643 347.848 56.9209C348.085 57.0775 348.353 57.16 348.654 57.1685C349.005 57.1769 349.31 57.1071 349.568 56.959C349.83 56.8066 350.05 56.6035 350.228 56.3496C350.406 56.0915 350.548 55.8101 350.653 55.5054C350.759 55.1965 350.831 54.8939 350.869 54.5977ZM355.827 48.25L354.132 58H352.983L354.671 48.25H355.827ZM360.111 56.8257L360.683 53.2773C360.712 53.015 360.687 52.7843 360.606 52.5854C360.53 52.3866 360.401 52.2321 360.219 52.1221C360.042 52.012 359.817 51.9528 359.546 51.9443C359.309 51.9401 359.077 51.9782 358.848 52.0586C358.624 52.139 358.429 52.2596 358.264 52.4204C358.099 52.5812 357.991 52.7843 357.94 53.0298L356.798 53.0361C356.827 52.6934 356.935 52.395 357.122 52.1411C357.308 51.883 357.541 51.6693 357.82 51.5C358.099 51.3265 358.4 51.1995 358.721 51.1191C359.043 51.0345 359.356 50.9943 359.661 50.9985C360.122 51.007 360.522 51.1064 360.86 51.2969C361.203 51.4831 361.461 51.7454 361.635 52.084C361.808 52.4225 361.872 52.8288 361.825 53.3027L361.298 56.502C361.26 56.7347 361.237 56.9696 361.229 57.2065C361.224 57.4393 361.252 57.6678 361.311 57.8921L361.298 58L360.137 58.0063C360.09 57.8117 360.067 57.6149 360.067 57.416C360.071 57.2171 360.086 57.0203 360.111 56.8257ZM360.816 53.8359L360.683 54.6611L359.597 54.6548C359.369 54.6548 359.127 54.6717 358.874 54.7056C358.62 54.7394 358.378 54.8029 358.15 54.896C357.921 54.9891 357.729 55.1245 357.572 55.3022C357.416 55.4757 357.32 55.7021 357.287 55.9814C357.261 56.21 357.289 56.4089 357.369 56.5781C357.454 56.7432 357.581 56.8722 357.75 56.9653C357.919 57.0584 358.116 57.1071 358.34 57.1113C358.632 57.1156 358.92 57.0584 359.204 56.9399C359.487 56.8215 359.735 56.6522 359.946 56.4321C360.158 56.2121 360.304 55.9582 360.384 55.6704L360.803 56.2354C360.723 56.5146 360.592 56.7728 360.41 57.0098C360.228 57.2425 360.012 57.4435 359.762 57.6128C359.517 57.7821 359.252 57.9132 358.969 58.0063C358.685 58.0994 358.402 58.1439 358.118 58.1396C357.733 58.1312 357.384 58.0444 357.071 57.8794C356.762 57.7144 356.516 57.4837 356.334 57.1875C356.157 56.887 356.081 56.5379 356.106 56.1401C356.131 55.7043 356.246 55.3382 356.449 55.042C356.652 54.7458 356.912 54.5088 357.229 54.3311C357.551 54.1533 357.902 54.0264 358.283 53.9502C358.664 53.8698 359.041 53.8296 359.413 53.8296L360.816 53.8359ZM367.068 56.1401C367.106 55.8778 367.058 55.6725 366.922 55.5244C366.791 55.3763 366.618 55.2642 366.402 55.188C366.19 55.1076 365.983 55.042 365.78 54.9912C365.526 54.9277 365.27 54.8494 365.012 54.7563C364.754 54.6632 364.517 54.5448 364.301 54.4009C364.089 54.2528 363.92 54.0708 363.793 53.855C363.67 53.6349 363.615 53.3683 363.628 53.0552C363.645 52.7166 363.734 52.4183 363.895 52.1602C364.06 51.902 364.271 51.6862 364.529 51.5127C364.792 51.3392 365.077 51.2101 365.386 51.1255C365.695 51.0409 366.002 51.0007 366.307 51.0049C366.738 51.0133 367.13 51.1022 367.481 51.2715C367.836 51.4408 368.118 51.6841 368.325 52.0015C368.533 52.3188 368.63 52.7039 368.617 53.1567L367.481 53.1504C367.489 52.9092 367.441 52.7018 367.335 52.5283C367.229 52.3548 367.083 52.2215 366.897 52.1284C366.711 52.0311 366.499 51.9803 366.262 51.9761C366.038 51.9718 365.818 52.0078 365.602 52.084C365.386 52.1559 365.202 52.2702 365.05 52.4268C364.897 52.5791 364.804 52.778 364.771 53.0234C364.745 53.2054 364.773 53.3556 364.853 53.4741C364.933 53.5884 365.043 53.6815 365.183 53.7534C365.327 53.8211 365.477 53.8783 365.634 53.9248C365.795 53.9671 365.941 54.0052 366.072 54.0391C366.419 54.1364 366.762 54.2591 367.1 54.4072C367.439 54.5553 367.714 54.7606 367.925 55.0229C368.137 55.2811 368.232 55.6217 368.211 56.0449C368.194 56.4046 368.099 56.7178 367.925 56.9844C367.756 57.2467 367.536 57.4647 367.265 57.6382C366.999 57.8075 366.704 57.9323 366.383 58.0127C366.061 58.0931 365.74 58.1312 365.418 58.127C364.974 58.1185 364.559 58.0275 364.174 57.854C363.793 57.6763 363.488 57.4224 363.26 57.0923C363.031 56.758 362.923 56.3517 362.936 55.8735L364.085 55.8799C364.085 56.1549 364.142 56.3877 364.256 56.5781C364.375 56.7643 364.538 56.9061 364.745 57.0034C364.952 57.1007 365.189 57.1515 365.456 57.1558C365.68 57.16 365.909 57.1304 366.142 57.0669C366.379 57.0034 366.582 56.8976 366.751 56.7495C366.924 56.5972 367.03 56.394 367.068 56.1401ZM373.581 56.1401C373.619 55.8778 373.57 55.6725 373.435 55.5244C373.304 55.3763 373.13 55.2642 372.915 55.188C372.703 55.1076 372.496 55.042 372.292 54.9912C372.039 54.9277 371.783 54.8494 371.524 54.7563C371.266 54.6632 371.029 54.5448 370.813 54.4009C370.602 54.2528 370.433 54.0708 370.306 53.855C370.183 53.6349 370.128 53.3683 370.141 53.0552C370.158 52.7166 370.246 52.4183 370.407 52.1602C370.572 51.902 370.784 51.6862 371.042 51.5127C371.304 51.3392 371.59 51.2101 371.899 51.1255C372.208 51.0409 372.515 51.0007 372.819 51.0049C373.251 51.0133 373.642 51.1022 373.994 51.2715C374.349 51.4408 374.631 51.6841 374.838 52.0015C375.045 52.3188 375.143 52.7039 375.13 53.1567L373.994 53.1504C374.002 52.9092 373.953 52.7018 373.848 52.5283C373.742 52.3548 373.596 52.2215 373.41 52.1284C373.223 52.0311 373.012 51.9803 372.775 51.9761C372.551 51.9718 372.331 52.0078 372.115 52.084C371.899 52.1559 371.715 52.2702 371.562 52.4268C371.41 52.5791 371.317 52.778 371.283 53.0234C371.258 53.2054 371.285 53.3556 371.366 53.4741C371.446 53.5884 371.556 53.6815 371.696 53.7534C371.84 53.8211 371.99 53.8783 372.146 53.9248C372.307 53.9671 372.453 54.0052 372.584 54.0391C372.931 54.1364 373.274 54.2591 373.613 54.4072C373.951 54.5553 374.226 54.7606 374.438 55.0229C374.65 55.2811 374.745 55.6217 374.724 56.0449C374.707 56.4046 374.611 56.7178 374.438 56.9844C374.269 57.2467 374.049 57.4647 373.778 57.6382C373.511 57.8075 373.217 57.9323 372.896 58.0127C372.574 58.0931 372.252 58.1312 371.931 58.127C371.486 58.1185 371.072 58.0275 370.687 57.854C370.306 57.6763 370.001 57.4224 369.772 57.0923C369.544 56.758 369.436 56.3517 369.449 55.8735L370.598 55.8799C370.598 56.1549 370.655 56.3877 370.769 56.5781C370.888 56.7643 371.05 56.9061 371.258 57.0034C371.465 57.1007 371.702 57.1515 371.969 57.1558C372.193 57.16 372.422 57.1304 372.654 57.0669C372.891 57.0034 373.094 56.8976 373.264 56.7495C373.437 56.5972 373.543 56.394 373.581 56.1401ZM378.761 58.127C378.291 58.1185 377.883 58.0254 377.536 57.8477C377.193 57.6657 376.911 57.4224 376.691 57.1177C376.476 56.8088 376.321 56.4575 376.228 56.064C376.135 55.6704 376.107 55.2578 376.146 54.8262L376.171 54.5532C376.213 54.1131 376.321 53.6815 376.495 53.2583C376.668 52.8309 376.899 52.4458 377.187 52.103C377.479 51.7603 377.821 51.4894 378.215 51.2905C378.613 51.0874 379.053 50.9922 379.535 51.0049C380.013 51.0133 380.411 51.1149 380.729 51.3096C381.046 51.5042 381.293 51.7624 381.471 52.084C381.653 52.4014 381.772 52.759 381.827 53.1567C381.882 53.5503 381.886 53.9544 381.839 54.3691L381.77 54.896H376.787L376.939 53.9375L380.741 53.9438L380.76 53.8423C380.803 53.5376 380.786 53.2435 380.709 52.96C380.633 52.6764 380.494 52.4437 380.291 52.2617C380.092 52.0755 379.823 51.9782 379.484 51.9697C379.133 51.957 378.828 52.029 378.57 52.1855C378.312 52.3379 378.096 52.5452 377.923 52.8076C377.749 53.0658 377.612 53.3493 377.51 53.6582C377.413 53.9629 377.345 54.2612 377.307 54.5532L377.282 54.8198C377.256 55.0907 377.265 55.3636 377.307 55.6387C377.349 55.9137 377.43 56.1655 377.548 56.394C377.671 56.6183 377.84 56.8024 378.056 56.9463C378.272 57.0859 378.539 57.16 378.856 57.1685C379.241 57.1769 379.586 57.0944 379.891 56.9209C380.2 56.7432 380.481 56.5189 380.735 56.248L381.389 56.8066C381.19 57.0986 380.953 57.3441 380.678 57.543C380.403 57.7419 380.102 57.89 379.776 57.9873C379.451 58.0846 379.112 58.1312 378.761 58.127ZM384.689 52.2617L383.693 58H382.544L383.737 51.1318H384.854L384.689 52.2617ZM386.917 51.0747L386.81 52.1792C386.721 52.1623 386.63 52.1475 386.537 52.1348C386.448 52.1221 386.359 52.1157 386.27 52.1157C385.995 52.1115 385.747 52.1538 385.527 52.2427C385.312 52.3273 385.119 52.4479 384.95 52.6045C384.785 52.7611 384.643 52.9451 384.524 53.1567C384.41 53.3683 384.319 53.5968 384.251 53.8423L383.89 54.0327C383.936 53.6899 384.012 53.3387 384.118 52.979C384.228 52.6193 384.378 52.2871 384.569 51.9824C384.764 51.6777 385.007 51.4323 385.299 51.2461C385.595 51.0599 385.951 50.9731 386.365 50.9858C386.458 50.9858 386.549 50.9943 386.638 51.0112C386.731 51.0282 386.824 51.0493 386.917 51.0747Z" fill="white"/>
<path d="M821.69 283.89L821.519 284.854H815.032L815.165 284.099L820.243 277.758H821.252L819.907 279.656L816.542 283.89H821.69ZM821.5 277.758L819.9 287H818.751L820.357 277.758H821.5ZM829.727 285.14C829.765 284.878 829.716 284.673 829.581 284.524C829.449 284.376 829.276 284.264 829.06 284.188C828.848 284.108 828.641 284.042 828.438 283.991C828.184 283.928 827.928 283.849 827.67 283.756C827.412 283.663 827.175 283.545 826.959 283.401C826.747 283.253 826.578 283.071 826.451 282.855C826.328 282.635 826.273 282.368 826.286 282.055C826.303 281.717 826.392 281.418 826.553 281.16C826.718 280.902 826.929 280.686 827.188 280.513C827.45 280.339 827.736 280.21 828.044 280.125C828.353 280.041 828.66 280.001 828.965 280.005C829.396 280.013 829.788 280.102 830.139 280.271C830.495 280.441 830.776 280.684 830.983 281.001C831.191 281.319 831.288 281.704 831.275 282.157L830.139 282.15C830.148 281.909 830.099 281.702 829.993 281.528C829.887 281.355 829.741 281.222 829.555 281.128C829.369 281.031 829.157 280.98 828.92 280.976C828.696 280.972 828.476 281.008 828.26 281.084C828.044 281.156 827.86 281.27 827.708 281.427C827.556 281.579 827.463 281.778 827.429 282.023C827.403 282.205 827.431 282.356 827.511 282.474C827.592 282.588 827.702 282.681 827.841 282.753C827.985 282.821 828.135 282.878 828.292 282.925C828.453 282.967 828.599 283.005 828.73 283.039C829.077 283.136 829.42 283.259 829.758 283.407C830.097 283.555 830.372 283.761 830.583 284.023C830.795 284.281 830.89 284.622 830.869 285.045C830.852 285.405 830.757 285.718 830.583 285.984C830.414 286.247 830.194 286.465 829.923 286.638C829.657 286.807 829.363 286.932 829.041 287.013C828.719 287.093 828.398 287.131 828.076 287.127C827.632 287.118 827.217 287.028 826.832 286.854C826.451 286.676 826.146 286.422 825.918 286.092C825.689 285.758 825.582 285.352 825.594 284.874L826.743 284.88C826.743 285.155 826.8 285.388 826.915 285.578C827.033 285.764 827.196 285.906 827.403 286.003C827.611 286.101 827.848 286.152 828.114 286.156C828.339 286.16 828.567 286.13 828.8 286.067C829.037 286.003 829.24 285.898 829.409 285.75C829.583 285.597 829.688 285.394 829.727 285.14ZM832.297 283.68L832.316 283.534C832.367 283.073 832.481 282.629 832.659 282.201C832.841 281.774 833.08 281.393 833.376 281.059C833.673 280.724 834.024 280.462 834.43 280.271C834.836 280.081 835.289 279.992 835.789 280.005C836.271 280.013 836.684 280.117 837.026 280.316C837.373 280.515 837.653 280.779 837.864 281.109C838.08 281.435 838.23 281.803 838.315 282.214C838.4 282.624 838.421 283.048 838.378 283.483L838.366 283.629C838.311 284.091 838.192 284.533 838.01 284.956C837.828 285.379 837.587 285.756 837.287 286.086C836.99 286.416 836.639 286.676 836.233 286.867C835.827 287.053 835.376 287.14 834.881 287.127C834.403 287.118 833.99 287.017 833.643 286.822C833.3 286.623 833.023 286.361 832.812 286.035C832.6 285.709 832.452 285.343 832.367 284.937C832.283 284.531 832.259 284.112 832.297 283.68ZM833.459 283.534L833.446 283.687C833.417 283.953 833.415 284.23 833.44 284.518C833.47 284.806 833.537 285.072 833.643 285.318C833.753 285.563 833.912 285.764 834.119 285.921C834.326 286.077 834.595 286.16 834.925 286.168C835.277 286.177 835.585 286.109 835.852 285.965C836.119 285.817 836.345 285.618 836.531 285.369C836.722 285.119 836.872 284.842 836.982 284.537C837.096 284.232 837.172 283.93 837.21 283.629L837.223 283.483C837.253 283.217 837.253 282.94 837.223 282.652C837.198 282.36 837.13 282.089 837.02 281.839C836.914 281.585 836.758 281.38 836.55 281.224C836.343 281.063 836.074 280.978 835.744 280.97C835.393 280.957 835.082 281.027 834.811 281.179C834.544 281.327 834.318 281.528 834.132 281.782C833.946 282.036 833.795 282.318 833.681 282.626C833.571 282.931 833.497 283.234 833.459 283.534ZM841.362 285.883L844.066 280.132H845.278L841.806 287H841L841.362 285.883ZM840.727 280.132L841.705 286.029L841.673 287H840.937L839.591 280.132H840.727ZM848.021 287.127C847.551 287.118 847.142 287.025 846.795 286.848C846.453 286.666 846.171 286.422 845.951 286.118C845.735 285.809 845.581 285.458 845.488 285.064C845.395 284.67 845.367 284.258 845.405 283.826L845.431 283.553C845.473 283.113 845.581 282.681 845.754 282.258C845.928 281.831 846.159 281.446 846.446 281.103C846.738 280.76 847.081 280.489 847.475 280.291C847.872 280.087 848.312 279.992 848.795 280.005C849.273 280.013 849.671 280.115 849.988 280.31C850.306 280.504 850.553 280.762 850.731 281.084C850.913 281.401 851.031 281.759 851.086 282.157C851.141 282.55 851.146 282.954 851.099 283.369L851.029 283.896H846.046L846.199 282.938L850.001 282.944L850.02 282.842C850.062 282.538 850.045 282.243 849.969 281.96C849.893 281.676 849.753 281.444 849.55 281.262C849.351 281.076 849.083 280.978 848.744 280.97C848.393 280.957 848.088 281.029 847.83 281.186C847.572 281.338 847.356 281.545 847.183 281.808C847.009 282.066 846.872 282.349 846.77 282.658C846.673 282.963 846.605 283.261 846.567 283.553L846.542 283.82C846.516 284.091 846.525 284.364 846.567 284.639C846.609 284.914 846.69 285.166 846.808 285.394C846.931 285.618 847.1 285.802 847.316 285.946C847.532 286.086 847.798 286.16 848.116 286.168C848.501 286.177 848.846 286.094 849.15 285.921C849.459 285.743 849.741 285.519 849.995 285.248L850.648 285.807C850.45 286.099 850.213 286.344 849.938 286.543C849.662 286.742 849.362 286.89 849.036 286.987C848.71 287.085 848.372 287.131 848.021 287.127ZM853.905 281.522L852.496 289.641H851.34L852.991 280.132H854.044L853.905 281.522ZM858.037 283.471L858.024 283.604C857.969 284.019 857.868 284.438 857.72 284.861C857.576 285.28 857.379 285.663 857.129 286.01C856.88 286.357 856.573 286.634 856.209 286.841C855.849 287.049 855.426 287.146 854.939 287.133C854.512 287.125 854.146 287.032 853.841 286.854C853.537 286.672 853.291 286.433 853.105 286.137C852.919 285.836 852.785 285.502 852.705 285.134C852.629 284.761 852.604 284.381 852.629 283.991L852.718 283.287C852.79 282.872 852.91 282.468 853.08 282.074C853.253 281.676 853.473 281.319 853.74 281.001C854.006 280.684 854.322 280.437 854.686 280.259C855.054 280.077 855.471 279.992 855.936 280.005C856.406 280.018 856.787 280.132 857.079 280.348C857.375 280.559 857.599 280.836 857.751 281.179C857.908 281.518 858.005 281.888 858.043 282.29C858.082 282.688 858.079 283.081 858.037 283.471ZM856.869 283.598L856.888 283.458C856.918 283.204 856.924 282.935 856.907 282.652C856.895 282.368 856.842 282.104 856.749 281.858C856.66 281.609 856.518 281.403 856.323 281.243C856.133 281.082 855.873 280.997 855.542 280.989C855.28 280.98 855.03 281.025 854.793 281.122C854.561 281.215 854.349 281.348 854.159 281.522C853.968 281.691 853.805 281.888 853.67 282.112C853.535 282.332 853.435 282.565 853.372 282.811L853.099 284.467C853.094 284.768 853.16 285.047 853.295 285.305C853.431 285.559 853.615 285.764 853.848 285.921C854.085 286.077 854.353 286.16 854.654 286.168C855.005 286.177 855.31 286.107 855.568 285.959C855.83 285.807 856.05 285.604 856.228 285.35C856.406 285.091 856.548 284.81 856.653 284.505C856.759 284.196 856.831 283.894 856.869 283.598ZM861.827 277.25L860.132 287H858.983L860.671 277.25H861.827ZM866.111 285.826L866.683 282.277C866.712 282.015 866.687 281.784 866.606 281.585C866.53 281.387 866.401 281.232 866.219 281.122C866.042 281.012 865.817 280.953 865.546 280.944C865.309 280.94 865.077 280.978 864.848 281.059C864.624 281.139 864.429 281.26 864.264 281.42C864.099 281.581 863.991 281.784 863.94 282.03L862.798 282.036C862.827 281.693 862.935 281.395 863.122 281.141C863.308 280.883 863.541 280.669 863.82 280.5C864.099 280.326 864.4 280.2 864.721 280.119C865.043 280.035 865.356 279.994 865.661 279.999C866.122 280.007 866.522 280.106 866.86 280.297C867.203 280.483 867.461 280.745 867.635 281.084C867.808 281.423 867.872 281.829 867.825 282.303L867.298 285.502C867.26 285.735 867.237 285.97 867.229 286.207C867.224 286.439 867.252 286.668 867.311 286.892L867.298 287L866.137 287.006C866.09 286.812 866.067 286.615 866.067 286.416C866.071 286.217 866.086 286.02 866.111 285.826ZM866.816 282.836L866.683 283.661L865.597 283.655C865.369 283.655 865.127 283.672 864.874 283.706C864.62 283.739 864.378 283.803 864.15 283.896C863.921 283.989 863.729 284.125 863.572 284.302C863.416 284.476 863.32 284.702 863.287 284.981C863.261 285.21 863.289 285.409 863.369 285.578C863.454 285.743 863.581 285.872 863.75 285.965C863.919 286.058 864.116 286.107 864.34 286.111C864.632 286.116 864.92 286.058 865.204 285.94C865.487 285.821 865.735 285.652 865.946 285.432C866.158 285.212 866.304 284.958 866.384 284.67L866.803 285.235C866.723 285.515 866.592 285.773 866.41 286.01C866.228 286.243 866.012 286.444 865.762 286.613C865.517 286.782 865.252 286.913 864.969 287.006C864.685 287.099 864.402 287.144 864.118 287.14C863.733 287.131 863.384 287.044 863.071 286.879C862.762 286.714 862.516 286.484 862.334 286.188C862.157 285.887 862.081 285.538 862.106 285.14C862.131 284.704 862.246 284.338 862.449 284.042C862.652 283.746 862.912 283.509 863.229 283.331C863.551 283.153 863.902 283.026 864.283 282.95C864.664 282.87 865.041 282.83 865.413 282.83L866.816 282.836ZM873.068 285.14C873.106 284.878 873.058 284.673 872.922 284.524C872.791 284.376 872.618 284.264 872.402 284.188C872.19 284.108 871.983 284.042 871.78 283.991C871.526 283.928 871.27 283.849 871.012 283.756C870.754 283.663 870.517 283.545 870.301 283.401C870.089 283.253 869.92 283.071 869.793 282.855C869.67 282.635 869.615 282.368 869.628 282.055C869.645 281.717 869.734 281.418 869.895 281.16C870.06 280.902 870.271 280.686 870.529 280.513C870.792 280.339 871.077 280.21 871.386 280.125C871.695 280.041 872.002 280.001 872.307 280.005C872.738 280.013 873.13 280.102 873.481 280.271C873.836 280.441 874.118 280.684 874.325 281.001C874.533 281.319 874.63 281.704 874.617 282.157L873.481 282.15C873.489 281.909 873.441 281.702 873.335 281.528C873.229 281.355 873.083 281.222 872.897 281.128C872.711 281.031 872.499 280.98 872.262 280.976C872.038 280.972 871.818 281.008 871.602 281.084C871.386 281.156 871.202 281.27 871.05 281.427C870.897 281.579 870.804 281.778 870.771 282.023C870.745 282.205 870.773 282.356 870.853 282.474C870.933 282.588 871.043 282.681 871.183 282.753C871.327 282.821 871.477 282.878 871.634 282.925C871.795 282.967 871.941 283.005 872.072 283.039C872.419 283.136 872.762 283.259 873.1 283.407C873.439 283.555 873.714 283.761 873.925 284.023C874.137 284.281 874.232 284.622 874.211 285.045C874.194 285.405 874.099 285.718 873.925 285.984C873.756 286.247 873.536 286.465 873.265 286.638C872.999 286.807 872.704 286.932 872.383 287.013C872.061 287.093 871.74 287.131 871.418 287.127C870.974 287.118 870.559 287.028 870.174 286.854C869.793 286.676 869.488 286.422 869.26 286.092C869.031 285.758 868.923 285.352 868.936 284.874L870.085 284.88C870.085 285.155 870.142 285.388 870.256 285.578C870.375 285.764 870.538 285.906 870.745 286.003C870.952 286.101 871.189 286.152 871.456 286.156C871.68 286.16 871.909 286.13 872.142 286.067C872.379 286.003 872.582 285.898 872.751 285.75C872.924 285.597 873.03 285.394 873.068 285.14ZM879.581 285.14C879.619 284.878 879.57 284.673 879.435 284.524C879.304 284.376 879.13 284.264 878.915 284.188C878.703 284.108 878.496 284.042 878.292 283.991C878.039 283.928 877.783 283.849 877.524 283.756C877.266 283.663 877.029 283.545 876.813 283.401C876.602 283.253 876.433 283.071 876.306 282.855C876.183 282.635 876.128 282.368 876.141 282.055C876.158 281.717 876.246 281.418 876.407 281.16C876.572 280.902 876.784 280.686 877.042 280.513C877.304 280.339 877.59 280.21 877.899 280.125C878.208 280.041 878.515 280.001 878.819 280.005C879.251 280.013 879.642 280.102 879.994 280.271C880.349 280.441 880.631 280.684 880.838 281.001C881.045 281.319 881.143 281.704 881.13 282.157L879.994 282.15C880.002 281.909 879.953 281.702 879.848 281.528C879.742 281.355 879.596 281.222 879.41 281.128C879.223 281.031 879.012 280.98 878.775 280.976C878.551 280.972 878.331 281.008 878.115 281.084C877.899 281.156 877.715 281.27 877.562 281.427C877.41 281.579 877.317 281.778 877.283 282.023C877.258 282.205 877.285 282.356 877.366 282.474C877.446 282.588 877.556 282.681 877.696 282.753C877.84 282.821 877.99 282.878 878.146 282.925C878.307 282.967 878.453 283.005 878.584 283.039C878.931 283.136 879.274 283.259 879.613 283.407C879.951 283.555 880.226 283.761 880.438 284.023C880.65 284.281 880.745 284.622 880.724 285.045C880.707 285.405 880.611 285.718 880.438 285.984C880.269 286.247 880.049 286.465 879.778 286.638C879.511 286.807 879.217 286.932 878.896 287.013C878.574 287.093 878.252 287.131 877.931 287.127C877.486 287.118 877.072 287.028 876.687 286.854C876.306 286.676 876.001 286.422 875.772 286.092C875.544 285.758 875.436 285.352 875.449 284.874L876.598 284.88C876.598 285.155 876.655 285.388 876.769 285.578C876.888 285.764 877.05 285.906 877.258 286.003C877.465 286.101 877.702 286.152 877.969 286.156C878.193 286.16 878.422 286.13 878.654 286.067C878.891 286.003 879.094 285.898 879.264 285.75C879.437 285.597 879.543 285.394 879.581 285.14ZM884.761 287.127C884.291 287.118 883.883 287.025 883.536 286.848C883.193 286.666 882.911 286.422 882.691 286.118C882.476 285.809 882.321 285.458 882.228 285.064C882.135 284.67 882.107 284.258 882.146 283.826L882.171 283.553C882.213 283.113 882.321 282.681 882.495 282.258C882.668 281.831 882.899 281.446 883.187 281.103C883.479 280.76 883.821 280.489 884.215 280.291C884.613 280.087 885.053 279.992 885.535 280.005C886.013 280.013 886.411 280.115 886.729 280.31C887.046 280.504 887.293 280.762 887.471 281.084C887.653 281.401 887.772 281.759 887.827 282.157C887.882 282.55 887.886 282.954 887.839 283.369L887.77 283.896H882.787L882.939 282.938L886.741 282.944L886.76 282.842C886.803 282.538 886.786 282.243 886.709 281.96C886.633 281.676 886.494 281.444 886.291 281.262C886.092 281.076 885.823 280.978 885.484 280.97C885.133 280.957 884.828 281.029 884.57 281.186C884.312 281.338 884.096 281.545 883.923 281.808C883.749 282.066 883.612 282.349 883.51 282.658C883.413 282.963 883.345 283.261 883.307 283.553L883.282 283.82C883.256 284.091 883.265 284.364 883.307 284.639C883.349 284.914 883.43 285.166 883.548 285.394C883.671 285.618 883.84 285.802 884.056 285.946C884.272 286.086 884.539 286.16 884.856 286.168C885.241 286.177 885.586 286.094 885.891 285.921C886.2 285.743 886.481 285.519 886.735 285.248L887.389 285.807C887.19 286.099 886.953 286.344 886.678 286.543C886.403 286.742 886.102 286.89 885.776 286.987C885.451 287.085 885.112 287.131 884.761 287.127ZM890.689 281.262L889.693 287H888.544L889.737 280.132H890.854L890.689 281.262ZM892.917 280.075L892.81 281.179C892.721 281.162 892.63 281.147 892.537 281.135C892.448 281.122 892.359 281.116 892.27 281.116C891.995 281.111 891.747 281.154 891.527 281.243C891.312 281.327 891.119 281.448 890.95 281.604C890.785 281.761 890.643 281.945 890.524 282.157C890.41 282.368 890.319 282.597 890.251 282.842L889.89 283.033C889.936 282.69 890.012 282.339 890.118 281.979C890.228 281.619 890.378 281.287 890.569 280.982C890.764 280.678 891.007 280.432 891.299 280.246C891.595 280.06 891.951 279.973 892.365 279.986C892.458 279.986 892.549 279.994 892.638 280.011C892.731 280.028 892.824 280.049 892.917 280.075Z" fill="white"/>
<path d="M726.844 162.945C726.844 162.663 726.8 162.414 726.711 162.198C726.628 161.977 726.479 161.778 726.263 161.601C726.053 161.424 725.76 161.255 725.383 161.094C725.013 160.934 724.542 160.771 723.972 160.604C723.375 160.427 722.835 160.231 722.354 160.015C721.872 159.794 721.46 159.542 721.117 159.26C720.774 158.978 720.511 158.654 720.328 158.289C720.146 157.923 720.054 157.506 720.054 157.035C720.054 156.565 720.151 156.13 720.345 155.732C720.538 155.333 720.815 154.988 721.175 154.694C721.54 154.396 721.974 154.163 722.478 153.997C722.982 153.831 723.543 153.748 724.163 153.748C725.071 153.748 725.84 153.922 726.471 154.271C727.107 154.614 727.591 155.065 727.923 155.624C728.255 156.177 728.421 156.77 728.421 157.4H726.828C726.828 156.947 726.731 156.545 726.537 156.197C726.343 155.843 726.05 155.566 725.657 155.367C725.264 155.162 724.766 155.06 724.163 155.06C723.593 155.06 723.123 155.145 722.752 155.317C722.381 155.488 722.104 155.721 721.922 156.014C721.745 156.307 721.656 156.642 721.656 157.019C721.656 157.273 721.709 157.506 721.814 157.716C721.925 157.921 722.093 158.111 722.32 158.289C722.553 158.466 722.846 158.629 723.2 158.778C723.56 158.928 723.989 159.072 724.487 159.21C725.173 159.404 725.765 159.619 726.263 159.857C726.761 160.095 727.171 160.364 727.492 160.663C727.818 160.956 728.059 161.291 728.214 161.667C728.374 162.038 728.455 162.458 728.455 162.929C728.455 163.421 728.355 163.867 728.156 164.265C727.957 164.664 727.672 165.004 727.301 165.286C726.93 165.568 726.485 165.787 725.964 165.942C725.45 166.091 724.874 166.166 724.238 166.166C723.679 166.166 723.128 166.089 722.586 165.934C722.049 165.779 721.559 165.546 721.117 165.236C720.68 164.926 720.328 164.545 720.062 164.091C719.802 163.632 719.672 163.1 719.672 162.497H721.266C721.266 162.912 721.346 163.269 721.507 163.568C721.667 163.861 721.886 164.105 722.163 164.298C722.445 164.492 722.763 164.636 723.117 164.73C723.477 164.819 723.85 164.863 724.238 164.863C724.797 164.863 725.27 164.785 725.657 164.63C726.045 164.475 726.338 164.254 726.537 163.966C726.742 163.679 726.844 163.338 726.844 162.945ZM729.857 161.609V161.418C729.857 160.771 729.951 160.17 730.14 159.617C730.328 159.058 730.599 158.574 730.953 158.164C731.307 157.749 731.736 157.428 732.24 157.201C732.743 156.969 733.308 156.853 733.933 156.853C734.564 156.853 735.131 156.969 735.635 157.201C736.144 157.428 736.576 157.749 736.93 158.164C737.289 158.574 737.563 159.058 737.751 159.617C737.94 160.17 738.034 160.771 738.034 161.418V161.609C738.034 162.256 737.94 162.857 737.751 163.41C737.563 163.964 737.289 164.448 736.93 164.863C736.576 165.272 736.147 165.593 735.643 165.826C735.145 166.053 734.581 166.166 733.95 166.166C733.319 166.166 732.752 166.053 732.248 165.826C731.744 165.593 731.313 165.272 730.953 164.863C730.599 164.448 730.328 163.964 730.14 163.41C729.951 162.857 729.857 162.256 729.857 161.609ZM731.393 161.418V161.609C731.393 162.057 731.446 162.48 731.551 162.879C731.656 163.272 731.814 163.62 732.024 163.925C732.24 164.229 732.508 164.47 732.829 164.647C733.15 164.819 733.524 164.904 733.95 164.904C734.37 164.904 734.738 164.819 735.054 164.647C735.375 164.47 735.64 164.229 735.851 163.925C736.061 163.62 736.219 163.272 736.324 162.879C736.434 162.48 736.49 162.057 736.49 161.609V161.418C736.49 160.975 736.434 160.557 736.324 160.165C736.219 159.766 736.058 159.415 735.842 159.11C735.632 158.8 735.366 158.557 735.045 158.38C734.73 158.203 734.359 158.114 733.933 158.114C733.513 158.114 733.142 158.203 732.821 158.38C732.505 158.557 732.24 158.8 732.024 159.11C731.814 159.415 731.656 159.766 731.551 160.165C731.446 160.557 731.393 160.975 731.393 161.418ZM742.558 164.614L745.015 157.019H746.583L743.354 166H742.325L742.558 164.614ZM740.507 157.019L743.039 164.655L743.213 166H742.184L738.93 157.019H740.507ZM751.672 166.166C751.047 166.166 750.479 166.061 749.97 165.851C749.467 165.635 749.032 165.333 748.667 164.946C748.307 164.558 748.031 164.099 747.837 163.568C747.643 163.037 747.546 162.456 747.546 161.825V161.476C747.546 160.746 747.654 160.095 747.87 159.525C748.086 158.95 748.379 158.463 748.75 158.064C749.121 157.666 749.541 157.364 750.012 157.16C750.482 156.955 750.969 156.853 751.473 156.853C752.115 156.853 752.668 156.963 753.133 157.185C753.603 157.406 753.988 157.716 754.287 158.114C754.585 158.507 754.807 158.972 754.951 159.509C755.095 160.04 755.167 160.621 755.167 161.252V161.941H748.459V160.688H753.631V160.571C753.609 160.173 753.526 159.785 753.382 159.409C753.243 159.033 753.022 158.723 752.718 158.479C752.413 158.236 751.998 158.114 751.473 158.114C751.124 158.114 750.803 158.189 750.51 158.338C750.216 158.482 749.965 158.698 749.754 158.986C749.544 159.274 749.381 159.625 749.265 160.04C749.148 160.455 749.09 160.934 749.09 161.476V161.825C749.09 162.251 749.148 162.652 749.265 163.028C749.386 163.399 749.561 163.726 749.788 164.008C750.02 164.29 750.299 164.511 750.626 164.672C750.958 164.832 751.334 164.913 751.755 164.913C752.297 164.913 752.757 164.802 753.133 164.581C753.509 164.359 753.838 164.063 754.121 163.692L755.05 164.431C754.857 164.724 754.61 165.004 754.312 165.27C754.013 165.535 753.645 165.751 753.208 165.917C752.776 166.083 752.264 166.166 751.672 166.166ZM758.495 158.43V166H756.959V157.019H758.454L758.495 158.43ZM761.301 156.969L761.292 158.396C761.165 158.369 761.043 158.352 760.927 158.347C760.817 158.336 760.689 158.33 760.545 158.33C760.191 158.33 759.879 158.385 759.607 158.496C759.336 158.607 759.107 158.762 758.918 158.961C758.73 159.16 758.581 159.398 758.47 159.675C758.365 159.946 758.296 160.245 758.263 160.571L757.831 160.82C757.831 160.278 757.884 159.769 757.989 159.293C758.099 158.817 758.268 158.396 758.495 158.031C758.722 157.66 759.01 157.373 759.358 157.168C759.713 156.958 760.133 156.853 760.62 156.853C760.731 156.853 760.858 156.866 761.002 156.894C761.146 156.916 761.245 156.941 761.301 156.969ZM762.147 161.609V161.418C762.147 160.771 762.242 160.17 762.43 159.617C762.618 159.058 762.889 158.574 763.243 158.164C763.597 157.749 764.026 157.428 764.53 157.201C765.033 156.969 765.598 156.853 766.223 156.853C766.854 156.853 767.421 156.969 767.925 157.201C768.434 157.428 768.866 157.749 769.22 158.164C769.579 158.574 769.853 159.058 770.042 159.617C770.23 160.17 770.324 160.771 770.324 161.418V161.609C770.324 162.256 770.23 162.857 770.042 163.41C769.853 163.964 769.579 164.448 769.22 164.863C768.866 165.272 768.437 165.593 767.933 165.826C767.435 166.053 766.871 166.166 766.24 166.166C765.609 166.166 765.042 166.053 764.538 165.826C764.035 165.593 763.603 165.272 763.243 164.863C762.889 164.448 762.618 163.964 762.43 163.41C762.242 162.857 762.147 162.256 762.147 161.609ZM763.683 161.418V161.609C763.683 162.057 763.736 162.48 763.841 162.879C763.946 163.272 764.104 163.62 764.314 163.925C764.53 164.229 764.798 164.47 765.119 164.647C765.44 164.819 765.814 164.904 766.24 164.904C766.66 164.904 767.028 164.819 767.344 164.647C767.665 164.47 767.93 164.229 768.141 163.925C768.351 163.62 768.509 163.272 768.614 162.879C768.724 162.48 768.78 162.057 768.78 161.609V161.418C768.78 160.975 768.724 160.557 768.614 160.165C768.509 159.766 768.348 159.415 768.132 159.11C767.922 158.8 767.656 158.557 767.335 158.38C767.02 158.203 766.649 158.114 766.223 158.114C765.803 158.114 765.432 158.203 765.111 158.38C764.795 158.557 764.53 158.8 764.314 159.11C764.104 159.415 763.946 159.766 763.841 160.165C763.736 160.557 763.683 160.975 763.683 161.418ZM773.777 158.803V166H772.233V157.019H773.694L773.777 158.803ZM773.461 161.169L772.748 161.144C772.753 160.53 772.833 159.963 772.988 159.442C773.143 158.917 773.373 158.46 773.677 158.073C773.982 157.685 774.361 157.387 774.814 157.176C775.268 156.96 775.794 156.853 776.392 156.853C776.812 156.853 777.2 156.913 777.554 157.035C777.908 157.151 778.215 157.337 778.475 157.591C778.735 157.846 778.937 158.172 779.081 158.571C779.225 158.969 779.297 159.451 779.297 160.015V166H777.761V160.09C777.761 159.619 777.681 159.243 777.521 158.961C777.366 158.679 777.144 158.474 776.856 158.347C776.569 158.214 776.231 158.147 775.844 158.147C775.39 158.147 775.011 158.228 774.707 158.388C774.402 158.549 774.159 158.77 773.976 159.052C773.793 159.334 773.661 159.658 773.578 160.023C773.5 160.383 773.461 160.765 773.461 161.169ZM779.28 160.322L778.251 160.638C778.257 160.145 778.337 159.672 778.492 159.218C778.652 158.764 778.882 158.361 779.181 158.006C779.485 157.652 779.859 157.373 780.301 157.168C780.744 156.958 781.25 156.853 781.82 156.853C782.302 156.853 782.728 156.916 783.099 157.043C783.475 157.171 783.79 157.367 784.045 157.633C784.305 157.893 784.501 158.228 784.634 158.637C784.767 159.047 784.833 159.534 784.833 160.098V166H783.29V160.082C783.29 159.578 783.209 159.188 783.049 158.911C782.894 158.629 782.673 158.432 782.385 158.322C782.103 158.206 781.765 158.147 781.372 158.147C781.035 158.147 780.736 158.206 780.476 158.322C780.215 158.438 779.997 158.598 779.82 158.803C779.643 159.002 779.507 159.232 779.413 159.492C779.325 159.752 779.28 160.029 779.28 160.322Z" fill="white"/>
<rect width="123" height="53" transform="translate(901 47) rotate(90)" fill="white"/>
<rect x="900.5" y="47.5" width="122" height="52" transform="rotate(90 900.5 47.5)" fill="#D3F4FC" stroke="black"/>
<rect x="893" y="53.228" width="14.0127" height="36" transform="rotate(90 893 53.228)" fill="#C4C4C4"/>
<rect x="893" y="73.4683" width="88.7468" height="36" transform="rotate(90 893 73.4683)" fill="#C4C4C4"/>
<rect x="13" y="207" width="164" height="93" fill="#FFCCD8"/>
<rect x="20.8408" y="218.789" width="16.988" height="28.8169" fill="#C4C4C4"/>
<rect x="46.9766" y="218.789" width="122.183" height="28.8169" fill="#C4C4C4"/>
<rect x="46.9766" y="261.359" width="122.183" height="28.8169" fill="#C4C4C4"/>
<rect x="20.8408" y="261.359" width="16.988" height="28.8169" fill="#C4C4C4"/>
<path d="M13 207V206.5H12.5V207H13ZM177 207H177.5V206.5H177V207ZM177 300V300.5H177.5V300H177ZM13 300H12.5V300.5H13V300ZM13 207.5H177V206.5H13V207.5ZM176.5 207V300H177.5V207H176.5ZM177 299.5H13V300.5H177V299.5ZM13.5 300V207H12.5V300H13.5Z" fill="black"/>
<rect x="604" y="207" width="164" height="93" fill="#FFCCD8"/>
<rect x="611.841" y="218.789" width="16.988" height="28.8169" fill="#C4C4C4"/>
<rect x="637.977" y="218.789" width="122.183" height="28.8169" fill="#C4C4C4"/>
<rect x="637.977" y="261.359" width="122.183" height="28.8169" fill="#C4C4C4"/>
<rect x="611.841" y="261.359" width="16.988" height="28.8169" fill="#C4C4C4"/>
<path d="M604 207V206.5H603.5V207H604ZM768 207H768.5V206.5H768V207ZM768 300V300.5H768.5V300H768ZM604 300H603.5V300.5H604V300ZM604 207.5H768V206.5H604V207.5ZM767.5 207V300H768.5V207H767.5ZM768 299.5H604V300.5H768V299.5ZM604.5 300V207H603.5V300H604.5Z" fill="black"/>
<rect x="623.515" y="47" width="119.485" height="53" fill="#C4C4C4"/>
<rect x="616" y="47" width="12.7751" height="53" fill="#FFC123"/>
<rect x="730.225" y="47" width="12.7751" height="53" fill="#FFC123"/>
<rect x="628.775" y="57.2388" width="10.2386" height="108.965" transform="rotate(-90 628.775 57.2388)" fill="#FFC123"/>
<rect x="638.544" y="64.4658" width="35.3195" height="28.9091" fill="#FFEED3"/>
<rect x="683.633" y="65.0684" width="35.3195" height="28.9091" fill="#FFEED3"/>
<rect width="97" height="44" transform="translate(440 44) rotate(90)" fill="white"/>
<rect x="440" y="49.7397" width="91.2604" height="44" transform="rotate(90 440 49.7397)" fill="#C4C4C4"/>
<rect x="440" y="44" width="9.7574" height="44" transform="rotate(90 440 44)" fill="#FFC123"/>
<rect x="440" y="131.243" width="9.75739" height="44" transform="rotate(90 440 131.243)" fill="#FFC123"/>
<rect x="431.5" y="53.7573" width="8.5" height="83.2249" fill="#FFC123"/>
<rect x="425.5" y="61.2188" width="26.9763" height="24" transform="rotate(90 425.5 61.2188)" fill="#FFEED3"/>
<rect x="425" y="95.6567" width="26.9763" height="24" transform="rotate(90 425 95.6567)" fill="#FFEED3"/>
</svg>
