<svg width="919" height="431" viewBox="0 0 919 431" fill="none" xmlns="http://www.w3.org/2000/svg">
    <path d="M2 36V314H198V163.375" stroke="white" stroke-width="3"/>
    <path d="M1 36H199V104" stroke="white" stroke-width="3"/>
    <path d="M195 35H448V103" stroke="white"/>
    <path d="M199 315H370.5V341.5M370.5 341.5H449.5M370.5 341.5V365.5M449.5 341.5V315V175H459.5H467.5M449.5 341.5V365.5M449.5 365.5H370.5M449.5 365.5V388.5M370.5 365.5V388.5M370.5 388.5H449.5M370.5 388.5V409.25M449.5 388.5V409.25M449.5 409.25V430H370.5V409.25M449.5 409.25H370.5" stroke="white"/>
    <path d="M594 35H694.612H917V314H594V165.5" stroke="white" stroke-width="3"/>
    <path d="M598 315H450" stroke="white"/>
    <path d="M596 34V103.5" stroke="white" stroke-width="3"/>
    <path d="M448 35H596" stroke="white"/>
    <path d="M595 175H517" stroke="white"/>
    <path d="M441.923 16H434.004V14.896L438.188 10.2476C438.808 9.54476 439.234 8.97477 439.466 8.5376C439.704 8.09489 439.823 7.63835 439.823 7.16797C439.823 6.53711 439.632 6.01969 439.25 5.61572C438.869 5.21175 438.36 5.00977 437.723 5.00977C436.959 5.00977 436.365 5.22835 435.938 5.66553C435.518 6.09717 435.308 6.70036 435.308 7.4751H433.772C433.772 6.36279 434.129 5.46354 434.843 4.77734C435.562 4.09115 436.522 3.74805 437.723 3.74805C438.847 3.74805 439.735 4.04411 440.388 4.63623C441.041 5.22282 441.367 6.00586 441.367 6.98535C441.367 8.17513 440.609 9.5918 439.093 11.2354L435.855 14.7466H441.923V16ZM443.741 15.1948C443.741 14.9292 443.819 14.7078 443.974 14.5308C444.134 14.3537 444.372 14.2651 444.688 14.2651C445.003 14.2651 445.241 14.3537 445.401 14.5308C445.567 14.7078 445.65 14.9292 445.65 15.1948C445.65 15.4494 445.567 15.6624 445.401 15.834C445.241 16.0055 445.003 16.0913 444.688 16.0913C444.372 16.0913 444.134 16.0055 443.974 15.834C443.819 15.6624 443.741 15.4494 443.741 15.1948ZM456.134 16.166C454.917 16.166 453.926 15.7676 453.163 14.9707C452.399 14.1683 452.017 13.0975 452.017 11.7583V11.4761C452.017 10.5851 452.186 9.79102 452.523 9.09375C452.867 8.39095 453.342 7.8431 453.951 7.4502C454.565 7.05176 455.229 6.85254 455.943 6.85254C457.111 6.85254 458.019 7.23714 458.666 8.00635C459.313 8.77555 459.637 9.87679 459.637 11.3101V11.9492H453.553C453.575 12.8346 453.832 13.5513 454.325 14.0991C454.823 14.6414 455.454 14.9126 456.217 14.9126C456.76 14.9126 457.219 14.8019 457.595 14.5806C457.972 14.3592 458.301 14.0659 458.583 13.7007L459.521 14.4312C458.768 15.5877 457.639 16.166 456.134 16.166ZM455.943 8.11426C455.324 8.11426 454.803 8.34115 454.383 8.79492C453.962 9.24316 453.702 9.87402 453.603 10.6875H458.102V10.5713C458.057 9.79102 457.847 9.18783 457.471 8.76172C457.094 8.33008 456.585 8.11426 455.943 8.11426ZM463.505 4.84375V7.01855H465.182V8.20557H463.505V13.7754C463.505 14.1351 463.58 14.4062 463.729 14.5889C463.879 14.766 464.133 14.8545 464.493 14.8545C464.67 14.8545 464.914 14.8213 465.224 14.7549V16C464.82 16.1107 464.427 16.166 464.045 16.166C463.359 16.166 462.841 15.9585 462.493 15.5435C462.144 15.1284 461.97 14.5391 461.97 13.7754V8.20557H460.334V7.01855H461.97V4.84375H463.505ZM466.618 11.4346C466.618 10.0345 466.942 8.9222 467.589 8.09766C468.237 7.26758 469.095 6.85254 470.163 6.85254C471.258 6.85254 472.113 7.23991 472.728 8.01465L472.802 7.01855H474.205V15.7842C474.205 16.9463 473.859 17.8621 473.167 18.5317C472.481 19.2013 471.557 19.5361 470.395 19.5361C469.748 19.5361 469.114 19.3978 468.494 19.1211C467.874 18.8444 467.401 18.4653 467.075 17.9839L467.872 17.0625C468.53 17.876 469.335 18.2827 470.287 18.2827C471.034 18.2827 471.615 18.0724 472.03 17.6519C472.451 17.2313 472.661 16.6392 472.661 15.8755V15.1035C472.047 15.8118 471.208 16.166 470.146 16.166C469.095 16.166 468.242 15.7427 467.589 14.896C466.942 14.0493 466.618 12.8955 466.618 11.4346ZM468.162 11.6089C468.162 12.6216 468.37 13.4185 468.785 13.9995C469.2 14.575 469.781 14.8628 470.528 14.8628C471.496 14.8628 472.207 14.4229 472.661 13.543V9.44238C472.191 8.58464 471.485 8.15576 470.544 8.15576C469.797 8.15576 469.214 8.44629 468.793 9.02734C468.372 9.6084 468.162 10.4689 468.162 11.6089Z" fill="white"/>
    <path d="M510.009 249.19L510.242 250.784L510.582 249.348L512.973 240.914H514.317L516.65 249.348L516.982 250.809L517.239 249.182L519.115 240.914H520.717L517.787 253H516.334L513.844 244.193L513.653 243.271L513.462 244.193L510.881 253H509.428L506.506 240.914H508.1L510.009 249.19ZM535.601 249.165C535.451 250.443 534.978 251.431 534.181 252.128C533.39 252.82 532.336 253.166 531.019 253.166C529.591 253.166 528.445 252.654 527.582 251.63C526.724 250.607 526.295 249.237 526.295 247.521V246.359C526.295 245.236 526.495 244.248 526.893 243.396C527.297 242.544 527.867 241.891 528.603 241.437C529.339 240.978 530.191 240.748 531.16 240.748C532.444 240.748 533.473 241.108 534.248 241.827C535.022 242.541 535.473 243.532 535.601 244.799H533.999C533.86 243.836 533.559 243.139 533.094 242.707C532.634 242.275 531.99 242.06 531.16 242.06C530.141 242.06 529.342 242.436 528.761 243.188C528.185 243.941 527.897 245.012 527.897 246.401V247.571C527.897 248.883 528.171 249.926 528.719 250.701C529.267 251.475 530.034 251.863 531.019 251.863C531.904 251.863 532.582 251.664 533.052 251.265C533.528 250.861 533.844 250.161 533.999 249.165H535.601Z" fill="white"/>
    <path d="M510.009 249.19L510.999 249.046L510.993 249.005L510.984 248.965L510.009 249.19ZM510.242 250.784L509.252 250.928L511.215 251.014L510.242 250.784ZM510.582 249.348L509.62 249.075L509.614 249.096L509.609 249.117L510.582 249.348ZM512.973 240.914V239.914H512.217L512.011 240.641L512.973 240.914ZM514.317 240.914L515.281 240.647L515.078 239.914H514.317V240.914ZM516.65 249.348L517.625 249.126L517.62 249.103L517.614 249.081L516.65 249.348ZM516.982 250.809L516.007 251.03L517.97 250.965L516.982 250.809ZM517.239 249.182L516.264 248.96L516.257 248.993L516.252 249.025L517.239 249.182ZM519.115 240.914V239.914H518.317L518.14 240.693L519.115 240.914ZM520.717 240.914L521.689 241.15L521.989 239.914H520.717V240.914ZM517.787 253V254H518.574L518.759 253.236L517.787 253ZM516.334 253L515.372 253.272L515.578 254H516.334V253ZM513.844 244.193L512.865 244.396L512.872 244.431L512.882 244.465L513.844 244.193ZM513.653 243.271L514.633 243.069H512.674L513.653 243.271ZM513.462 244.193L514.422 244.474L514.433 244.435L514.442 244.396L513.462 244.193ZM510.881 253V254H511.63L511.84 253.281L510.881 253ZM509.428 253L508.456 253.235L508.641 254H509.428V253ZM506.506 240.914V239.914H505.236L505.534 241.149L506.506 240.914ZM508.1 240.914L509.075 240.689L508.896 239.914H508.1V240.914ZM509.02 249.334L509.252 250.928L511.231 250.639L510.999 249.046L509.02 249.334ZM511.215 251.014L511.555 249.578L509.609 249.117L509.269 250.553L511.215 251.014ZM511.544 249.62L513.935 241.187L512.011 240.641L509.62 249.075L511.544 249.62ZM512.973 241.914H514.317V239.914H512.973V241.914ZM513.354 241.181L515.686 249.614L517.614 249.081L515.281 240.647L513.354 241.181ZM515.675 249.569L516.007 251.03L517.957 250.587L517.625 249.126L515.675 249.569ZM517.97 250.965L518.227 249.338L516.252 249.025L515.994 250.652L517.97 250.965ZM518.214 249.403L520.09 241.135L518.14 240.693L516.264 248.96L518.214 249.403ZM519.115 241.914H520.717V239.914H519.115V241.914ZM519.745 240.678L516.815 252.764L518.759 253.236L521.689 241.15L519.745 240.678ZM517.787 252H516.334V254H517.787V252ZM517.297 252.728L514.807 243.921L512.882 244.465L515.372 253.272L517.297 252.728ZM514.823 243.99L514.633 243.069L512.674 243.474L512.865 244.396L514.823 243.99ZM512.674 243.069L512.483 243.99L514.442 244.396L514.633 243.474L512.674 243.069ZM512.503 243.912L509.921 252.719L511.84 253.281L514.422 244.474L512.503 243.912ZM510.881 252H509.428V254H510.881V252ZM510.4 252.765L507.478 240.679L505.534 241.149L508.456 253.235L510.4 252.765ZM506.506 241.914H508.1V239.914H506.506V241.914ZM507.126 241.139L509.035 249.415L510.984 248.965L509.075 240.689L507.126 241.139ZM535.601 249.165L536.594 249.281L536.724 248.165H535.601V249.165ZM534.181 252.128L534.839 252.881L534.84 252.881L534.181 252.128ZM527.582 251.63L526.816 252.273L526.818 252.275L527.582 251.63ZM526.893 243.396L525.989 242.968L525.987 242.972L526.893 243.396ZM528.603 241.437L529.128 242.288L529.132 242.285L528.603 241.437ZM534.248 241.827L533.567 242.56L533.57 242.563L534.248 241.827ZM535.601 244.799V245.799H536.706L536.596 244.699L535.601 244.799ZM533.999 244.799L533.009 244.941L533.132 245.799H533.999V244.799ZM533.094 242.707L532.409 243.436L532.413 243.44L533.094 242.707ZM528.761 243.188L527.969 242.577L527.966 242.581L528.761 243.188ZM533.052 251.265L533.699 252.028L533.699 252.028L533.052 251.265ZM533.999 249.165V248.165H533.142L533.01 249.011L533.999 249.165ZM534.607 249.049C534.48 250.137 534.095 250.875 533.523 251.376L534.84 252.881C535.861 251.987 536.422 250.75 536.594 249.281L534.607 249.049ZM533.523 251.376C532.957 251.871 532.157 252.166 531.019 252.166V254.166C532.514 254.166 533.823 253.77 534.839 252.881L533.523 251.376ZM531.019 252.166C529.863 252.166 529.006 251.768 528.347 250.986L526.818 252.275C527.885 253.541 529.318 254.166 531.019 254.166V252.166ZM528.349 250.988C527.68 250.191 527.295 249.07 527.295 247.521H525.295C525.295 249.404 525.768 251.023 526.816 252.273L528.349 250.988ZM527.295 247.521V246.359H525.295V247.521H527.295ZM527.295 246.359C527.295 245.354 527.473 244.516 527.799 243.82L525.987 242.972C525.516 243.981 525.295 245.118 525.295 246.359H527.295ZM527.797 243.824C528.126 243.13 528.571 242.631 529.128 242.288L528.078 240.586C527.163 241.15 526.468 241.957 525.989 242.968L527.797 243.824ZM529.132 242.285C529.692 241.936 530.356 241.748 531.16 241.748V239.748C530.026 239.748 528.986 240.019 528.074 240.589L529.132 242.285ZM531.16 241.748C532.248 241.748 533.015 242.048 533.567 242.56L534.928 241.094C533.93 240.168 532.639 239.748 531.16 239.748V241.748ZM533.57 242.563C534.129 243.078 534.497 243.822 534.606 244.899L536.596 244.699C536.449 243.242 535.916 242.005 534.925 241.092L533.57 242.563ZM535.601 243.799H533.999V245.799H535.601V243.799ZM534.988 244.657C534.834 243.582 534.476 242.625 533.774 241.974L532.413 243.44C532.642 243.652 532.886 244.09 533.009 244.941L534.988 244.657ZM533.779 241.978C533.081 241.323 532.161 241.06 531.16 241.06V243.06C531.818 243.06 532.188 243.228 532.409 243.436L533.779 241.978ZM531.16 241.06C529.857 241.06 528.755 241.56 527.969 242.577L529.552 243.8C529.929 243.312 530.426 243.06 531.16 243.06V241.06ZM527.966 242.581C527.208 243.573 526.897 244.891 526.897 246.401H528.897C528.897 245.133 529.162 244.309 529.555 243.796L527.966 242.581ZM526.897 246.401V247.571H528.897V246.401H526.897ZM526.897 247.571C526.897 249.013 527.198 250.281 527.903 251.278L529.536 250.123C529.145 249.571 528.897 248.753 528.897 247.571H526.897ZM527.903 251.278C528.646 252.33 529.724 252.863 531.019 252.863V250.863C530.343 250.863 529.888 250.621 529.536 250.123L527.903 251.278ZM531.019 252.863C532.039 252.863 532.983 252.634 533.699 252.028L532.406 250.502C532.181 250.693 531.769 250.863 531.019 250.863V252.863ZM533.699 252.028C534.442 251.397 534.816 250.415 534.987 249.319L533.01 249.011C532.871 249.907 532.615 250.325 532.405 250.503L533.699 252.028ZM533.999 250.165H535.601V248.165H533.999V250.165Z" fill="white"/>
    <path d="M311.326 184.415C310.917 185.001 310.344 185.441 309.608 185.734C308.877 186.022 308.025 186.166 307.051 186.166C306.066 186.166 305.192 185.936 304.428 185.477C303.665 185.012 303.072 184.354 302.652 183.501C302.237 182.649 302.024 181.661 302.013 180.538V179.484C302.013 177.663 302.436 176.252 303.283 175.25C304.135 174.249 305.33 173.748 306.869 173.748C308.13 173.748 309.146 174.072 309.915 174.719C310.684 175.361 311.155 176.274 311.326 177.458H309.732C309.434 175.859 308.482 175.06 306.877 175.06C305.809 175.06 304.998 175.436 304.445 176.188C303.897 176.936 303.62 178.02 303.615 179.442V180.43C303.615 181.786 303.925 182.865 304.544 183.667C305.164 184.464 306.003 184.863 307.06 184.863C307.657 184.863 308.18 184.796 308.628 184.664C309.077 184.531 309.447 184.307 309.741 183.991V181.277H306.943V179.982H311.326V184.415ZM319.295 186C319.206 185.823 319.134 185.507 319.079 185.054C318.365 185.795 317.513 186.166 316.522 186.166C315.637 186.166 314.909 185.917 314.339 185.419C313.775 184.915 313.493 184.279 313.493 183.51C313.493 182.575 313.847 181.85 314.555 181.335C315.269 180.815 316.271 180.555 317.56 180.555H319.054V179.849C319.054 179.312 318.894 178.886 318.573 178.571C318.252 178.25 317.779 178.089 317.153 178.089C316.605 178.089 316.146 178.228 315.775 178.504C315.405 178.781 315.219 179.116 315.219 179.509H313.675C313.675 179.061 313.833 178.629 314.148 178.214C314.469 177.793 314.901 177.461 315.443 177.218C315.991 176.974 316.592 176.853 317.245 176.853C318.279 176.853 319.09 177.113 319.677 177.633C320.263 178.147 320.568 178.859 320.59 179.766V183.9C320.59 184.724 320.695 185.38 320.905 185.867V186H319.295ZM316.747 184.83C317.228 184.83 317.685 184.705 318.116 184.456C318.548 184.207 318.861 183.883 319.054 183.485V181.642H317.851C315.969 181.642 315.028 182.193 315.028 183.294C315.028 183.775 315.189 184.152 315.51 184.423C315.831 184.694 316.243 184.83 316.747 184.83ZM324.45 177.019L324.5 178.147C325.186 177.284 326.082 176.853 327.189 176.853C329.087 176.853 330.044 177.923 330.061 180.065V186H328.525V180.057C328.52 179.409 328.37 178.931 328.077 178.621C327.789 178.311 327.338 178.156 326.724 178.156C326.226 178.156 325.789 178.289 325.413 178.554C325.036 178.82 324.743 179.168 324.533 179.6V186H322.997V177.019H324.45ZM332.012 181.435C332.012 180.035 332.335 178.922 332.983 178.098C333.63 177.268 334.488 176.853 335.556 176.853C336.652 176.853 337.507 177.24 338.121 178.015L338.196 177.019H339.599V185.784C339.599 186.946 339.253 187.862 338.561 188.532C337.875 189.201 336.951 189.536 335.789 189.536C335.141 189.536 334.507 189.398 333.888 189.121C333.268 188.844 332.795 188.465 332.468 187.984L333.265 187.062C333.924 187.876 334.729 188.283 335.681 188.283C336.428 188.283 337.009 188.072 337.424 187.652C337.844 187.231 338.055 186.639 338.055 185.875V185.104C337.44 185.812 336.602 186.166 335.54 186.166C334.488 186.166 333.636 185.743 332.983 184.896C332.335 184.049 332.012 182.896 332.012 181.435ZM333.556 181.609C333.556 182.622 333.763 183.418 334.178 184C334.593 184.575 335.174 184.863 335.921 184.863C336.89 184.863 337.601 184.423 338.055 183.543V179.442C337.584 178.585 336.879 178.156 335.938 178.156C335.191 178.156 334.607 178.446 334.187 179.027C333.766 179.608 333.556 180.469 333.556 181.609Z" fill="white"/>
    <rect x="900.5" y="47.5" width="122" height="52" transform="rotate(90 900.5 47.5)" fill="#D3F4FC" stroke="black"/>
    <rect x="893" y="53.2278" width="14.0127" height="36" transform="rotate(90 893 53.2278)" fill="#C4C4C4"/>
    <rect x="893" y="73.4684" width="88.7468" height="36" transform="rotate(90 893 73.4684)" fill="#C4C4C4"/>
    <rect x="13" y="207" width="164" height="93" fill="#FFCCD8"/>
    <rect x="20.8406" y="218.789" width="16.988" height="28.8169" fill="#C4C4C4"/>
    <rect x="46.9761" y="218.789" width="122.183" height="28.8169" fill="#C4C4C4"/>
    <rect x="46.9761" y="261.359" width="122.183" height="28.8169" fill="#C4C4C4"/>
    <rect x="20.8406" y="261.359" width="16.988" height="28.8169" fill="#C4C4C4"/>
    <path d="M13 207V206.5H12.5V207H13ZM177 207H177.5V206.5H177V207ZM177 300V300.5H177.5V300H177ZM13 300H12.5V300.5H13V300ZM13 207.5H177V206.5H13V207.5ZM176.5 207V300H177.5V207H176.5ZM177 299.5H13V300.5H177V299.5ZM13.5 300V207H12.5V300H13.5Z" fill="black"/>
    <rect x="604" y="207" width="164" height="93" fill="#FFCCD8"/>
    <rect x="611.841" y="218.789" width="16.988" height="28.8169" fill="#C4C4C4"/>
    <rect x="637.976" y="218.789" width="122.183" height="28.8169" fill="#C4C4C4"/>
    <rect x="637.976" y="261.359" width="122.183" height="28.8169" fill="#C4C4C4"/>
    <rect x="611.841" y="261.359" width="16.988" height="28.8169" fill="#C4C4C4"/>
    <path d="M604 207V206.5H603.5V207H604ZM768 207H768.5V206.5H768V207ZM768 300V300.5H768.5V300H768ZM604 300H603.5V300.5H604V300ZM604 207.5H768V206.5H604V207.5ZM767.5 207V300H768.5V207H767.5ZM768 299.5H604V300.5H768V299.5ZM604.5 300V207H603.5V300H604.5Z" fill="black"/>
    <rect x="623.515" y="47" width="119.485" height="53" fill="#C4C4C4"/>
    <rect x="616" y="47" width="12.7751" height="53" fill="#FFC123"/>
    <rect x="730.225" y="47" width="12.7751" height="53" fill="#FFC123"/>
    <rect x="628.775" y="57.2386" width="10.2386" height="108.965" transform="rotate(-90 628.775 57.2386)" fill="#FFC123"/>
    <rect x="638.544" y="64.4659" width="35.3195" height="28.9091" fill="#FFEED3"/>
    <rect x="683.633" y="65.0682" width="35.3195" height="28.9091" fill="#FFEED3"/>
</svg>
