<svg width="911" height="458" viewBox="0 0 911 458" fill="none" xmlns="http://www.w3.org/2000/svg">
<path d="M424.051 16H422.507V5.76514L419.411 6.90234V5.50781L423.811 3.85596H424.051V16ZM428.741 15.1948C428.741 14.9292 428.819 14.7078 428.974 14.5308C429.134 14.3537 429.372 14.2651 429.688 14.2651C430.003 14.2651 430.241 14.3537 430.401 14.5308C430.567 14.7078 430.65 14.9292 430.65 15.1948C430.65 15.4494 430.567 15.6624 430.401 15.834C430.241 16.0055 430.003 16.0913 429.688 16.0913C429.372 16.0913 429.134 16.0055 428.974 15.834C428.819 15.6624 428.741 15.4494 428.741 15.1948ZM441.134 16.166C439.917 16.166 438.926 15.7676 438.163 14.9707C437.399 14.1683 437.017 13.0975 437.017 11.7583V11.4761C437.017 10.5851 437.186 9.79102 437.523 9.09375C437.867 8.39095 438.342 7.8431 438.951 7.4502C439.565 7.05176 440.229 6.85254 440.943 6.85254C442.111 6.85254 443.019 7.23714 443.666 8.00635C444.313 8.77555 444.637 9.87679 444.637 11.3101V11.9492H438.553C438.575 12.8346 438.832 13.5513 439.325 14.0991C439.823 14.6414 440.454 14.9126 441.217 14.9126C441.76 14.9126 442.219 14.8019 442.595 14.5806C442.972 14.3592 443.301 14.0659 443.583 13.7007L444.521 14.4312C443.768 15.5877 442.639 16.166 441.134 16.166ZM440.943 8.11426C440.324 8.11426 439.803 8.34115 439.383 8.79492C438.962 9.24316 438.702 9.87402 438.603 10.6875H443.102V10.5713C443.057 9.79102 442.847 9.18783 442.471 8.76172C442.094 8.33008 441.585 8.11426 440.943 8.11426ZM448.505 4.84375V7.01855H450.182V8.20557H448.505V13.7754C448.505 14.1351 448.58 14.4062 448.729 14.5889C448.879 14.766 449.133 14.8545 449.493 14.8545C449.67 14.8545 449.914 14.8213 450.224 14.7549V16C449.82 16.1107 449.427 16.166 449.045 16.166C448.359 16.166 447.841 15.9585 447.493 15.5435C447.144 15.1284 446.97 14.5391 446.97 13.7754V8.20557H445.334V7.01855H446.97V4.84375H448.505ZM451.618 11.4346C451.618 10.0345 451.942 8.9222 452.589 8.09766C453.237 7.26758 454.095 6.85254 455.163 6.85254C456.258 6.85254 457.113 7.23991 457.728 8.01465L457.802 7.01855H459.205V15.7842C459.205 16.9463 458.859 17.8621 458.167 18.5317C457.481 19.2013 456.557 19.5361 455.395 19.5361C454.748 19.5361 454.114 19.3978 453.494 19.1211C452.874 18.8444 452.401 18.4653 452.075 17.9839L452.872 17.0625C453.53 17.876 454.335 18.2827 455.287 18.2827C456.034 18.2827 456.615 18.0724 457.03 17.6519C457.451 17.2313 457.661 16.6392 457.661 15.8755V15.1035C457.047 15.8118 456.208 16.166 455.146 16.166C454.095 16.166 453.242 15.7427 452.589 14.896C451.942 14.0493 451.618 12.8955 451.618 11.4346ZM453.162 11.6089C453.162 12.6216 453.37 13.4185 453.785 13.9995C454.2 14.575 454.781 14.8628 455.528 14.8628C456.496 14.8628 457.207 14.4229 457.661 13.543V9.44238C457.191 8.58464 456.485 8.15576 455.544 8.15576C454.797 8.15576 454.214 8.44629 453.793 9.02734C453.372 9.6084 453.162 10.4689 453.162 11.6089Z" fill="white"/>
<path d="M548.474 130.38L546.997 131.916V136H545.403V123.914H546.997V129.891L552.367 123.914H554.293L549.537 129.251L554.667 136H552.757L548.474 130.38ZM557.406 127.019V137.038C557.406 138.764 556.623 139.627 555.057 139.627C554.719 139.627 554.406 139.578 554.119 139.478V138.25C554.296 138.294 554.528 138.316 554.816 138.316C555.159 138.316 555.419 138.222 555.596 138.034C555.779 137.851 555.87 137.53 555.87 137.071V127.019H557.406ZM555.712 124.636C555.712 124.393 555.787 124.185 555.937 124.014C556.091 123.837 556.316 123.748 556.609 123.748C556.908 123.748 557.135 123.834 557.29 124.005C557.444 124.177 557.522 124.387 557.522 124.636C557.522 124.885 557.444 125.093 557.29 125.259C557.135 125.425 556.908 125.508 556.609 125.508C556.31 125.508 556.086 125.425 555.937 125.259C555.787 125.093 555.712 124.885 555.712 124.636ZM559.481 131.426C559.481 130.546 559.65 129.758 559.987 129.061C560.33 128.358 560.812 127.815 561.432 127.434C562.057 127.046 562.765 126.853 563.557 126.853C564.165 126.853 564.73 126.969 565.25 127.201L565.856 125.973H566.885L566.039 127.674C567.118 128.527 567.657 129.838 567.657 131.609C567.657 132.483 567.486 133.272 567.143 133.975C566.799 134.677 566.318 135.22 565.698 135.602C565.078 135.978 564.37 136.166 563.573 136.166C562.998 136.166 562.472 136.069 561.996 135.875L561.382 137.112H560.353L561.183 135.427C560.048 134.603 559.481 133.269 559.481 131.426ZM561.017 131.609C561.017 132.682 561.285 133.526 561.822 134.141L564.669 128.38C564.326 128.203 563.955 128.114 563.557 128.114C562.793 128.114 562.179 128.416 561.714 129.019C561.249 129.622 561.017 130.486 561.017 131.609ZM566.113 131.426C566.113 130.419 565.873 129.608 565.391 128.994L562.569 134.705C562.873 134.843 563.208 134.913 563.573 134.913C564.342 134.913 564.957 134.611 565.416 134.008C565.881 133.399 566.113 132.583 566.113 131.559V131.426ZM572.023 131.841L571.061 132.846V136H569.525V123.25H571.061V130.961L571.882 129.974L574.68 127.019H576.547L573.053 130.771L576.954 136H575.153L572.023 131.841ZM580.64 131.841L579.677 132.846V136H578.141V123.25H579.677V130.961L580.499 129.974L583.296 127.019H585.164L581.669 130.771L585.57 136H583.769L580.64 131.841ZM590.31 136.166C589.093 136.166 588.102 135.768 587.338 134.971C586.575 134.168 586.193 133.097 586.193 131.758V131.476C586.193 130.585 586.362 129.791 586.699 129.094C587.042 128.391 587.518 127.843 588.127 127.45C588.741 127.052 589.405 126.853 590.119 126.853C591.287 126.853 592.194 127.237 592.842 128.006C593.489 128.776 593.813 129.877 593.813 131.31V131.949H587.729C587.751 132.835 588.008 133.551 588.5 134.099C588.999 134.641 589.629 134.913 590.393 134.913C590.935 134.913 591.395 134.802 591.771 134.581C592.147 134.359 592.477 134.066 592.759 133.701L593.697 134.431C592.944 135.588 591.815 136.166 590.31 136.166ZM590.119 128.114C589.499 128.114 588.979 128.341 588.559 128.795C588.138 129.243 587.878 129.874 587.778 130.688H592.277V130.571C592.233 129.791 592.023 129.188 591.646 128.762C591.27 128.33 590.761 128.114 590.119 128.114ZM597.05 127.019L597.1 128.147C597.786 127.284 598.683 126.853 599.79 126.853C601.688 126.853 602.645 127.923 602.662 130.065V136H601.126V130.057C601.12 129.409 600.971 128.931 600.678 128.621C600.39 128.311 599.939 128.156 599.325 128.156C598.827 128.156 598.389 128.289 598.013 128.554C597.637 128.82 597.344 129.168 597.133 129.6V136H595.598V127.019H597.05Z" fill="white"/>
<path d="M777.964 136.613C776.597 136.22 775.601 135.738 774.976 135.168C774.356 134.593 774.046 133.885 774.046 133.043C774.046 132.092 774.425 131.306 775.183 130.686C775.947 130.061 776.937 129.748 778.155 129.748C778.985 129.748 779.724 129.909 780.371 130.229C781.024 130.55 781.528 130.993 781.882 131.558C782.242 132.122 782.421 132.739 782.421 133.409H780.819C780.819 132.678 780.587 132.105 780.122 131.69C779.657 131.27 779.001 131.06 778.155 131.06C777.369 131.06 776.755 131.234 776.312 131.583C775.875 131.926 775.656 132.404 775.656 133.019C775.656 133.511 775.864 133.929 776.279 134.272C776.699 134.61 777.41 134.919 778.412 135.202C779.419 135.484 780.205 135.797 780.77 136.14C781.34 136.477 781.76 136.873 782.031 137.327C782.308 137.78 782.446 138.314 782.446 138.929C782.446 139.908 782.064 140.694 781.301 141.286C780.537 141.873 779.516 142.166 778.238 142.166C777.408 142.166 776.633 142.008 775.914 141.693C775.194 141.372 774.638 140.935 774.245 140.381C773.858 139.828 773.664 139.2 773.664 138.497H775.266C775.266 139.228 775.535 139.806 776.071 140.232C776.614 140.653 777.336 140.863 778.238 140.863C779.079 140.863 779.724 140.691 780.172 140.348C780.62 140.005 780.844 139.537 780.844 138.945C780.844 138.353 780.637 137.897 780.222 137.576C779.807 137.249 779.054 136.928 777.964 136.613ZM791.843 137.609C791.843 138.976 791.53 140.077 790.905 140.913C790.279 141.748 789.433 142.166 788.365 142.166C787.275 142.166 786.417 141.82 785.792 141.128V145.453H784.256V133.019H785.659L785.733 134.015C786.359 133.24 787.228 132.853 788.34 132.853C789.419 132.853 790.271 133.259 790.896 134.073C791.527 134.886 791.843 136.018 791.843 137.468V137.609ZM790.307 137.435C790.307 136.422 790.091 135.622 789.66 135.036C789.228 134.449 788.636 134.156 787.883 134.156C786.954 134.156 786.256 134.568 785.792 135.393V139.684C786.251 140.503 786.954 140.913 787.9 140.913C788.636 140.913 789.22 140.622 789.651 140.041C790.089 139.454 790.307 138.586 790.307 137.435ZM795.47 142H793.935V133.019H795.47V142ZM793.81 130.636C793.81 130.387 793.885 130.177 794.034 130.005C794.189 129.834 794.416 129.748 794.715 129.748C795.014 129.748 795.241 129.834 795.396 130.005C795.55 130.177 795.628 130.387 795.628 130.636C795.628 130.885 795.55 131.093 795.396 131.259C795.241 131.425 795.014 131.508 794.715 131.508C794.416 131.508 794.189 131.425 794.034 131.259C793.885 131.093 793.81 130.885 793.81 130.636ZM803.165 139.618C803.165 139.203 803.007 138.882 802.692 138.655C802.382 138.422 801.837 138.223 801.057 138.057C800.282 137.891 799.665 137.692 799.206 137.459C798.752 137.227 798.414 136.95 798.193 136.629C797.977 136.308 797.869 135.927 797.869 135.484C797.869 134.748 798.179 134.125 798.799 133.616C799.424 133.107 800.221 132.853 801.189 132.853C802.208 132.853 803.032 133.115 803.663 133.641C804.299 134.167 804.618 134.839 804.618 135.658H803.074C803.074 135.238 802.894 134.875 802.534 134.571C802.18 134.266 801.732 134.114 801.189 134.114C800.631 134.114 800.193 134.236 799.878 134.479C799.562 134.723 799.405 135.041 799.405 135.434C799.405 135.805 799.551 136.084 799.845 136.272C800.138 136.461 800.667 136.64 801.43 136.812C802.199 136.984 802.822 137.188 803.298 137.426C803.774 137.664 804.125 137.952 804.352 138.29C804.584 138.622 804.701 139.028 804.701 139.51C804.701 140.312 804.38 140.957 803.738 141.444C803.096 141.925 802.263 142.166 801.239 142.166C800.52 142.166 799.883 142.039 799.33 141.784C798.777 141.53 798.342 141.175 798.027 140.722C797.717 140.262 797.562 139.767 797.562 139.236H799.098C799.125 139.75 799.33 140.16 799.712 140.464C800.099 140.763 800.608 140.913 801.239 140.913C801.82 140.913 802.285 140.796 802.634 140.564C802.988 140.326 803.165 140.011 803.165 139.618ZM810.428 142.166C809.211 142.166 808.22 141.768 807.457 140.971C806.693 140.168 806.311 139.097 806.311 137.758V137.476C806.311 136.585 806.48 135.791 806.817 135.094C807.16 134.391 807.636 133.843 808.245 133.45C808.859 133.052 809.523 132.853 810.237 132.853C811.405 132.853 812.312 133.237 812.96 134.006C813.607 134.776 813.931 135.877 813.931 137.31V137.949H807.847C807.869 138.835 808.126 139.551 808.619 140.099C809.117 140.641 809.748 140.913 810.511 140.913C811.054 140.913 811.513 140.802 811.889 140.581C812.265 140.359 812.595 140.066 812.877 139.701L813.815 140.431C813.062 141.588 811.933 142.166 810.428 142.166ZM810.237 134.114C809.618 134.114 809.097 134.341 808.677 134.795C808.256 135.243 807.996 135.874 807.896 136.688H812.396V136.571C812.351 135.791 812.141 135.188 811.765 134.762C811.388 134.33 810.879 134.114 810.237 134.114ZM820.945 139.618C820.945 139.203 820.788 138.882 820.472 138.655C820.162 138.422 819.617 138.223 818.837 138.057C818.062 137.891 817.445 137.692 816.986 137.459C816.532 137.227 816.194 136.95 815.973 136.629C815.757 136.308 815.649 135.927 815.649 135.484C815.649 134.748 815.959 134.125 816.579 133.616C817.204 133.107 818.001 132.853 818.97 132.853C819.988 132.853 820.812 133.115 821.443 133.641C822.08 134.167 822.398 134.839 822.398 135.658H820.854C820.854 135.238 820.674 134.875 820.314 134.571C819.96 134.266 819.512 134.114 818.97 134.114C818.411 134.114 817.974 134.236 817.658 134.479C817.343 134.723 817.185 135.041 817.185 135.434C817.185 135.805 817.332 136.084 817.625 136.272C817.918 136.461 818.447 136.64 819.21 136.812C819.98 136.984 820.602 137.188 821.078 137.426C821.554 137.664 821.905 137.952 822.132 138.29C822.365 138.622 822.481 139.028 822.481 139.51C822.481 140.312 822.16 140.957 821.518 141.444C820.876 141.925 820.043 142.166 819.02 142.166C818.3 142.166 817.664 142.039 817.11 141.784C816.557 141.53 816.123 141.175 815.807 140.722C815.497 140.262 815.342 139.767 815.342 139.236H816.878C816.906 139.75 817.11 140.16 817.492 140.464C817.88 140.763 818.389 140.913 819.02 140.913C819.601 140.913 820.065 140.796 820.414 140.564C820.768 140.326 820.945 140.011 820.945 139.618ZM826.565 130.844V133.019H828.242V134.206H826.565V139.775C826.565 140.135 826.64 140.406 826.789 140.589C826.938 140.766 827.193 140.854 827.553 140.854C827.73 140.854 827.973 140.821 828.283 140.755V142C827.879 142.111 827.486 142.166 827.104 142.166C826.418 142.166 825.901 141.958 825.552 141.543C825.204 141.128 825.029 140.539 825.029 139.775V134.206H823.394V133.019H825.029V130.844H826.565ZM835.588 141.112C834.99 141.815 834.113 142.166 832.957 142.166C831.999 142.166 831.269 141.889 830.765 141.336C830.267 140.777 830.015 139.952 830.01 138.862V133.019H831.545V138.821C831.545 140.182 832.099 140.863 833.206 140.863C834.379 140.863 835.159 140.426 835.546 139.551V133.019H837.082V142H835.621L835.588 141.112ZM843.15 142.166C841.932 142.166 840.942 141.768 840.178 140.971C839.415 140.168 839.033 139.097 839.033 137.758V137.476C839.033 136.585 839.201 135.791 839.539 135.094C839.882 134.391 840.358 133.843 840.967 133.45C841.581 133.052 842.245 132.853 842.959 132.853C844.127 132.853 845.034 133.237 845.682 134.006C846.329 134.776 846.653 135.877 846.653 137.31V137.949H840.568C840.59 138.835 840.848 139.551 841.34 140.099C841.838 140.641 842.469 140.913 843.233 140.913C843.775 140.913 844.235 140.802 844.611 140.581C844.987 140.359 845.316 140.066 845.599 139.701L846.537 140.431C845.784 141.588 844.655 142.166 843.15 142.166ZM842.959 134.114C842.339 134.114 841.819 134.341 841.398 134.795C840.978 135.243 840.718 135.874 840.618 136.688H845.117V136.571C845.073 135.791 844.863 135.188 844.486 134.762C844.11 134.33 843.601 134.114 842.959 134.114Z" fill="white"/>
<path d="M104.964 126.613C103.597 126.22 102.601 125.738 101.976 125.168C101.356 124.593 101.046 123.885 101.046 123.043C101.046 122.092 101.425 121.306 102.183 120.686C102.947 120.061 103.937 119.748 105.155 119.748C105.985 119.748 106.724 119.909 107.371 120.229C108.024 120.55 108.528 120.993 108.882 121.558C109.242 122.122 109.421 122.739 109.421 123.409H107.819C107.819 122.678 107.587 122.105 107.122 121.69C106.657 121.27 106.001 121.06 105.155 121.06C104.369 121.06 103.755 121.234 103.312 121.583C102.875 121.926 102.656 122.404 102.656 123.019C102.656 123.511 102.864 123.929 103.279 124.272C103.699 124.61 104.41 124.919 105.412 125.202C106.419 125.484 107.205 125.797 107.77 126.14C108.34 126.477 108.76 126.873 109.031 127.327C109.308 127.78 109.446 128.314 109.446 128.929C109.446 129.908 109.064 130.694 108.301 131.286C107.537 131.873 106.516 132.166 105.238 132.166C104.408 132.166 103.633 132.008 102.914 131.693C102.194 131.372 101.638 130.935 101.245 130.381C100.858 129.828 100.664 129.2 100.664 128.497H102.266C102.266 129.228 102.535 129.806 103.071 130.232C103.614 130.653 104.336 130.863 105.238 130.863C106.079 130.863 106.724 130.691 107.172 130.348C107.62 130.005 107.844 129.537 107.844 128.945C107.844 128.353 107.637 127.897 107.222 127.576C106.807 127.249 106.054 126.928 104.964 126.613ZM113.339 120.844V123.019H115.016V124.206H113.339V129.775C113.339 130.135 113.414 130.406 113.563 130.589C113.713 130.766 113.967 130.854 114.327 130.854C114.504 130.854 114.748 130.821 115.058 130.755V132C114.654 132.111 114.261 132.166 113.879 132.166C113.193 132.166 112.675 131.958 112.327 131.543C111.978 131.128 111.804 130.539 111.804 129.775V124.206H110.168V123.019H111.804V120.844H113.339ZM122.362 131.112C121.765 131.815 120.888 132.166 119.731 132.166C118.774 132.166 118.043 131.889 117.54 131.336C117.042 130.777 116.79 129.952 116.784 128.862V123.019H118.32V128.821C118.32 130.182 118.873 130.863 119.98 130.863C121.153 130.863 121.933 130.426 122.321 129.551V123.019H123.856V132H122.396L122.362 131.112ZM129.924 132.166C128.707 132.166 127.716 131.768 126.953 130.971C126.189 130.168 125.807 129.097 125.807 127.758V127.476C125.807 126.585 125.976 125.791 126.313 125.094C126.657 124.391 127.132 123.843 127.741 123.45C128.355 123.052 129.02 122.853 129.733 122.853C130.901 122.853 131.809 123.237 132.456 124.006C133.104 124.776 133.427 125.877 133.427 127.31V127.949H127.343C127.365 128.835 127.622 129.551 128.115 130.099C128.613 130.641 129.244 130.913 130.007 130.913C130.55 130.913 131.009 130.802 131.385 130.581C131.762 130.359 132.091 130.066 132.373 129.701L133.311 130.431C132.558 131.588 131.43 132.166 129.924 132.166ZM129.733 124.114C129.114 124.114 128.593 124.341 128.173 124.795C127.752 125.243 127.492 125.874 127.393 126.688H131.892V126.571C131.847 125.791 131.637 125.188 131.261 124.762C130.884 124.33 130.375 124.114 129.733 124.114Z" fill="white"/>
<path d="M298.326 406.415C297.917 407.001 297.344 407.441 296.608 407.734C295.877 408.022 295.025 408.166 294.051 408.166C293.066 408.166 292.192 407.936 291.428 407.477C290.665 407.012 290.072 406.354 289.652 405.501C289.237 404.649 289.024 403.661 289.013 402.538V401.484C289.013 399.663 289.436 398.252 290.283 397.25C291.135 396.249 292.33 395.748 293.869 395.748C295.13 395.748 296.146 396.072 296.915 396.719C297.684 397.361 298.155 398.274 298.326 399.458H296.732C296.434 397.859 295.482 397.06 293.877 397.06C292.809 397.06 291.998 397.436 291.445 398.188C290.897 398.936 290.62 400.02 290.615 401.442V402.43C290.615 403.786 290.925 404.865 291.544 405.667C292.164 406.464 293.003 406.863 294.06 406.863C294.657 406.863 295.18 406.796 295.628 406.664C296.077 406.531 296.447 406.307 296.741 405.991V403.277H293.943V401.982H298.326V406.415ZM306.295 408C306.206 407.823 306.134 407.507 306.079 407.054C305.365 407.795 304.513 408.166 303.522 408.166C302.637 408.166 301.909 407.917 301.339 407.419C300.775 406.915 300.493 406.279 300.493 405.51C300.493 404.575 300.847 403.85 301.555 403.335C302.269 402.815 303.271 402.555 304.56 402.555H306.054V401.849C306.054 401.312 305.894 400.886 305.573 400.571C305.252 400.25 304.779 400.089 304.153 400.089C303.605 400.089 303.146 400.228 302.775 400.504C302.405 400.781 302.219 401.116 302.219 401.509H300.675C300.675 401.061 300.833 400.629 301.148 400.214C301.469 399.793 301.901 399.461 302.443 399.218C302.991 398.974 303.592 398.853 304.245 398.853C305.279 398.853 306.09 399.113 306.677 399.633C307.263 400.147 307.568 400.859 307.59 401.766V405.9C307.59 406.724 307.695 407.38 307.905 407.867V408H306.295ZM303.747 406.83C304.228 406.83 304.685 406.705 305.116 406.456C305.548 406.207 305.861 405.883 306.054 405.485V403.642H304.851C302.969 403.642 302.028 404.193 302.028 405.294C302.028 405.775 302.189 406.152 302.51 406.423C302.831 406.694 303.243 406.83 303.747 406.83ZM311.45 399.019L311.5 400.147C312.186 399.284 313.082 398.853 314.189 398.853C316.087 398.853 317.044 399.923 317.061 402.065V408H315.525V402.057C315.52 401.409 315.37 400.931 315.077 400.621C314.789 400.311 314.338 400.156 313.724 400.156C313.226 400.156 312.789 400.289 312.413 400.554C312.036 400.82 311.743 401.168 311.533 401.6V408H309.997V399.019H311.45ZM319.012 403.435C319.012 402.035 319.335 400.922 319.983 400.098C320.63 399.268 321.488 398.853 322.556 398.853C323.652 398.853 324.507 399.24 325.121 400.015L325.196 399.019H326.599V407.784C326.599 408.946 326.253 409.862 325.561 410.532C324.875 411.201 323.951 411.536 322.789 411.536C322.141 411.536 321.507 411.398 320.888 411.121C320.268 410.844 319.795 410.465 319.468 409.984L320.265 409.062C320.924 409.876 321.729 410.283 322.681 410.283C323.428 410.283 324.009 410.072 324.424 409.652C324.844 409.231 325.055 408.639 325.055 407.875V407.104C324.44 407.812 323.602 408.166 322.54 408.166C321.488 408.166 320.636 407.743 319.983 406.896C319.335 406.049 319.012 404.896 319.012 403.435ZM320.556 403.609C320.556 404.622 320.763 405.418 321.178 406C321.593 406.575 322.174 406.863 322.921 406.863C323.89 406.863 324.601 406.423 325.055 405.543V401.442C324.584 400.585 323.879 400.156 322.938 400.156C322.191 400.156 321.607 400.446 321.187 401.027C320.766 401.608 320.556 402.469 320.556 403.609Z" fill="white"/>
<path d="M1 29H450V250C422.519 250 407.111 250 379.63 250" stroke="white"/>
<path d="M231 357V250H308" stroke="white"/>
<path d="M231.5 354.5H176.5" stroke="white" stroke-width="3"/>
<path d="M2 354V454H230V412.706" stroke="white" stroke-width="3"/>
<path d="M129.5 355H1" stroke="white" stroke-width="3"/>
<path d="M1 355.5V28.5" stroke="white"/>
<path d="M230 355.5V380" stroke="white" stroke-width="3"/>
<path d="M232 354H300.842M341 354H408.695H450V455H408.695H341M232 455H295.978" stroke="white"/>
<path d="M428 29H909.499V254.263V331.854M909.499 331.854L910 457H700.282L699.782 393.426V331.854H768.792M909.499 331.854H805.5" stroke="white"/>
<path d="M910 250H817V275.895M817 299.632V332" stroke="white"/>
<path d="M741 250H530V286H741V250Z" fill="#E0E0E0" stroke="white"/>
<path d="M261 354V250H231V354H261Z" fill="#E0E0E0" stroke="white"/>
<path d="M387 455V441.433M449 354H387V372.09M449 372.09H418H387M387 372.09V389.677M387 389.677H449M387 389.677V407.766M449 407.766H387M387 407.766V425.353M387 425.353H449M387 425.353V441.433M449 441.433H387" stroke="white"/>
<path d="M387 353.5V335H448" stroke="white"/>
<path d="M513.038 332H699V456H450V354V332H483.77" stroke="white" stroke-width="3"/>
<path d="M852.009 300.19L852.242 301.784L852.582 300.348L854.973 291.914H856.317L858.65 300.348L858.982 301.809L859.239 300.182L861.115 291.914H862.717L859.787 304H858.334L855.844 295.193L855.653 294.271L855.462 295.193L852.881 304H851.428L848.506 291.914H850.1L852.009 300.19ZM877.601 300.165C877.451 301.443 876.978 302.431 876.181 303.128C875.39 303.82 874.336 304.166 873.019 304.166C871.591 304.166 870.445 303.654 869.582 302.63C868.724 301.607 868.295 300.237 868.295 298.521V297.359C868.295 296.236 868.495 295.248 868.893 294.396C869.297 293.544 869.867 292.891 870.603 292.437C871.339 291.978 872.191 291.748 873.16 291.748C874.444 291.748 875.473 292.108 876.248 292.827C877.022 293.541 877.473 294.532 877.601 295.799H875.999C875.86 294.836 875.559 294.139 875.094 293.707C874.634 293.275 873.99 293.06 873.16 293.06C872.141 293.06 871.342 293.436 870.761 294.188C870.185 294.941 869.897 296.012 869.897 297.401V298.571C869.897 299.883 870.171 300.926 870.719 301.701C871.267 302.475 872.034 302.863 873.019 302.863C873.904 302.863 874.582 302.664 875.052 302.265C875.528 301.861 875.844 301.161 875.999 300.165H877.601Z" fill="white"/>
<path d="M852.009 300.19L852.999 300.046L852.993 300.005L852.984 299.965L852.009 300.19ZM852.242 301.784L851.252 301.928L853.215 302.014L852.242 301.784ZM852.582 300.348L851.62 300.075L851.614 300.096L851.609 300.117L852.582 300.348ZM854.973 291.914V290.914H854.217L854.011 291.641L854.973 291.914ZM856.317 291.914L857.281 291.647L857.078 290.914H856.317V291.914ZM858.65 300.348L859.625 300.126L859.62 300.103L859.614 300.081L858.65 300.348ZM858.982 301.809L858.007 302.03L859.97 301.965L858.982 301.809ZM859.239 300.182L858.264 299.96L858.257 299.993L858.252 300.025L859.239 300.182ZM861.115 291.914V290.914H860.317L860.14 291.693L861.115 291.914ZM862.717 291.914L863.689 292.15L863.989 290.914H862.717V291.914ZM859.787 304V305H860.574L860.759 304.236L859.787 304ZM858.334 304L857.372 304.272L857.578 305H858.334V304ZM855.844 295.193L854.865 295.396L854.872 295.431L854.882 295.465L855.844 295.193ZM855.653 294.271L856.633 294.069H854.674L855.653 294.271ZM855.462 295.193L856.422 295.474L856.433 295.435L856.442 295.396L855.462 295.193ZM852.881 304V305H853.63L853.84 304.281L852.881 304ZM851.428 304L850.456 304.235L850.641 305H851.428V304ZM848.506 291.914V290.914H847.236L847.534 292.149L848.506 291.914ZM850.1 291.914L851.075 291.689L850.896 290.914H850.1V291.914ZM851.02 300.334L851.252 301.928L853.231 301.639L852.999 300.046L851.02 300.334ZM853.215 302.014L853.555 300.578L851.609 300.117L851.269 301.553L853.215 302.014ZM853.544 300.62L855.935 292.187L854.011 291.641L851.62 300.075L853.544 300.62ZM854.973 292.914H856.317V290.914H854.973V292.914ZM855.354 292.181L857.686 300.614L859.614 300.081L857.281 291.647L855.354 292.181ZM857.675 300.569L858.007 302.03L859.957 301.587L859.625 300.126L857.675 300.569ZM859.97 301.965L860.227 300.338L858.252 300.025L857.994 301.652L859.97 301.965ZM860.214 300.403L862.09 292.135L860.14 291.693L858.264 299.96L860.214 300.403ZM861.115 292.914H862.717V290.914H861.115V292.914ZM861.745 291.678L858.815 303.764L860.759 304.236L863.689 292.15L861.745 291.678ZM859.787 303H858.334V305H859.787V303ZM859.297 303.728L856.807 294.921L854.882 295.465L857.372 304.272L859.297 303.728ZM856.823 294.99L856.633 294.069L854.674 294.474L854.865 295.396L856.823 294.99ZM854.674 294.069L854.483 294.99L856.442 295.396L856.633 294.474L854.674 294.069ZM854.503 294.912L851.921 303.719L853.84 304.281L856.422 295.474L854.503 294.912ZM852.881 303H851.428V305H852.881V303ZM852.4 303.765L849.478 291.679L847.534 292.149L850.456 304.235L852.4 303.765ZM848.506 292.914H850.1V290.914H848.506V292.914ZM849.126 292.139L851.035 300.415L852.984 299.965L851.075 291.689L849.126 292.139ZM877.601 300.165L878.594 300.281L878.724 299.165H877.601V300.165ZM876.181 303.128L876.839 303.881L876.84 303.881L876.181 303.128ZM869.582 302.63L868.816 303.273L868.818 303.275L869.582 302.63ZM868.893 294.396L867.989 293.968L867.987 293.972L868.893 294.396ZM870.603 292.437L871.128 293.288L871.132 293.285L870.603 292.437ZM876.248 292.827L875.567 293.56L875.57 293.563L876.248 292.827ZM877.601 295.799V296.799H878.706L878.596 295.699L877.601 295.799ZM875.999 295.799L875.009 295.941L875.132 296.799H875.999V295.799ZM875.094 293.707L874.409 294.436L874.413 294.44L875.094 293.707ZM870.761 294.188L869.969 293.577L869.966 293.581L870.761 294.188ZM875.052 302.265L875.699 303.028L875.699 303.028L875.052 302.265ZM875.999 300.165V299.165H875.142L875.01 300.011L875.999 300.165ZM876.607 300.049C876.48 301.137 876.095 301.875 875.523 302.376L876.84 303.881C877.861 302.987 878.422 301.75 878.594 300.281L876.607 300.049ZM875.523 302.376C874.957 302.871 874.157 303.166 873.019 303.166V305.166C874.514 305.166 875.823 304.77 876.839 303.881L875.523 302.376ZM873.019 303.166C871.863 303.166 871.006 302.768 870.347 301.986L868.818 303.275C869.885 304.541 871.318 305.166 873.019 305.166V303.166ZM870.349 301.988C869.68 301.191 869.295 300.07 869.295 298.521H867.295C867.295 300.404 867.768 302.023 868.816 303.273L870.349 301.988ZM869.295 298.521V297.359H867.295V298.521H869.295ZM869.295 297.359C869.295 296.354 869.473 295.516 869.799 294.82L867.987 293.972C867.516 294.981 867.295 296.118 867.295 297.359H869.295ZM869.797 294.824C870.126 294.13 870.571 293.631 871.128 293.288L870.078 291.586C869.163 292.15 868.468 292.957 867.989 293.968L869.797 294.824ZM871.132 293.285C871.692 292.936 872.356 292.748 873.16 292.748V290.748C872.026 290.748 870.986 291.019 870.074 291.589L871.132 293.285ZM873.16 292.748C874.248 292.748 875.015 293.048 875.567 293.56L876.928 292.094C875.93 291.168 874.639 290.748 873.16 290.748V292.748ZM875.57 293.563C876.129 294.078 876.497 294.822 876.606 295.899L878.596 295.699C878.449 294.242 877.916 293.005 876.925 292.092L875.57 293.563ZM877.601 294.799H875.999V296.799H877.601V294.799ZM876.988 295.657C876.834 294.582 876.476 293.625 875.774 292.974L874.413 294.44C874.642 294.652 874.886 295.09 875.009 295.941L876.988 295.657ZM875.779 292.978C875.081 292.323 874.161 292.06 873.16 292.06V294.06C873.818 294.06 874.188 294.228 874.409 294.436L875.779 292.978ZM873.16 292.06C871.857 292.06 870.755 292.56 869.969 293.577L871.552 294.8C871.929 294.312 872.426 294.06 873.16 294.06V292.06ZM869.966 293.581C869.208 294.573 868.897 295.891 868.897 297.401H870.897C870.897 296.133 871.162 295.309 871.555 294.796L869.966 293.581ZM868.897 297.401V298.571H870.897V297.401H868.897ZM868.897 298.571C868.897 300.013 869.198 301.281 869.903 302.278L871.536 301.123C871.145 300.571 870.897 299.753 870.897 298.571H868.897ZM869.903 302.278C870.646 303.33 871.724 303.863 873.019 303.863V301.863C872.343 301.863 871.888 301.621 871.536 301.123L869.903 302.278ZM873.019 303.863C874.039 303.863 874.983 303.634 875.699 303.028L874.406 301.502C874.181 301.693 873.769 301.863 873.019 301.863V303.863ZM875.699 303.028C876.442 302.397 876.816 301.415 876.987 300.319L875.01 300.011C874.871 300.907 874.615 301.325 874.405 301.503L875.699 303.028ZM875.999 301.165H877.601V299.165H875.999V301.165Z" fill="white"/>
<path d="M822.009 400.19L822.242 401.784L822.582 400.348L824.973 391.914H826.317L828.65 400.348L828.982 401.809L829.239 400.182L831.115 391.914H832.717L829.787 404H828.334L825.844 395.193L825.653 394.271L825.462 395.193L822.881 404H821.428L818.506 391.914H820.1L822.009 400.19ZM847.601 400.165C847.451 401.443 846.978 402.431 846.181 403.128C845.39 403.82 844.336 404.166 843.019 404.166C841.591 404.166 840.445 403.654 839.582 402.63C838.724 401.607 838.295 400.237 838.295 398.521V397.359C838.295 396.236 838.495 395.248 838.893 394.396C839.297 393.544 839.867 392.891 840.603 392.437C841.339 391.978 842.191 391.748 843.16 391.748C844.444 391.748 845.473 392.108 846.248 392.827C847.022 393.541 847.473 394.532 847.601 395.799H845.999C845.86 394.836 845.559 394.139 845.094 393.707C844.634 393.275 843.99 393.06 843.16 393.06C842.141 393.06 841.342 393.436 840.761 394.188C840.185 394.941 839.897 396.012 839.897 397.401V398.571C839.897 399.883 840.171 400.926 840.719 401.701C841.267 402.475 842.034 402.863 843.019 402.863C843.904 402.863 844.582 402.664 845.052 402.265C845.528 401.861 845.844 401.161 845.999 400.165H847.601Z" fill="white"/>
<path d="M822.009 400.19L822.999 400.046L822.993 400.005L822.984 399.965L822.009 400.19ZM822.242 401.784L821.252 401.928L823.215 402.014L822.242 401.784ZM822.582 400.348L821.62 400.075L821.614 400.096L821.609 400.117L822.582 400.348ZM824.973 391.914V390.914H824.217L824.011 391.641L824.973 391.914ZM826.317 391.914L827.281 391.647L827.078 390.914H826.317V391.914ZM828.65 400.348L829.625 400.126L829.62 400.103L829.614 400.081L828.65 400.348ZM828.982 401.809L828.007 402.03L829.97 401.965L828.982 401.809ZM829.239 400.182L828.264 399.96L828.257 399.993L828.252 400.025L829.239 400.182ZM831.115 391.914V390.914H830.317L830.14 391.693L831.115 391.914ZM832.717 391.914L833.689 392.15L833.989 390.914H832.717V391.914ZM829.787 404V405H830.574L830.759 404.236L829.787 404ZM828.334 404L827.372 404.272L827.578 405H828.334V404ZM825.844 395.193L824.865 395.396L824.872 395.431L824.882 395.465L825.844 395.193ZM825.653 394.271L826.633 394.069H824.674L825.653 394.271ZM825.462 395.193L826.422 395.474L826.433 395.435L826.442 395.396L825.462 395.193ZM822.881 404V405H823.63L823.84 404.281L822.881 404ZM821.428 404L820.456 404.235L820.641 405H821.428V404ZM818.506 391.914V390.914H817.236L817.534 392.149L818.506 391.914ZM820.1 391.914L821.075 391.689L820.896 390.914H820.1V391.914ZM821.02 400.334L821.252 401.928L823.231 401.639L822.999 400.046L821.02 400.334ZM823.215 402.014L823.555 400.578L821.609 400.117L821.269 401.553L823.215 402.014ZM823.544 400.62L825.935 392.187L824.011 391.641L821.62 400.075L823.544 400.62ZM824.973 392.914H826.317V390.914H824.973V392.914ZM825.354 392.181L827.686 400.614L829.614 400.081L827.281 391.647L825.354 392.181ZM827.675 400.569L828.007 402.03L829.957 401.587L829.625 400.126L827.675 400.569ZM829.97 401.965L830.227 400.338L828.252 400.025L827.994 401.652L829.97 401.965ZM830.214 400.403L832.09 392.135L830.14 391.693L828.264 399.96L830.214 400.403ZM831.115 392.914H832.717V390.914H831.115V392.914ZM831.745 391.678L828.815 403.764L830.759 404.236L833.689 392.15L831.745 391.678ZM829.787 403H828.334V405H829.787V403ZM829.297 403.728L826.807 394.921L824.882 395.465L827.372 404.272L829.297 403.728ZM826.823 394.99L826.633 394.069L824.674 394.474L824.865 395.396L826.823 394.99ZM824.674 394.069L824.483 394.99L826.442 395.396L826.633 394.474L824.674 394.069ZM824.503 394.912L821.921 403.719L823.84 404.281L826.422 395.474L824.503 394.912ZM822.881 403H821.428V405H822.881V403ZM822.4 403.765L819.478 391.679L817.534 392.149L820.456 404.235L822.4 403.765ZM818.506 392.914H820.1V390.914H818.506V392.914ZM819.126 392.139L821.035 400.415L822.984 399.965L821.075 391.689L819.126 392.139ZM847.601 400.165L848.594 400.281L848.724 399.165H847.601V400.165ZM846.181 403.128L846.839 403.881L846.84 403.881L846.181 403.128ZM839.582 402.63L838.816 403.273L838.818 403.275L839.582 402.63ZM838.893 394.396L837.989 393.968L837.987 393.972L838.893 394.396ZM840.603 392.437L841.128 393.288L841.132 393.285L840.603 392.437ZM846.248 392.827L845.567 393.56L845.57 393.563L846.248 392.827ZM847.601 395.799V396.799H848.706L848.596 395.699L847.601 395.799ZM845.999 395.799L845.009 395.941L845.132 396.799H845.999V395.799ZM845.094 393.707L844.409 394.436L844.413 394.44L845.094 393.707ZM840.761 394.188L839.969 393.577L839.966 393.581L840.761 394.188ZM845.052 402.265L845.699 403.028L845.699 403.028L845.052 402.265ZM845.999 400.165V399.165H845.142L845.01 400.011L845.999 400.165ZM846.607 400.049C846.48 401.137 846.095 401.875 845.523 402.376L846.84 403.881C847.861 402.987 848.422 401.75 848.594 400.281L846.607 400.049ZM845.523 402.376C844.957 402.871 844.157 403.166 843.019 403.166V405.166C844.514 405.166 845.823 404.77 846.839 403.881L845.523 402.376ZM843.019 403.166C841.863 403.166 841.006 402.768 840.347 401.986L838.818 403.275C839.885 404.541 841.318 405.166 843.019 405.166V403.166ZM840.349 401.988C839.68 401.191 839.295 400.07 839.295 398.521H837.295C837.295 400.404 837.768 402.023 838.816 403.273L840.349 401.988ZM839.295 398.521V397.359H837.295V398.521H839.295ZM839.295 397.359C839.295 396.354 839.473 395.516 839.799 394.82L837.987 393.972C837.516 394.981 837.295 396.118 837.295 397.359H839.295ZM839.797 394.824C840.126 394.13 840.571 393.631 841.128 393.288L840.078 391.586C839.163 392.15 838.468 392.957 837.989 393.968L839.797 394.824ZM841.132 393.285C841.692 392.936 842.356 392.748 843.16 392.748V390.748C842.026 390.748 840.986 391.019 840.074 391.589L841.132 393.285ZM843.16 392.748C844.248 392.748 845.015 393.048 845.567 393.56L846.928 392.094C845.93 391.168 844.639 390.748 843.16 390.748V392.748ZM845.57 393.563C846.129 394.078 846.497 394.822 846.606 395.899L848.596 395.699C848.449 394.242 847.916 393.005 846.925 392.092L845.57 393.563ZM847.601 394.799H845.999V396.799H847.601V394.799ZM846.988 395.657C846.834 394.582 846.476 393.625 845.774 392.974L844.413 394.44C844.642 394.652 844.886 395.09 845.009 395.941L846.988 395.657ZM845.779 392.978C845.081 392.323 844.161 392.06 843.16 392.06V394.06C843.818 394.06 844.188 394.228 844.409 394.436L845.779 392.978ZM843.16 392.06C841.857 392.06 840.755 392.56 839.969 393.577L841.552 394.8C841.929 394.312 842.426 394.06 843.16 394.06V392.06ZM839.966 393.581C839.208 394.573 838.897 395.891 838.897 397.401H840.897C840.897 396.133 841.162 395.309 841.555 394.796L839.966 393.581ZM838.897 397.401V398.571H840.897V397.401H838.897ZM838.897 398.571C838.897 400.013 839.198 401.281 839.903 402.278L841.536 401.123C841.145 400.571 840.897 399.753 840.897 398.571H838.897ZM839.903 402.278C840.646 403.33 841.724 403.863 843.019 403.863V401.863C842.343 401.863 841.888 401.621 841.536 401.123L839.903 402.278ZM843.019 403.863C844.039 403.863 844.983 403.634 845.699 403.028L844.406 401.502C844.181 401.693 843.769 401.863 843.019 401.863V403.863ZM845.699 403.028C846.442 402.397 846.816 401.415 846.987 400.319L845.01 400.011C844.871 400.907 844.615 401.325 844.405 401.503L845.699 403.028ZM845.999 401.165H847.601V399.165H845.999V401.165Z" fill="white"/>
<path d="M764.702 404V391.914H768.113C769.165 391.914 770.094 392.146 770.902 392.611C771.71 393.076 772.333 393.737 772.77 394.595C773.213 395.453 773.437 396.438 773.442 397.55V398.322C773.442 399.462 773.221 400.461 772.778 401.319C772.341 402.177 771.713 402.835 770.894 403.294C770.081 403.754 769.132 403.989 768.047 404H764.702ZM766.295 393.226V402.697H767.972C769.201 402.697 770.155 402.315 770.836 401.551C771.522 400.788 771.865 399.7 771.865 398.289V397.583C771.865 396.211 771.542 395.146 770.894 394.388C770.252 393.624 769.339 393.237 768.155 393.226H766.295ZM784.964 391.914V400.132C784.958 401.272 784.599 402.204 783.885 402.929C783.176 403.654 782.214 404.061 780.996 404.149L780.573 404.166C779.25 404.166 778.196 403.809 777.41 403.095C776.624 402.381 776.226 401.399 776.215 400.148V391.914H777.792V400.099C777.792 400.973 778.033 401.654 778.514 402.141C778.996 402.622 779.682 402.863 780.573 402.863C781.475 402.863 782.164 402.622 782.64 402.141C783.121 401.659 783.362 400.981 783.362 400.107V391.914H784.964ZM791.638 398.613C790.271 398.22 789.275 397.738 788.649 397.168C788.03 396.593 787.72 395.885 787.72 395.043C787.72 394.092 788.099 393.306 788.857 392.686C789.621 392.061 790.611 391.748 791.829 391.748C792.659 391.748 793.397 391.909 794.045 392.229C794.698 392.55 795.201 392.993 795.556 393.558C795.915 394.122 796.095 394.739 796.095 395.409H794.493C794.493 394.678 794.261 394.105 793.796 393.69C793.331 393.27 792.675 393.06 791.829 393.06C791.043 393.06 790.429 393.234 789.986 393.583C789.549 393.926 789.33 394.404 789.33 395.019C789.33 395.511 789.538 395.929 789.953 396.272C790.373 396.61 791.084 396.919 792.086 397.202C793.093 397.484 793.879 397.797 794.443 398.14C795.013 398.477 795.434 398.873 795.705 399.327C795.982 399.78 796.12 400.314 796.12 400.929C796.12 401.908 795.738 402.694 794.975 403.286C794.211 403.873 793.19 404.166 791.912 404.166C791.082 404.166 790.307 404.008 789.587 403.693C788.868 403.372 788.312 402.935 787.919 402.381C787.532 401.828 787.338 401.2 787.338 400.497H788.94C788.94 401.228 789.208 401.806 789.745 402.232C790.287 402.653 791.01 402.863 791.912 402.863C792.753 402.863 793.397 402.691 793.846 402.348C794.294 402.005 794.518 401.537 794.518 400.945C794.518 400.353 794.311 399.897 793.896 399.576C793.48 399.249 792.728 398.928 791.638 398.613ZM803.832 391.914H805.434V400.472C805.434 401.629 805.085 402.534 804.388 403.187C803.696 403.84 802.772 404.166 801.615 404.166C800.414 404.166 799.479 403.859 798.81 403.245C798.14 402.63 797.805 401.77 797.805 400.663H799.399C799.399 401.355 799.587 401.894 799.963 402.282C800.345 402.669 800.896 402.863 801.615 402.863C802.274 402.863 802.805 402.655 803.209 402.24C803.618 401.825 803.826 401.244 803.832 400.497V391.914ZM808.513 405.038H807.193L812.24 391.914H813.552L808.513 405.038Z" fill="white"/>
<rect width="106" height="35" transform="translate(10 412)" fill="white"/>
<rect x="10.5" y="412.5" width="105" height="34" fill="#D3F4FC" stroke="black"/>
<rect x="15.3672" y="417.283" width="12.0759" height="23.7736" fill="#C4C4C4"/>
<rect x="32.8105" y="417.283" width="76.481" height="23.7736" fill="#C4C4C4"/>
<path d="M470.622 436.801L471.39 436.814C471.732 436.81 472.052 436.748 472.348 436.63C472.649 436.507 472.896 436.325 473.091 436.084C473.29 435.843 473.408 435.54 473.446 435.176C473.48 434.863 473.455 434.59 473.37 434.357C473.285 434.12 473.142 433.934 472.938 433.799C472.735 433.663 472.471 433.591 472.145 433.583C471.815 433.579 471.519 433.642 471.256 433.773C470.998 433.905 470.785 434.091 470.615 434.332C470.45 434.573 470.342 434.853 470.292 435.17L469.155 435.176C469.206 434.656 469.375 434.203 469.663 433.818C469.955 433.433 470.323 433.137 470.768 432.929C471.212 432.718 471.69 432.616 472.202 432.625C472.71 432.633 473.152 432.745 473.529 432.961C473.905 433.173 474.189 433.471 474.379 433.856C474.57 434.237 474.646 434.685 474.608 435.202C474.578 435.587 474.468 435.923 474.278 436.211C474.087 436.499 473.844 436.74 473.548 436.935C473.256 437.129 472.936 437.275 472.589 437.373C472.242 437.47 471.897 437.519 471.555 437.519L470.507 437.512L470.622 436.801ZM470.469 437.766L470.583 437.062L471.485 437.068C471.849 437.076 472.192 437.127 472.513 437.22C472.839 437.313 473.123 437.453 473.364 437.639C473.609 437.821 473.795 438.056 473.922 438.344C474.049 438.632 474.098 438.976 474.068 439.378C474.035 439.802 473.929 440.185 473.751 440.527C473.577 440.87 473.347 441.162 473.059 441.403C472.776 441.645 472.45 441.829 472.082 441.956C471.718 442.078 471.326 442.135 470.907 442.127C470.526 442.118 470.177 442.053 469.86 441.93C469.542 441.807 469.267 441.636 469.035 441.416C468.806 441.192 468.633 440.923 468.514 440.61C468.396 440.292 468.345 439.939 468.362 439.55L469.504 439.556C469.483 439.874 469.528 440.151 469.638 440.388C469.748 440.625 469.913 440.811 470.133 440.946C470.357 441.082 470.632 441.154 470.958 441.162C471.322 441.171 471.646 441.103 471.929 440.959C472.213 440.815 472.439 440.61 472.608 440.343C472.782 440.077 472.886 439.761 472.919 439.397C472.958 439.042 472.913 438.746 472.786 438.509C472.663 438.272 472.477 438.092 472.228 437.969C471.982 437.847 471.69 437.781 471.352 437.772L470.469 437.766ZM482.727 440.14C482.765 439.878 482.716 439.673 482.581 439.524C482.449 439.376 482.276 439.264 482.06 439.188C481.848 439.108 481.641 439.042 481.438 438.991C481.184 438.928 480.928 438.849 480.67 438.756C480.412 438.663 480.175 438.545 479.959 438.401C479.747 438.253 479.578 438.071 479.451 437.855C479.328 437.635 479.273 437.368 479.286 437.055C479.303 436.717 479.392 436.418 479.553 436.16C479.718 435.902 479.929 435.686 480.188 435.513C480.45 435.339 480.736 435.21 481.044 435.125C481.353 435.041 481.66 435.001 481.965 435.005C482.396 435.013 482.788 435.102 483.139 435.271C483.495 435.441 483.776 435.684 483.983 436.001C484.191 436.319 484.288 436.704 484.275 437.157L483.139 437.15C483.148 436.909 483.099 436.702 482.993 436.528C482.887 436.355 482.741 436.222 482.555 436.128C482.369 436.031 482.157 435.98 481.92 435.976C481.696 435.972 481.476 436.008 481.26 436.084C481.044 436.156 480.86 436.27 480.708 436.427C480.556 436.579 480.463 436.778 480.429 437.023C480.403 437.205 480.431 437.356 480.511 437.474C480.592 437.588 480.702 437.681 480.841 437.753C480.985 437.821 481.135 437.878 481.292 437.925C481.453 437.967 481.599 438.005 481.73 438.039C482.077 438.136 482.42 438.259 482.758 438.407C483.097 438.555 483.372 438.761 483.583 439.023C483.795 439.281 483.89 439.622 483.869 440.045C483.852 440.405 483.757 440.718 483.583 440.984C483.414 441.247 483.194 441.465 482.923 441.638C482.657 441.807 482.363 441.932 482.041 442.013C481.719 442.093 481.398 442.131 481.076 442.127C480.632 442.118 480.217 442.028 479.832 441.854C479.451 441.676 479.146 441.422 478.918 441.092C478.689 440.758 478.582 440.352 478.594 439.874L479.743 439.88C479.743 440.155 479.8 440.388 479.915 440.578C480.033 440.764 480.196 440.906 480.403 441.003C480.611 441.101 480.848 441.152 481.114 441.156C481.339 441.16 481.567 441.13 481.8 441.067C482.037 441.003 482.24 440.898 482.409 440.75C482.583 440.597 482.688 440.394 482.727 440.14ZM485.297 438.68L485.316 438.534C485.367 438.073 485.481 437.629 485.659 437.201C485.841 436.774 486.08 436.393 486.376 436.059C486.673 435.724 487.024 435.462 487.43 435.271C487.836 435.081 488.289 434.992 488.789 435.005C489.271 435.013 489.684 435.117 490.026 435.316C490.373 435.515 490.653 435.779 490.864 436.109C491.08 436.435 491.23 436.803 491.315 437.214C491.4 437.624 491.421 438.048 491.378 438.483L491.366 438.629C491.311 439.091 491.192 439.533 491.01 439.956C490.828 440.379 490.587 440.756 490.287 441.086C489.99 441.416 489.639 441.676 489.233 441.867C488.827 442.053 488.376 442.14 487.881 442.127C487.403 442.118 486.99 442.017 486.643 441.822C486.3 441.623 486.023 441.361 485.812 441.035C485.6 440.709 485.452 440.343 485.367 439.937C485.283 439.531 485.259 439.112 485.297 438.68ZM486.459 438.534L486.446 438.687C486.417 438.953 486.415 439.23 486.44 439.518C486.47 439.806 486.537 440.072 486.643 440.318C486.753 440.563 486.912 440.764 487.119 440.921C487.326 441.077 487.595 441.16 487.925 441.168C488.277 441.177 488.585 441.109 488.852 440.965C489.119 440.817 489.345 440.618 489.531 440.369C489.722 440.119 489.872 439.842 489.982 439.537C490.096 439.232 490.172 438.93 490.21 438.629L490.223 438.483C490.253 438.217 490.253 437.94 490.223 437.652C490.198 437.36 490.13 437.089 490.02 436.839C489.914 436.585 489.758 436.38 489.55 436.224C489.343 436.063 489.074 435.978 488.744 435.97C488.393 435.957 488.082 436.027 487.811 436.179C487.544 436.327 487.318 436.528 487.132 436.782C486.946 437.036 486.795 437.318 486.681 437.626C486.571 437.931 486.497 438.234 486.459 438.534ZM494.362 440.883L497.066 435.132H498.278L494.806 442H494L494.362 440.883ZM493.727 435.132L494.705 441.029L494.673 442H493.937L492.591 435.132H493.727ZM501.021 442.127C500.551 442.118 500.142 442.025 499.795 441.848C499.453 441.666 499.171 441.422 498.951 441.118C498.735 440.809 498.581 440.458 498.488 440.064C498.395 439.67 498.367 439.258 498.405 438.826L498.431 438.553C498.473 438.113 498.581 437.681 498.754 437.258C498.928 436.831 499.159 436.446 499.446 436.103C499.738 435.76 500.081 435.489 500.475 435.291C500.872 435.087 501.312 434.992 501.795 435.005C502.273 435.013 502.671 435.115 502.988 435.31C503.306 435.504 503.553 435.762 503.731 436.084C503.913 436.401 504.031 436.759 504.086 437.157C504.141 437.55 504.146 437.954 504.099 438.369L504.029 438.896H499.046L499.199 437.938L503.001 437.944L503.02 437.842C503.062 437.538 503.045 437.243 502.969 436.96C502.893 436.676 502.753 436.444 502.55 436.262C502.351 436.076 502.083 435.978 501.744 435.97C501.393 435.957 501.088 436.029 500.83 436.186C500.572 436.338 500.356 436.545 500.183 436.808C500.009 437.066 499.872 437.349 499.77 437.658C499.673 437.963 499.605 438.261 499.567 438.553L499.542 438.82C499.516 439.091 499.525 439.364 499.567 439.639C499.609 439.914 499.69 440.166 499.808 440.394C499.931 440.618 500.1 440.802 500.316 440.946C500.532 441.086 500.798 441.16 501.116 441.168C501.501 441.177 501.846 441.094 502.15 440.921C502.459 440.743 502.741 440.519 502.995 440.248L503.648 440.807C503.45 441.099 503.213 441.344 502.938 441.543C502.662 441.742 502.362 441.89 502.036 441.987C501.71 442.085 501.372 442.131 501.021 442.127ZM506.905 436.522L505.496 444.641H504.34L505.991 435.132H507.044L506.905 436.522ZM511.037 438.471L511.024 438.604C510.969 439.019 510.868 439.438 510.72 439.861C510.576 440.28 510.379 440.663 510.129 441.01C509.88 441.357 509.573 441.634 509.209 441.841C508.849 442.049 508.426 442.146 507.939 442.133C507.512 442.125 507.146 442.032 506.841 441.854C506.537 441.672 506.291 441.433 506.105 441.137C505.919 440.836 505.785 440.502 505.705 440.134C505.629 439.761 505.604 439.381 505.629 438.991L505.718 438.287C505.79 437.872 505.91 437.468 506.08 437.074C506.253 436.676 506.473 436.319 506.74 436.001C507.006 435.684 507.322 435.437 507.686 435.259C508.054 435.077 508.471 434.992 508.936 435.005C509.406 435.018 509.787 435.132 510.079 435.348C510.375 435.559 510.599 435.836 510.751 436.179C510.908 436.518 511.005 436.888 511.043 437.29C511.082 437.688 511.079 438.081 511.037 438.471ZM509.869 438.598L509.888 438.458C509.918 438.204 509.924 437.935 509.907 437.652C509.895 437.368 509.842 437.104 509.749 436.858C509.66 436.609 509.518 436.403 509.323 436.243C509.133 436.082 508.873 435.997 508.542 435.989C508.28 435.98 508.03 436.025 507.793 436.122C507.561 436.215 507.349 436.348 507.159 436.522C506.968 436.691 506.805 436.888 506.67 437.112C506.535 437.332 506.435 437.565 506.372 437.811L506.099 439.467C506.094 439.768 506.16 440.047 506.295 440.305C506.431 440.559 506.615 440.764 506.848 440.921C507.085 441.077 507.353 441.16 507.654 441.168C508.005 441.177 508.31 441.107 508.568 440.959C508.83 440.807 509.05 440.604 509.228 440.35C509.406 440.091 509.548 439.81 509.653 439.505C509.759 439.196 509.831 438.894 509.869 438.598ZM514.827 432.25L513.132 442H511.983L513.671 432.25H514.827ZM519.111 440.826L519.683 437.277C519.712 437.015 519.687 436.784 519.606 436.585C519.53 436.387 519.401 436.232 519.219 436.122C519.042 436.012 518.817 435.953 518.546 435.944C518.309 435.94 518.077 435.978 517.848 436.059C517.624 436.139 517.429 436.26 517.264 436.42C517.099 436.581 516.991 436.784 516.94 437.03L515.798 437.036C515.827 436.693 515.935 436.395 516.122 436.141C516.308 435.883 516.541 435.669 516.82 435.5C517.099 435.326 517.4 435.2 517.721 435.119C518.043 435.035 518.356 434.994 518.661 434.999C519.122 435.007 519.522 435.106 519.86 435.297C520.203 435.483 520.461 435.745 520.635 436.084C520.808 436.423 520.872 436.829 520.825 437.303L520.298 440.502C520.26 440.735 520.237 440.97 520.229 441.207C520.224 441.439 520.252 441.668 520.311 441.892L520.298 442L519.137 442.006C519.09 441.812 519.067 441.615 519.067 441.416C519.071 441.217 519.086 441.02 519.111 440.826ZM519.816 437.836L519.683 438.661L518.597 438.655C518.369 438.655 518.127 438.672 517.874 438.706C517.62 438.739 517.378 438.803 517.15 438.896C516.921 438.989 516.729 439.125 516.572 439.302C516.416 439.476 516.32 439.702 516.287 439.981C516.261 440.21 516.289 440.409 516.369 440.578C516.454 440.743 516.581 440.872 516.75 440.965C516.919 441.058 517.116 441.107 517.34 441.111C517.632 441.116 517.92 441.058 518.204 440.94C518.487 440.821 518.735 440.652 518.946 440.432C519.158 440.212 519.304 439.958 519.384 439.67L519.803 440.235C519.723 440.515 519.592 440.773 519.41 441.01C519.228 441.243 519.012 441.444 518.762 441.613C518.517 441.782 518.252 441.913 517.969 442.006C517.685 442.099 517.402 442.144 517.118 442.14C516.733 442.131 516.384 442.044 516.071 441.879C515.762 441.714 515.516 441.484 515.334 441.188C515.157 440.887 515.081 440.538 515.106 440.14C515.131 439.704 515.246 439.338 515.449 439.042C515.652 438.746 515.912 438.509 516.229 438.331C516.551 438.153 516.902 438.026 517.283 437.95C517.664 437.87 518.041 437.83 518.413 437.83L519.816 437.836ZM526.068 440.14C526.106 439.878 526.058 439.673 525.922 439.524C525.791 439.376 525.618 439.264 525.402 439.188C525.19 439.108 524.983 439.042 524.78 438.991C524.526 438.928 524.27 438.849 524.012 438.756C523.754 438.663 523.517 438.545 523.301 438.401C523.089 438.253 522.92 438.071 522.793 437.855C522.67 437.635 522.615 437.368 522.628 437.055C522.645 436.717 522.734 436.418 522.895 436.16C523.06 435.902 523.271 435.686 523.529 435.513C523.792 435.339 524.077 435.21 524.386 435.125C524.695 435.041 525.002 435.001 525.307 435.005C525.738 435.013 526.13 435.102 526.481 435.271C526.836 435.441 527.118 435.684 527.325 436.001C527.533 436.319 527.63 436.704 527.617 437.157L526.481 437.15C526.489 436.909 526.441 436.702 526.335 436.528C526.229 436.355 526.083 436.222 525.897 436.128C525.711 436.031 525.499 435.98 525.262 435.976C525.038 435.972 524.818 436.008 524.602 436.084C524.386 436.156 524.202 436.27 524.05 436.427C523.897 436.579 523.804 436.778 523.771 437.023C523.745 437.205 523.773 437.356 523.853 437.474C523.933 437.588 524.043 437.681 524.183 437.753C524.327 437.821 524.477 437.878 524.634 437.925C524.795 437.967 524.941 438.005 525.072 438.039C525.419 438.136 525.762 438.259 526.1 438.407C526.439 438.555 526.714 438.761 526.925 439.023C527.137 439.281 527.232 439.622 527.211 440.045C527.194 440.405 527.099 440.718 526.925 440.984C526.756 441.247 526.536 441.465 526.265 441.638C525.999 441.807 525.704 441.932 525.383 442.013C525.061 442.093 524.74 442.131 524.418 442.127C523.974 442.118 523.559 442.028 523.174 441.854C522.793 441.676 522.488 441.422 522.26 441.092C522.031 440.758 521.923 440.352 521.936 439.874L523.085 439.88C523.085 440.155 523.142 440.388 523.256 440.578C523.375 440.764 523.538 440.906 523.745 441.003C523.952 441.101 524.189 441.152 524.456 441.156C524.68 441.16 524.909 441.13 525.142 441.067C525.379 441.003 525.582 440.898 525.751 440.75C525.924 440.597 526.03 440.394 526.068 440.14ZM532.581 440.14C532.619 439.878 532.57 439.673 532.435 439.524C532.304 439.376 532.13 439.264 531.915 439.188C531.703 439.108 531.496 439.042 531.292 438.991C531.039 438.928 530.783 438.849 530.524 438.756C530.266 438.663 530.029 438.545 529.813 438.401C529.602 438.253 529.433 438.071 529.306 437.855C529.183 437.635 529.128 437.368 529.141 437.055C529.158 436.717 529.246 436.418 529.407 436.16C529.572 435.902 529.784 435.686 530.042 435.513C530.304 435.339 530.59 435.21 530.899 435.125C531.208 435.041 531.515 435.001 531.819 435.005C532.251 435.013 532.642 435.102 532.994 435.271C533.349 435.441 533.631 435.684 533.838 436.001C534.045 436.319 534.143 436.704 534.13 437.157L532.994 437.15C533.002 436.909 532.953 436.702 532.848 436.528C532.742 436.355 532.596 436.222 532.41 436.128C532.223 436.031 532.012 435.98 531.775 435.976C531.551 435.972 531.331 436.008 531.115 436.084C530.899 436.156 530.715 436.27 530.562 436.427C530.41 436.579 530.317 436.778 530.283 437.023C530.258 437.205 530.285 437.356 530.366 437.474C530.446 437.588 530.556 437.681 530.696 437.753C530.84 437.821 530.99 437.878 531.146 437.925C531.307 437.967 531.453 438.005 531.584 438.039C531.931 438.136 532.274 438.259 532.613 438.407C532.951 438.555 533.226 438.761 533.438 439.023C533.65 439.281 533.745 439.622 533.724 440.045C533.707 440.405 533.611 440.718 533.438 440.984C533.269 441.247 533.049 441.465 532.778 441.638C532.511 441.807 532.217 441.932 531.896 442.013C531.574 442.093 531.252 442.131 530.931 442.127C530.486 442.118 530.072 442.028 529.687 441.854C529.306 441.676 529.001 441.422 528.772 441.092C528.544 440.758 528.436 440.352 528.449 439.874L529.598 439.88C529.598 440.155 529.655 440.388 529.769 440.578C529.888 440.764 530.05 440.906 530.258 441.003C530.465 441.101 530.702 441.152 530.969 441.156C531.193 441.16 531.422 441.13 531.654 441.067C531.891 441.003 532.094 440.898 532.264 440.75C532.437 440.597 532.543 440.394 532.581 440.14ZM537.761 442.127C537.291 442.118 536.883 442.025 536.536 441.848C536.193 441.666 535.911 441.422 535.691 441.118C535.476 440.809 535.321 440.458 535.228 440.064C535.135 439.67 535.107 439.258 535.146 438.826L535.171 438.553C535.213 438.113 535.321 437.681 535.495 437.258C535.668 436.831 535.899 436.446 536.187 436.103C536.479 435.76 536.821 435.489 537.215 435.291C537.613 435.087 538.053 434.992 538.535 435.005C539.013 435.013 539.411 435.115 539.729 435.31C540.046 435.504 540.293 435.762 540.471 436.084C540.653 436.401 540.772 436.759 540.827 437.157C540.882 437.55 540.886 437.954 540.839 438.369L540.77 438.896H535.787L535.939 437.938L539.741 437.944L539.76 437.842C539.803 437.538 539.786 437.243 539.709 436.96C539.633 436.676 539.494 436.444 539.291 436.262C539.092 436.076 538.823 435.978 538.484 435.97C538.133 435.957 537.828 436.029 537.57 436.186C537.312 436.338 537.096 436.545 536.923 436.808C536.749 437.066 536.612 437.349 536.51 437.658C536.413 437.963 536.345 438.261 536.307 438.553L536.282 438.82C536.256 439.091 536.265 439.364 536.307 439.639C536.349 439.914 536.43 440.166 536.548 440.394C536.671 440.618 536.84 440.802 537.056 440.946C537.272 441.086 537.539 441.16 537.856 441.168C538.241 441.177 538.586 441.094 538.891 440.921C539.2 440.743 539.481 440.519 539.735 440.248L540.389 440.807C540.19 441.099 539.953 441.344 539.678 441.543C539.403 441.742 539.102 441.89 538.776 441.987C538.451 442.085 538.112 442.131 537.761 442.127ZM543.689 436.262L542.693 442H541.544L542.737 435.132H543.854L543.689 436.262ZM545.917 435.075L545.81 436.179C545.721 436.162 545.63 436.147 545.537 436.135C545.448 436.122 545.359 436.116 545.27 436.116C544.995 436.111 544.747 436.154 544.527 436.243C544.312 436.327 544.119 436.448 543.95 436.604C543.785 436.761 543.643 436.945 543.524 437.157C543.41 437.368 543.319 437.597 543.251 437.842L542.89 438.033C542.936 437.69 543.012 437.339 543.118 436.979C543.228 436.619 543.378 436.287 543.569 435.982C543.764 435.678 544.007 435.432 544.299 435.246C544.595 435.06 544.951 434.973 545.365 434.986C545.458 434.986 545.549 434.994 545.638 435.011C545.731 435.028 545.824 435.049 545.917 435.075Z" fill="white"/>
<path d="M141.183 434.035L141.03 435H135.152L135.292 434.105L138.707 430.779C138.94 430.546 139.187 430.296 139.45 430.03C139.712 429.763 139.943 429.478 140.142 429.173C140.34 428.868 140.463 428.54 140.51 428.189C140.544 427.901 140.516 427.639 140.427 427.402C140.338 427.161 140.192 426.968 139.989 426.824C139.786 426.676 139.532 426.598 139.228 426.589C138.834 426.577 138.493 426.651 138.206 426.812C137.918 426.972 137.685 427.197 137.507 427.484C137.334 427.772 137.22 428.1 137.165 428.468L136.035 428.475C136.09 427.899 136.263 427.396 136.555 426.964C136.851 426.532 137.234 426.2 137.704 425.967C138.174 425.73 138.696 425.618 139.272 425.631C139.75 425.639 140.18 425.741 140.561 425.936C140.941 426.126 141.233 426.401 141.437 426.761C141.644 427.12 141.724 427.552 141.678 428.056C141.652 428.386 141.57 428.703 141.43 429.008C141.291 429.308 141.117 429.598 140.91 429.877C140.707 430.153 140.486 430.413 140.25 430.658C140.013 430.904 139.78 431.134 139.551 431.35L136.727 434.035H141.183ZM149.727 433.14C149.765 432.878 149.716 432.673 149.581 432.524C149.449 432.376 149.276 432.264 149.06 432.188C148.848 432.108 148.641 432.042 148.438 431.991C148.184 431.928 147.928 431.849 147.67 431.756C147.412 431.663 147.175 431.545 146.959 431.401C146.747 431.253 146.578 431.071 146.451 430.855C146.328 430.635 146.273 430.368 146.286 430.055C146.303 429.717 146.392 429.418 146.553 429.16C146.718 428.902 146.929 428.686 147.188 428.513C147.45 428.339 147.736 428.21 148.044 428.125C148.353 428.041 148.66 428.001 148.965 428.005C149.396 428.013 149.788 428.102 150.139 428.271C150.495 428.441 150.776 428.684 150.983 429.001C151.191 429.319 151.288 429.704 151.275 430.157L150.139 430.15C150.148 429.909 150.099 429.702 149.993 429.528C149.887 429.355 149.741 429.222 149.555 429.128C149.369 429.031 149.157 428.98 148.92 428.976C148.696 428.972 148.476 429.008 148.26 429.084C148.044 429.156 147.86 429.27 147.708 429.427C147.556 429.579 147.463 429.778 147.429 430.023C147.403 430.205 147.431 430.356 147.511 430.474C147.592 430.588 147.702 430.681 147.841 430.753C147.985 430.821 148.135 430.878 148.292 430.925C148.453 430.967 148.599 431.005 148.73 431.039C149.077 431.136 149.42 431.259 149.758 431.407C150.097 431.555 150.372 431.761 150.583 432.023C150.795 432.281 150.89 432.622 150.869 433.045C150.852 433.405 150.757 433.718 150.583 433.984C150.414 434.247 150.194 434.465 149.923 434.638C149.657 434.807 149.363 434.932 149.041 435.013C148.719 435.093 148.398 435.131 148.076 435.127C147.632 435.118 147.217 435.028 146.832 434.854C146.451 434.676 146.146 434.422 145.918 434.092C145.689 433.758 145.582 433.352 145.594 432.874L146.743 432.88C146.743 433.155 146.8 433.388 146.915 433.578C147.033 433.764 147.196 433.906 147.403 434.003C147.611 434.101 147.848 434.152 148.114 434.156C148.339 434.16 148.567 434.13 148.8 434.067C149.037 434.003 149.24 433.898 149.409 433.75C149.583 433.597 149.688 433.394 149.727 433.14ZM152.297 431.68L152.316 431.534C152.367 431.073 152.481 430.629 152.659 430.201C152.841 429.774 153.08 429.393 153.376 429.059C153.673 428.724 154.024 428.462 154.43 428.271C154.836 428.081 155.289 427.992 155.789 428.005C156.271 428.013 156.684 428.117 157.026 428.316C157.373 428.515 157.653 428.779 157.864 429.109C158.08 429.435 158.23 429.803 158.315 430.214C158.4 430.624 158.421 431.048 158.378 431.483L158.366 431.629C158.311 432.091 158.192 432.533 158.01 432.956C157.828 433.379 157.587 433.756 157.287 434.086C156.99 434.416 156.639 434.676 156.233 434.867C155.827 435.053 155.376 435.14 154.881 435.127C154.403 435.118 153.99 435.017 153.643 434.822C153.3 434.623 153.023 434.361 152.812 434.035C152.6 433.709 152.452 433.343 152.367 432.937C152.283 432.531 152.259 432.112 152.297 431.68ZM153.459 431.534L153.446 431.687C153.417 431.953 153.415 432.23 153.44 432.518C153.47 432.806 153.537 433.072 153.643 433.318C153.753 433.563 153.912 433.764 154.119 433.921C154.326 434.077 154.595 434.16 154.925 434.168C155.277 434.177 155.585 434.109 155.852 433.965C156.119 433.817 156.345 433.618 156.531 433.369C156.722 433.119 156.872 432.842 156.982 432.537C157.096 432.232 157.172 431.93 157.21 431.629L157.223 431.483C157.253 431.217 157.253 430.94 157.223 430.652C157.198 430.36 157.13 430.089 157.02 429.839C156.914 429.585 156.758 429.38 156.55 429.224C156.343 429.063 156.074 428.978 155.744 428.97C155.393 428.957 155.082 429.027 154.811 429.179C154.544 429.327 154.318 429.528 154.132 429.782C153.946 430.036 153.795 430.318 153.681 430.626C153.571 430.931 153.497 431.234 153.459 431.534ZM161.362 433.883L164.066 428.132H165.278L161.806 435H161L161.362 433.883ZM160.727 428.132L161.705 434.029L161.673 435H160.937L159.591 428.132H160.727ZM168.021 435.127C167.551 435.118 167.142 435.025 166.795 434.848C166.453 434.666 166.171 434.422 165.951 434.118C165.735 433.809 165.581 433.458 165.488 433.064C165.395 432.67 165.367 432.258 165.405 431.826L165.431 431.553C165.473 431.113 165.581 430.681 165.754 430.258C165.928 429.831 166.159 429.446 166.446 429.103C166.738 428.76 167.081 428.489 167.475 428.291C167.872 428.087 168.312 427.992 168.795 428.005C169.273 428.013 169.671 428.115 169.988 428.31C170.306 428.504 170.553 428.762 170.731 429.084C170.913 429.401 171.031 429.759 171.086 430.157C171.141 430.55 171.146 430.954 171.099 431.369L171.029 431.896H166.046L166.199 430.938L170.001 430.944L170.02 430.842C170.062 430.538 170.045 430.243 169.969 429.96C169.893 429.676 169.753 429.444 169.55 429.262C169.351 429.076 169.083 428.978 168.744 428.97C168.393 428.957 168.088 429.029 167.83 429.186C167.572 429.338 167.356 429.545 167.183 429.808C167.009 430.066 166.872 430.349 166.77 430.658C166.673 430.963 166.605 431.261 166.567 431.553L166.542 431.82C166.516 432.091 166.525 432.364 166.567 432.639C166.609 432.914 166.69 433.166 166.808 433.394C166.931 433.618 167.1 433.802 167.316 433.946C167.532 434.086 167.798 434.16 168.116 434.168C168.501 434.177 168.846 434.094 169.15 433.921C169.459 433.743 169.741 433.519 169.995 433.248L170.648 433.807C170.45 434.099 170.213 434.344 169.938 434.543C169.662 434.742 169.362 434.89 169.036 434.987C168.71 435.085 168.372 435.131 168.021 435.127ZM173.905 429.522L172.496 437.641H171.34L172.991 428.132H174.044L173.905 429.522ZM178.037 431.471L178.024 431.604C177.969 432.019 177.868 432.438 177.72 432.861C177.576 433.28 177.379 433.663 177.129 434.01C176.88 434.357 176.573 434.634 176.209 434.841C175.849 435.049 175.426 435.146 174.939 435.133C174.512 435.125 174.146 435.032 173.841 434.854C173.537 434.672 173.291 434.433 173.105 434.137C172.919 433.836 172.785 433.502 172.705 433.134C172.629 432.761 172.604 432.381 172.629 431.991L172.718 431.287C172.79 430.872 172.91 430.468 173.08 430.074C173.253 429.676 173.473 429.319 173.74 429.001C174.006 428.684 174.322 428.437 174.686 428.259C175.054 428.077 175.471 427.992 175.936 428.005C176.406 428.018 176.787 428.132 177.079 428.348C177.375 428.559 177.599 428.836 177.751 429.179C177.908 429.518 178.005 429.888 178.043 430.29C178.082 430.688 178.079 431.081 178.037 431.471ZM176.869 431.598L176.888 431.458C176.918 431.204 176.924 430.935 176.907 430.652C176.895 430.368 176.842 430.104 176.749 429.858C176.66 429.609 176.518 429.403 176.323 429.243C176.133 429.082 175.873 428.997 175.542 428.989C175.28 428.98 175.03 429.025 174.793 429.122C174.561 429.215 174.349 429.348 174.159 429.522C173.968 429.691 173.805 429.888 173.67 430.112C173.535 430.332 173.435 430.565 173.372 430.811L173.099 432.467C173.094 432.768 173.16 433.047 173.295 433.305C173.431 433.559 173.615 433.764 173.848 433.921C174.085 434.077 174.353 434.16 174.654 434.168C175.005 434.177 175.31 434.107 175.568 433.959C175.83 433.807 176.05 433.604 176.228 433.35C176.406 433.091 176.548 432.81 176.653 432.505C176.759 432.196 176.831 431.894 176.869 431.598ZM181.827 425.25L180.132 435H178.983L180.671 425.25H181.827ZM186.111 433.826L186.683 430.277C186.712 430.015 186.687 429.784 186.606 429.585C186.53 429.387 186.401 429.232 186.219 429.122C186.042 429.012 185.817 428.953 185.546 428.944C185.309 428.94 185.077 428.978 184.848 429.059C184.624 429.139 184.429 429.26 184.264 429.42C184.099 429.581 183.991 429.784 183.94 430.03L182.798 430.036C182.827 429.693 182.935 429.395 183.122 429.141C183.308 428.883 183.541 428.669 183.82 428.5C184.099 428.326 184.4 428.2 184.721 428.119C185.043 428.035 185.356 427.994 185.661 427.999C186.122 428.007 186.522 428.106 186.86 428.297C187.203 428.483 187.461 428.745 187.635 429.084C187.808 429.423 187.872 429.829 187.825 430.303L187.298 433.502C187.26 433.735 187.237 433.97 187.229 434.207C187.224 434.439 187.252 434.668 187.311 434.892L187.298 435L186.137 435.006C186.09 434.812 186.067 434.615 186.067 434.416C186.071 434.217 186.086 434.02 186.111 433.826ZM186.816 430.836L186.683 431.661L185.597 431.655C185.369 431.655 185.127 431.672 184.874 431.706C184.62 431.739 184.378 431.803 184.15 431.896C183.921 431.989 183.729 432.125 183.572 432.302C183.416 432.476 183.32 432.702 183.287 432.981C183.261 433.21 183.289 433.409 183.369 433.578C183.454 433.743 183.581 433.872 183.75 433.965C183.919 434.058 184.116 434.107 184.34 434.111C184.632 434.116 184.92 434.058 185.204 433.94C185.487 433.821 185.735 433.652 185.946 433.432C186.158 433.212 186.304 432.958 186.384 432.67L186.803 433.235C186.723 433.515 186.592 433.773 186.41 434.01C186.228 434.243 186.012 434.444 185.762 434.613C185.517 434.782 185.252 434.913 184.969 435.006C184.685 435.099 184.402 435.144 184.118 435.14C183.733 435.131 183.384 435.044 183.071 434.879C182.762 434.714 182.516 434.484 182.334 434.188C182.157 433.887 182.081 433.538 182.106 433.14C182.131 432.704 182.246 432.338 182.449 432.042C182.652 431.746 182.912 431.509 183.229 431.331C183.551 431.153 183.902 431.026 184.283 430.95C184.664 430.87 185.041 430.83 185.413 430.83L186.816 430.836ZM193.068 433.14C193.106 432.878 193.058 432.673 192.922 432.524C192.791 432.376 192.618 432.264 192.402 432.188C192.19 432.108 191.983 432.042 191.78 431.991C191.526 431.928 191.27 431.849 191.012 431.756C190.754 431.663 190.517 431.545 190.301 431.401C190.089 431.253 189.92 431.071 189.793 430.855C189.67 430.635 189.615 430.368 189.628 430.055C189.645 429.717 189.734 429.418 189.895 429.16C190.06 428.902 190.271 428.686 190.529 428.513C190.792 428.339 191.077 428.21 191.386 428.125C191.695 428.041 192.002 428.001 192.307 428.005C192.738 428.013 193.13 428.102 193.481 428.271C193.836 428.441 194.118 428.684 194.325 429.001C194.533 429.319 194.63 429.704 194.617 430.157L193.481 430.15C193.489 429.909 193.441 429.702 193.335 429.528C193.229 429.355 193.083 429.222 192.897 429.128C192.711 429.031 192.499 428.98 192.262 428.976C192.038 428.972 191.818 429.008 191.602 429.084C191.386 429.156 191.202 429.27 191.05 429.427C190.897 429.579 190.804 429.778 190.771 430.023C190.745 430.205 190.773 430.356 190.853 430.474C190.933 430.588 191.043 430.681 191.183 430.753C191.327 430.821 191.477 430.878 191.634 430.925C191.795 430.967 191.941 431.005 192.072 431.039C192.419 431.136 192.762 431.259 193.1 431.407C193.439 431.555 193.714 431.761 193.925 432.023C194.137 432.281 194.232 432.622 194.211 433.045C194.194 433.405 194.099 433.718 193.925 433.984C193.756 434.247 193.536 434.465 193.265 434.638C192.999 434.807 192.704 434.932 192.383 435.013C192.061 435.093 191.74 435.131 191.418 435.127C190.974 435.118 190.559 435.028 190.174 434.854C189.793 434.676 189.488 434.422 189.26 434.092C189.031 433.758 188.923 433.352 188.936 432.874L190.085 432.88C190.085 433.155 190.142 433.388 190.256 433.578C190.375 433.764 190.538 433.906 190.745 434.003C190.952 434.101 191.189 434.152 191.456 434.156C191.68 434.16 191.909 434.13 192.142 434.067C192.379 434.003 192.582 433.898 192.751 433.75C192.924 433.597 193.03 433.394 193.068 433.14ZM199.581 433.14C199.619 432.878 199.57 432.673 199.435 432.524C199.304 432.376 199.13 432.264 198.915 432.188C198.703 432.108 198.496 432.042 198.292 431.991C198.039 431.928 197.783 431.849 197.524 431.756C197.266 431.663 197.029 431.545 196.813 431.401C196.602 431.253 196.433 431.071 196.306 430.855C196.183 430.635 196.128 430.368 196.141 430.055C196.158 429.717 196.246 429.418 196.407 429.16C196.572 428.902 196.784 428.686 197.042 428.513C197.304 428.339 197.59 428.21 197.899 428.125C198.208 428.041 198.515 428.001 198.819 428.005C199.251 428.013 199.642 428.102 199.994 428.271C200.349 428.441 200.631 428.684 200.838 429.001C201.045 429.319 201.143 429.704 201.13 430.157L199.994 430.15C200.002 429.909 199.953 429.702 199.848 429.528C199.742 429.355 199.596 429.222 199.41 429.128C199.223 429.031 199.012 428.98 198.775 428.976C198.551 428.972 198.331 429.008 198.115 429.084C197.899 429.156 197.715 429.27 197.562 429.427C197.41 429.579 197.317 429.778 197.283 430.023C197.258 430.205 197.285 430.356 197.366 430.474C197.446 430.588 197.556 430.681 197.696 430.753C197.84 430.821 197.99 430.878 198.146 430.925C198.307 430.967 198.453 431.005 198.584 431.039C198.931 431.136 199.274 431.259 199.613 431.407C199.951 431.555 200.226 431.761 200.438 432.023C200.65 432.281 200.745 432.622 200.724 433.045C200.707 433.405 200.611 433.718 200.438 433.984C200.269 434.247 200.049 434.465 199.778 434.638C199.511 434.807 199.217 434.932 198.896 435.013C198.574 435.093 198.252 435.131 197.931 435.127C197.486 435.118 197.072 435.028 196.687 434.854C196.306 434.676 196.001 434.422 195.772 434.092C195.544 433.758 195.436 433.352 195.449 432.874L196.598 432.88C196.598 433.155 196.655 433.388 196.769 433.578C196.888 433.764 197.05 433.906 197.258 434.003C197.465 434.101 197.702 434.152 197.969 434.156C198.193 434.16 198.422 434.13 198.654 434.067C198.891 434.003 199.094 433.898 199.264 433.75C199.437 433.597 199.543 433.394 199.581 433.14ZM204.761 435.127C204.291 435.118 203.883 435.025 203.536 434.848C203.193 434.666 202.911 434.422 202.691 434.118C202.476 433.809 202.321 433.458 202.228 433.064C202.135 432.67 202.107 432.258 202.146 431.826L202.171 431.553C202.213 431.113 202.321 430.681 202.495 430.258C202.668 429.831 202.899 429.446 203.187 429.103C203.479 428.76 203.821 428.489 204.215 428.291C204.613 428.087 205.053 427.992 205.535 428.005C206.013 428.013 206.411 428.115 206.729 428.31C207.046 428.504 207.293 428.762 207.471 429.084C207.653 429.401 207.772 429.759 207.827 430.157C207.882 430.55 207.886 430.954 207.839 431.369L207.77 431.896H202.787L202.939 430.938L206.741 430.944L206.76 430.842C206.803 430.538 206.786 430.243 206.709 429.96C206.633 429.676 206.494 429.444 206.291 429.262C206.092 429.076 205.823 428.978 205.484 428.97C205.133 428.957 204.828 429.029 204.57 429.186C204.312 429.338 204.096 429.545 203.923 429.808C203.749 430.066 203.612 430.349 203.51 430.658C203.413 430.963 203.345 431.261 203.307 431.553L203.282 431.82C203.256 432.091 203.265 432.364 203.307 432.639C203.349 432.914 203.43 433.166 203.548 433.394C203.671 433.618 203.84 433.802 204.056 433.946C204.272 434.086 204.539 434.16 204.856 434.168C205.241 434.177 205.586 434.094 205.891 433.921C206.2 433.743 206.481 433.519 206.735 433.248L207.389 433.807C207.19 434.099 206.953 434.344 206.678 434.543C206.403 434.742 206.102 434.89 205.776 434.987C205.451 435.085 205.112 435.131 204.761 435.127ZM210.689 429.262L209.693 435H208.544L209.737 428.132H210.854L210.689 429.262ZM212.917 428.075L212.81 429.179C212.721 429.162 212.63 429.147 212.537 429.135C212.448 429.122 212.359 429.116 212.27 429.116C211.995 429.111 211.747 429.154 211.527 429.243C211.312 429.327 211.119 429.448 210.95 429.604C210.785 429.761 210.643 429.945 210.524 430.157C210.41 430.368 210.319 430.597 210.251 430.842L209.89 431.033C209.936 430.69 210.012 430.339 210.118 429.979C210.228 429.619 210.378 429.287 210.569 428.982C210.764 428.678 211.007 428.432 211.299 428.246C211.595 428.06 211.951 427.973 212.365 427.986C212.458 427.986 212.549 427.994 212.638 428.011C212.731 428.028 212.824 428.049 212.917 428.075Z" fill="white"/>
<path d="M514.844 406.945C514.844 406.663 514.8 406.414 514.711 406.198C514.628 405.977 514.479 405.778 514.263 405.601C514.053 405.424 513.76 405.255 513.383 405.094C513.013 404.934 512.542 404.771 511.972 404.604C511.375 404.427 510.835 404.231 510.354 404.015C509.872 403.794 509.46 403.542 509.117 403.26C508.774 402.978 508.511 402.654 508.328 402.289C508.146 401.923 508.054 401.506 508.054 401.035C508.054 400.565 508.151 400.13 508.345 399.732C508.538 399.333 508.815 398.988 509.175 398.694C509.54 398.396 509.974 398.163 510.478 397.997C510.982 397.831 511.543 397.748 512.163 397.748C513.071 397.748 513.84 397.922 514.471 398.271C515.107 398.614 515.591 399.065 515.923 399.624C516.255 400.177 516.421 400.77 516.421 401.4H514.828C514.828 400.947 514.731 400.545 514.537 400.197C514.343 399.843 514.05 399.566 513.657 399.367C513.264 399.162 512.766 399.06 512.163 399.06C511.593 399.06 511.123 399.145 510.752 399.317C510.381 399.488 510.104 399.721 509.922 400.014C509.745 400.307 509.656 400.642 509.656 401.019C509.656 401.273 509.709 401.506 509.814 401.716C509.925 401.921 510.093 402.111 510.32 402.289C510.553 402.466 510.846 402.629 511.2 402.778C511.56 402.928 511.989 403.072 512.487 403.21C513.173 403.404 513.765 403.619 514.263 403.857C514.761 404.095 515.171 404.364 515.492 404.663C515.818 404.956 516.059 405.291 516.214 405.667C516.374 406.038 516.455 406.458 516.455 406.929C516.455 407.421 516.355 407.867 516.156 408.265C515.957 408.664 515.672 409.004 515.301 409.286C514.93 409.568 514.485 409.787 513.964 409.942C513.45 410.091 512.874 410.166 512.238 410.166C511.679 410.166 511.128 410.089 510.586 409.934C510.049 409.779 509.559 409.546 509.117 409.236C508.68 408.926 508.328 408.545 508.062 408.091C507.802 407.632 507.672 407.1 507.672 406.497H509.266C509.266 406.912 509.346 407.269 509.507 407.568C509.667 407.861 509.886 408.105 510.163 408.298C510.445 408.492 510.763 408.636 511.117 408.73C511.477 408.819 511.85 408.863 512.238 408.863C512.797 408.863 513.27 408.785 513.657 408.63C514.045 408.475 514.338 408.254 514.537 407.966C514.742 407.679 514.844 407.338 514.844 406.945ZM517.857 405.609V405.418C517.857 404.771 517.951 404.17 518.14 403.617C518.328 403.058 518.599 402.574 518.953 402.164C519.307 401.749 519.736 401.428 520.24 401.201C520.743 400.969 521.308 400.853 521.933 400.853C522.564 400.853 523.131 400.969 523.635 401.201C524.144 401.428 524.576 401.749 524.93 402.164C525.289 402.574 525.563 403.058 525.751 403.617C525.94 404.17 526.034 404.771 526.034 405.418V405.609C526.034 406.256 525.94 406.857 525.751 407.41C525.563 407.964 525.289 408.448 524.93 408.863C524.576 409.272 524.147 409.593 523.643 409.826C523.145 410.053 522.581 410.166 521.95 410.166C521.319 410.166 520.752 410.053 520.248 409.826C519.744 409.593 519.313 409.272 518.953 408.863C518.599 408.448 518.328 407.964 518.14 407.41C517.951 406.857 517.857 406.256 517.857 405.609ZM519.393 405.418V405.609C519.393 406.057 519.446 406.48 519.551 406.879C519.656 407.272 519.814 407.62 520.024 407.925C520.24 408.229 520.508 408.47 520.829 408.647C521.15 408.819 521.524 408.904 521.95 408.904C522.37 408.904 522.738 408.819 523.054 408.647C523.375 408.47 523.64 408.229 523.851 407.925C524.061 407.62 524.219 407.272 524.324 406.879C524.434 406.48 524.49 406.057 524.49 405.609V405.418C524.49 404.975 524.434 404.557 524.324 404.165C524.219 403.766 524.058 403.415 523.842 403.11C523.632 402.8 523.366 402.557 523.045 402.38C522.73 402.203 522.359 402.114 521.933 402.114C521.513 402.114 521.142 402.203 520.821 402.38C520.505 402.557 520.24 402.8 520.024 403.11C519.814 403.415 519.656 403.766 519.551 404.165C519.446 404.557 519.393 404.975 519.393 405.418ZM530.558 408.614L533.015 401.019H534.583L531.354 410H530.325L530.558 408.614ZM528.507 401.019L531.039 408.655L531.213 410H530.184L526.93 401.019H528.507ZM539.672 410.166C539.047 410.166 538.479 410.061 537.97 409.851C537.467 409.635 537.032 409.333 536.667 408.946C536.307 408.558 536.031 408.099 535.837 407.568C535.643 407.037 535.546 406.456 535.546 405.825V405.476C535.546 404.746 535.654 404.095 535.87 403.525C536.086 402.95 536.379 402.463 536.75 402.064C537.121 401.666 537.541 401.364 538.012 401.16C538.482 400.955 538.969 400.853 539.473 400.853C540.115 400.853 540.668 400.963 541.133 401.185C541.603 401.406 541.988 401.716 542.287 402.114C542.585 402.507 542.807 402.972 542.951 403.509C543.095 404.04 543.167 404.621 543.167 405.252V405.941H536.459V404.688H541.631V404.571C541.609 404.173 541.526 403.785 541.382 403.409C541.243 403.033 541.022 402.723 540.718 402.479C540.413 402.236 539.998 402.114 539.473 402.114C539.124 402.114 538.803 402.189 538.51 402.338C538.216 402.482 537.965 402.698 537.754 402.986C537.544 403.274 537.381 403.625 537.265 404.04C537.148 404.455 537.09 404.934 537.09 405.476V405.825C537.09 406.251 537.148 406.652 537.265 407.028C537.386 407.399 537.561 407.726 537.788 408.008C538.02 408.29 538.299 408.511 538.626 408.672C538.958 408.832 539.334 408.913 539.755 408.913C540.297 408.913 540.757 408.802 541.133 408.581C541.509 408.359 541.838 408.063 542.121 407.692L543.05 408.431C542.857 408.724 542.61 409.004 542.312 409.27C542.013 409.535 541.645 409.751 541.208 409.917C540.776 410.083 540.264 410.166 539.672 410.166ZM546.495 402.43V410H544.959V401.019H546.454L546.495 402.43ZM549.301 400.969L549.292 402.396C549.165 402.369 549.043 402.352 548.927 402.347C548.817 402.336 548.689 402.33 548.545 402.33C548.191 402.33 547.879 402.385 547.607 402.496C547.336 402.607 547.107 402.762 546.918 402.961C546.73 403.16 546.581 403.398 546.47 403.675C546.365 403.946 546.296 404.245 546.263 404.571L545.831 404.82C545.831 404.278 545.884 403.769 545.989 403.293C546.099 402.817 546.268 402.396 546.495 402.031C546.722 401.66 547.01 401.373 547.358 401.168C547.713 400.958 548.133 400.853 548.62 400.853C548.731 400.853 548.858 400.866 549.002 400.894C549.146 400.916 549.245 400.941 549.301 400.969ZM550.147 405.609V405.418C550.147 404.771 550.242 404.17 550.43 403.617C550.618 403.058 550.889 402.574 551.243 402.164C551.597 401.749 552.026 401.428 552.53 401.201C553.033 400.969 553.598 400.853 554.223 400.853C554.854 400.853 555.421 400.969 555.925 401.201C556.434 401.428 556.866 401.749 557.22 402.164C557.579 402.574 557.853 403.058 558.042 403.617C558.23 404.17 558.324 404.771 558.324 405.418V405.609C558.324 406.256 558.23 406.857 558.042 407.41C557.853 407.964 557.579 408.448 557.22 408.863C556.866 409.272 556.437 409.593 555.933 409.826C555.435 410.053 554.871 410.166 554.24 410.166C553.609 410.166 553.042 410.053 552.538 409.826C552.035 409.593 551.603 409.272 551.243 408.863C550.889 408.448 550.618 407.964 550.43 407.41C550.242 406.857 550.147 406.256 550.147 405.609ZM551.683 405.418V405.609C551.683 406.057 551.736 406.48 551.841 406.879C551.946 407.272 552.104 407.62 552.314 407.925C552.53 408.229 552.798 408.47 553.119 408.647C553.44 408.819 553.814 408.904 554.24 408.904C554.66 408.904 555.028 408.819 555.344 408.647C555.665 408.47 555.93 408.229 556.141 407.925C556.351 407.62 556.509 407.272 556.614 406.879C556.724 406.48 556.78 406.057 556.78 405.609V405.418C556.78 404.975 556.724 404.557 556.614 404.165C556.509 403.766 556.348 403.415 556.132 403.11C555.922 402.8 555.656 402.557 555.335 402.38C555.02 402.203 554.649 402.114 554.223 402.114C553.803 402.114 553.432 402.203 553.111 402.38C552.795 402.557 552.53 402.8 552.314 403.11C552.104 403.415 551.946 403.766 551.841 404.165C551.736 404.557 551.683 404.975 551.683 405.418ZM561.777 402.803V410H560.233V401.019H561.694L561.777 402.803ZM561.461 405.169L560.748 405.144C560.753 404.53 560.833 403.963 560.988 403.442C561.143 402.917 561.373 402.46 561.677 402.073C561.982 401.685 562.361 401.387 562.814 401.176C563.268 400.96 563.794 400.853 564.392 400.853C564.812 400.853 565.2 400.913 565.554 401.035C565.908 401.151 566.215 401.337 566.475 401.591C566.735 401.846 566.937 402.172 567.081 402.571C567.225 402.969 567.297 403.451 567.297 404.015V410H565.761V404.09C565.761 403.619 565.681 403.243 565.521 402.961C565.366 402.679 565.144 402.474 564.856 402.347C564.569 402.214 564.231 402.147 563.844 402.147C563.39 402.147 563.011 402.228 562.707 402.388C562.402 402.549 562.159 402.77 561.976 403.052C561.793 403.334 561.661 403.658 561.578 404.023C561.5 404.383 561.461 404.765 561.461 405.169ZM567.28 404.322L566.251 404.638C566.257 404.145 566.337 403.672 566.492 403.218C566.652 402.764 566.882 402.361 567.181 402.006C567.485 401.652 567.859 401.373 568.301 401.168C568.744 400.958 569.25 400.853 569.82 400.853C570.302 400.853 570.728 400.916 571.099 401.043C571.475 401.171 571.79 401.367 572.045 401.633C572.305 401.893 572.501 402.228 572.634 402.637C572.767 403.047 572.833 403.534 572.833 404.098V410H571.29V404.082C571.29 403.578 571.209 403.188 571.049 402.911C570.894 402.629 570.673 402.432 570.385 402.322C570.103 402.206 569.765 402.147 569.372 402.147C569.035 402.147 568.736 402.206 568.476 402.322C568.215 402.438 567.997 402.598 567.82 402.803C567.643 403.002 567.507 403.232 567.413 403.492C567.325 403.752 567.28 404.029 567.28 404.322Z" fill="white"/>
<path d="M40.8442 372.945C40.8442 372.663 40.8 372.414 40.7114 372.198C40.6284 371.977 40.479 371.778 40.2632 371.601C40.0529 371.424 39.7596 371.255 39.3833 371.094C39.0125 370.934 38.5422 370.771 37.9722 370.604C37.3745 370.427 36.835 370.231 36.3535 370.015C35.8721 369.794 35.4598 369.542 35.1167 369.26C34.7736 368.978 34.5107 368.654 34.3281 368.289C34.1455 367.923 34.0542 367.506 34.0542 367.035C34.0542 366.565 34.151 366.13 34.3447 365.732C34.5384 365.333 34.8151 364.988 35.1748 364.694C35.54 364.396 35.9744 364.163 36.478 363.997C36.9816 363.831 37.5433 363.748 38.1631 363.748C39.0706 363.748 39.8398 363.922 40.4707 364.271C41.1071 364.614 41.5913 365.065 41.9233 365.624C42.2554 366.177 42.4214 366.77 42.4214 367.4H40.8276C40.8276 366.947 40.7308 366.545 40.5371 366.197C40.3434 365.843 40.0501 365.566 39.6572 365.367C39.2643 365.162 38.7663 365.06 38.1631 365.06C37.5931 365.06 37.1227 365.145 36.752 365.317C36.3812 365.488 36.1045 365.721 35.9219 366.014C35.7448 366.307 35.6562 366.642 35.6562 367.019C35.6562 367.273 35.7088 367.506 35.814 367.716C35.9246 367.921 36.0934 368.111 36.3203 368.289C36.5527 368.466 36.846 368.629 37.2002 368.778C37.5599 368.928 37.9888 369.072 38.4868 369.21C39.173 369.404 39.7651 369.619 40.2632 369.857C40.7612 370.095 41.1707 370.364 41.4917 370.663C41.8182 370.956 42.0589 371.291 42.2139 371.667C42.3743 372.038 42.4546 372.458 42.4546 372.929C42.4546 373.421 42.355 373.867 42.1558 374.265C41.9565 374.664 41.6715 375.004 41.3008 375.286C40.93 375.568 40.4845 375.787 39.9644 375.942C39.4497 376.091 38.8742 376.166 38.2378 376.166C37.6789 376.166 37.1283 376.089 36.5859 375.934C36.0492 375.779 35.5594 375.546 35.1167 375.236C34.6795 374.926 34.3281 374.545 34.0625 374.091C33.8024 373.632 33.6724 373.1 33.6724 372.497H35.2661C35.2661 372.912 35.3464 373.269 35.5068 373.568C35.6673 373.861 35.8859 374.105 36.1626 374.298C36.4448 374.492 36.763 374.636 37.1172 374.73C37.4769 374.819 37.8504 374.863 38.2378 374.863C38.7967 374.863 39.2699 374.785 39.6572 374.63C40.0446 374.475 40.3379 374.254 40.5371 373.966C40.7419 373.679 40.8442 373.338 40.8442 372.945ZM43.8574 371.609V371.418C43.8574 370.771 43.9515 370.17 44.1396 369.617C44.3278 369.058 44.599 368.574 44.9531 368.164C45.3073 367.749 45.7362 367.428 46.2397 367.201C46.7433 366.969 47.3078 366.853 47.9331 366.853C48.564 366.853 49.1312 366.969 49.6348 367.201C50.1439 367.428 50.5755 367.749 50.9297 368.164C51.2894 368.574 51.5633 369.058 51.7515 369.617C51.9396 370.17 52.0337 370.771 52.0337 371.418V371.609C52.0337 372.256 51.9396 372.857 51.7515 373.41C51.5633 373.964 51.2894 374.448 50.9297 374.863C50.5755 375.272 50.1466 375.593 49.6431 375.826C49.145 376.053 48.5806 376.166 47.9497 376.166C47.3188 376.166 46.7516 376.053 46.248 375.826C45.7445 375.593 45.3128 375.272 44.9531 374.863C44.599 374.448 44.3278 373.964 44.1396 373.41C43.9515 372.857 43.8574 372.256 43.8574 371.609ZM45.3931 371.418V371.609C45.3931 372.057 45.4456 372.48 45.5508 372.879C45.6559 373.272 45.8136 373.62 46.0239 373.925C46.2397 374.229 46.5081 374.47 46.8291 374.647C47.1501 374.819 47.5236 374.904 47.9497 374.904C48.3703 374.904 48.7383 374.819 49.0537 374.647C49.3747 374.47 49.6403 374.229 49.8506 373.925C50.0609 373.62 50.2186 373.272 50.3237 372.879C50.4344 372.48 50.4897 372.057 50.4897 371.609V371.418C50.4897 370.975 50.4344 370.557 50.3237 370.165C50.2186 369.766 50.0581 369.415 49.8423 369.11C49.632 368.8 49.3664 368.557 49.0454 368.38C48.73 368.203 48.3592 368.114 47.9331 368.114C47.5125 368.114 47.1418 368.203 46.8208 368.38C46.5054 368.557 46.2397 368.8 46.0239 369.11C45.8136 369.415 45.6559 369.766 45.5508 370.165C45.4456 370.557 45.3931 370.975 45.3931 371.418ZM56.5576 374.614L59.0146 367.019H60.5835L57.3545 376H56.3252L56.5576 374.614ZM54.5073 367.019L57.0391 374.655L57.2134 376H56.1841L52.9302 367.019H54.5073ZM65.6719 376.166C65.0465 376.166 64.4793 376.061 63.9702 375.851C63.4666 375.635 63.0322 375.333 62.667 374.946C62.3073 374.558 62.0306 374.099 61.8369 373.568C61.6432 373.037 61.5464 372.456 61.5464 371.825V371.476C61.5464 370.746 61.6543 370.095 61.8701 369.525C62.0859 368.95 62.3792 368.463 62.75 368.064C63.1208 367.666 63.5413 367.364 64.0117 367.16C64.4821 366.955 64.9691 366.853 65.4727 366.853C66.1146 366.853 66.668 366.963 67.1328 367.185C67.6032 367.406 67.9878 367.716 68.2866 368.114C68.5854 368.507 68.8068 368.972 68.9507 369.509C69.0946 370.04 69.1665 370.621 69.1665 371.252V371.941H62.4595V370.688H67.6309V370.571C67.6087 370.173 67.5257 369.785 67.3818 369.409C67.2435 369.033 67.0221 368.723 66.7178 368.479C66.4134 368.236 65.9984 368.114 65.4727 368.114C65.124 368.114 64.8031 368.189 64.5098 368.338C64.2165 368.482 63.9647 368.698 63.7544 368.986C63.5441 369.274 63.3809 369.625 63.2646 370.04C63.1484 370.455 63.0903 370.934 63.0903 371.476V371.825C63.0903 372.251 63.1484 372.652 63.2646 373.028C63.3864 373.399 63.5607 373.726 63.7876 374.008C64.02 374.29 64.2995 374.511 64.626 374.672C64.958 374.832 65.3343 374.913 65.7549 374.913C66.2972 374.913 66.7565 374.802 67.1328 374.581C67.5091 374.359 67.8384 374.063 68.1206 373.692L69.0503 374.431C68.8566 374.724 68.6104 375.004 68.3115 375.27C68.0127 375.535 67.6447 375.751 67.2075 375.917C66.7759 376.083 66.264 376.166 65.6719 376.166ZM72.4951 368.43V376H70.9595V367.019H72.4536L72.4951 368.43ZM75.3008 366.969L75.2925 368.396C75.1652 368.369 75.0435 368.352 74.9272 368.347C74.8166 368.336 74.6893 368.33 74.5454 368.33C74.1912 368.33 73.8786 368.385 73.6074 368.496C73.3363 368.607 73.1066 368.762 72.9185 368.961C72.7303 369.16 72.5809 369.398 72.4702 369.675C72.3651 369.946 72.2959 370.245 72.2627 370.571L71.8311 370.82C71.8311 370.278 71.8836 369.769 71.9888 369.293C72.0994 368.817 72.2682 368.396 72.4951 368.031C72.722 367.66 73.0098 367.373 73.3584 367.168C73.7126 366.958 74.1331 366.853 74.6201 366.853C74.7308 366.853 74.8581 366.866 75.002 366.894C75.1458 366.916 75.2454 366.941 75.3008 366.969ZM76.1475 371.609V371.418C76.1475 370.771 76.2415 370.17 76.4297 369.617C76.6178 369.058 76.889 368.574 77.2432 368.164C77.5973 367.749 78.0262 367.428 78.5298 367.201C79.0334 366.969 79.5978 366.853 80.2231 366.853C80.854 366.853 81.4212 366.969 81.9248 367.201C82.4339 367.428 82.8656 367.749 83.2197 368.164C83.5794 368.574 83.8534 369.058 84.0415 369.617C84.2297 370.17 84.3237 370.771 84.3237 371.418V371.609C84.3237 372.256 84.2297 372.857 84.0415 373.41C83.8534 373.964 83.5794 374.448 83.2197 374.863C82.8656 375.272 82.4367 375.593 81.9331 375.826C81.4351 376.053 80.8706 376.166 80.2397 376.166C79.6089 376.166 79.0417 376.053 78.5381 375.826C78.0345 375.593 77.6029 375.272 77.2432 374.863C76.889 374.448 76.6178 373.964 76.4297 373.41C76.2415 372.857 76.1475 372.256 76.1475 371.609ZM77.6831 371.418V371.609C77.6831 372.057 77.7357 372.48 77.8408 372.879C77.946 373.272 78.1037 373.62 78.314 373.925C78.5298 374.229 78.7982 374.47 79.1191 374.647C79.4401 374.819 79.8136 374.904 80.2397 374.904C80.6603 374.904 81.0283 374.819 81.3438 374.647C81.6647 374.47 81.9303 374.229 82.1406 373.925C82.3509 373.62 82.5086 373.272 82.6138 372.879C82.7244 372.48 82.7798 372.057 82.7798 371.609V371.418C82.7798 370.975 82.7244 370.557 82.6138 370.165C82.5086 369.766 82.3481 369.415 82.1323 369.11C81.922 368.8 81.6564 368.557 81.3354 368.38C81.02 368.203 80.6493 368.114 80.2231 368.114C79.8026 368.114 79.4318 368.203 79.1108 368.38C78.7954 368.557 78.5298 368.8 78.314 369.11C78.1037 369.415 77.946 369.766 77.8408 370.165C77.7357 370.557 77.6831 370.975 77.6831 371.418ZM87.7769 368.803V376H86.2329V367.019H87.6938L87.7769 368.803ZM87.4614 371.169L86.7476 371.144C86.7531 370.53 86.8333 369.963 86.9883 369.442C87.1432 368.917 87.3729 368.46 87.6772 368.073C87.9816 367.685 88.3607 367.387 88.8145 367.176C89.2682 366.96 89.7939 366.853 90.3916 366.853C90.8122 366.853 91.1995 366.913 91.5537 367.035C91.9079 367.151 92.215 367.337 92.4751 367.591C92.7352 367.846 92.9372 368.172 93.0811 368.571C93.2249 368.969 93.2969 369.451 93.2969 370.015V376H91.7612V370.09C91.7612 369.619 91.681 369.243 91.5205 368.961C91.3656 368.679 91.1442 368.474 90.8564 368.347C90.5687 368.214 90.2311 368.147 89.8438 368.147C89.39 368.147 89.0109 368.228 88.7065 368.388C88.4022 368.549 88.1587 368.77 87.9761 369.052C87.7935 369.334 87.6606 369.658 87.5776 370.023C87.5002 370.383 87.4614 370.765 87.4614 371.169ZM93.2803 370.322L92.251 370.638C92.2565 370.145 92.3368 369.672 92.4917 369.218C92.6522 368.764 92.8818 368.361 93.1807 368.006C93.485 367.652 93.8586 367.373 94.3013 367.168C94.744 366.958 95.2503 366.853 95.8203 366.853C96.3018 366.853 96.7279 366.916 97.0986 367.043C97.4749 367.171 97.7904 367.367 98.0449 367.633C98.305 367.893 98.5015 368.228 98.6343 368.637C98.7671 369.047 98.8335 369.534 98.8335 370.098V376H97.2896V370.082C97.2896 369.578 97.2093 369.188 97.0488 368.911C96.8939 368.629 96.6725 368.432 96.3848 368.322C96.1025 368.206 95.765 368.147 95.3721 368.147C95.0345 368.147 94.7357 368.206 94.4756 368.322C94.2155 368.438 93.9969 368.598 93.8198 368.803C93.6427 369.002 93.5072 369.232 93.4131 369.492C93.3245 369.752 93.2803 370.029 93.2803 370.322Z" fill="white"/>
<rect width="97" height="44" transform="translate(680 349) rotate(90)" fill="white"/>
<rect x="680" y="354.74" width="91.2604" height="44" transform="rotate(90 680 354.74)" fill="#C4C4C4"/>
<rect x="680" y="349" width="9.7574" height="44" transform="rotate(90 680 349)" fill="#FFC123"/>
<rect x="680" y="436.243" width="9.75739" height="44" transform="rotate(90 680 436.243)" fill="#FFC123"/>
<rect x="671.5" y="358.757" width="8.5" height="83.2249" fill="#FFC123"/>
<rect x="665.5" y="366.219" width="26.9763" height="24" transform="rotate(90 665.5 366.219)" fill="#FFEED3"/>
<rect x="665" y="400.657" width="26.9763" height="24" transform="rotate(90 665 400.657)" fill="#FFEED3"/>
</svg>
