<svg width="111" height="107" viewBox="0 0 111 107" fill="none" xmlns="http://www.w3.org/2000/svg">
    <path d="M60.3264 1.49753C77.7463 -3.07711 102.03 3.01387 109.594 17.2428C117.161 31.4783 91.7507 43.9018 91.1803 59.5422C90.6152 75.0339 117.34 89.9065 106.492 102.295C96.1902 114.058 74.2255 100.304 57.2445 98.2948C43.4798 96.6665 28.4811 99.5069 17.8643 91.8106C6.3438 83.4592 -2.9303 69.9517 0.861919 57.4223C4.4514 45.5627 24.8394 46.0226 34.4617 36.9731C45.8504 26.2623 44.1736 5.7394 60.3264 1.49753Z" fill="#FFCCD8"/>
    <g style="mix-blend-mode:hard-light">
        <path d="M32.2029 58.6V74H28.6389V67.686H21.6429V74H18.0789V58.6H21.6429V64.672H28.6389V58.6H32.2029ZM42.6885 74.264C40.4885 74.264 38.7725 73.6553 37.5405 72.438C36.3232 71.2207 35.7145 69.4827 35.7145 67.224V58.6H39.2785V67.092C39.2785 69.8493 40.4225 71.228 42.7105 71.228C43.8252 71.228 44.6758 70.898 45.2625 70.238C45.8492 69.5633 46.1425 68.5147 46.1425 67.092V58.6H49.6625V67.224C49.6625 69.4827 49.0465 71.2207 47.8145 72.438C46.5972 73.6553 44.8885 74.264 42.6885 74.264ZM58.2444 74.264C57.0271 74.264 55.8464 74.1027 54.7024 73.78C53.5731 73.4427 52.6637 73.01 51.9744 72.482L53.1844 69.798C53.8444 70.282 54.6291 70.6707 55.5384 70.964C56.4477 71.2573 57.3571 71.404 58.2664 71.404C59.2784 71.404 60.0264 71.2573 60.5104 70.964C60.9944 70.656 61.2364 70.2527 61.2364 69.754C61.2364 69.3873 61.0897 69.0867 60.7964 68.852C60.5177 68.6027 60.1511 68.4047 59.6964 68.258C59.2564 68.1113 58.6551 67.95 57.8924 67.774C56.7191 67.4953 55.7584 67.2167 55.0104 66.938C54.2624 66.6593 53.6171 66.212 53.0744 65.596C52.5464 64.98 52.2824 64.1587 52.2824 63.132C52.2824 62.2373 52.5244 61.4307 53.0084 60.712C53.4924 59.9787 54.2184 59.3993 55.1864 58.974C56.1691 58.5487 57.3644 58.336 58.7724 58.336C59.7551 58.336 60.7157 58.4533 61.6544 58.688C62.5931 58.9227 63.4144 59.26 64.1184 59.7L63.0184 62.406C61.5957 61.5993 60.1731 61.196 58.7504 61.196C57.7531 61.196 57.0124 61.3573 56.5284 61.68C56.0591 62.0027 55.8244 62.428 55.8244 62.956C55.8244 63.484 56.0957 63.88 56.6384 64.144C57.1957 64.3933 58.0391 64.6427 59.1684 64.892C60.3417 65.1707 61.3024 65.4493 62.0504 65.728C62.7984 66.0067 63.4364 66.4467 63.9644 67.048C64.5071 67.6493 64.7784 68.4633 64.7784 69.49C64.7784 70.37 64.5291 71.1767 64.0304 71.91C63.5464 72.6287 62.8131 73.2007 61.8304 73.626C60.8477 74.0513 59.6524 74.264 58.2444 74.264ZM79.1377 71.14V74H67.2137V58.6H78.8517V61.46H70.7557V64.804H77.9057V67.576H70.7557V71.14H79.1377ZM85.1635 61.504H80.2355V58.6H93.6555V61.504H88.7275V74H85.1635V61.504Z" fill="white"/>
        <path d="M32.2029 58.6H32.7029V58.1H32.2029V58.6ZM32.2029 74V74.5H32.7029V74H32.2029ZM28.6389 74H28.1389V74.5H28.6389V74ZM28.6389 67.686H29.1389V67.186H28.6389V67.686ZM21.6429 67.686V67.186H21.1429V67.686H21.6429ZM21.6429 74V74.5H22.1429V74H21.6429ZM18.0789 74H17.5789V74.5H18.0789V74ZM18.0789 58.6V58.1H17.5789V58.6H18.0789ZM21.6429 58.6H22.1429V58.1H21.6429V58.6ZM21.6429 64.672H21.1429V65.172H21.6429V64.672ZM28.6389 64.672V65.172H29.1389V64.672H28.6389ZM28.6389 58.6V58.1H28.1389V58.6H28.6389ZM31.7029 58.6V74H32.7029V58.6H31.7029ZM32.2029 73.5H28.6389V74.5H32.2029V73.5ZM29.1389 74V67.686H28.1389V74H29.1389ZM28.6389 67.186H21.6429V68.186H28.6389V67.186ZM21.1429 67.686V74H22.1429V67.686H21.1429ZM21.6429 73.5H18.0789V74.5H21.6429V73.5ZM18.5789 74V58.6H17.5789V74H18.5789ZM18.0789 59.1H21.6429V58.1H18.0789V59.1ZM21.1429 58.6V64.672H22.1429V58.6H21.1429ZM21.6429 65.172H28.6389V64.172H21.6429V65.172ZM29.1389 64.672V58.6H28.1389V64.672H29.1389ZM28.6389 59.1H32.2029V58.1H28.6389V59.1ZM37.5405 72.438L37.1869 72.7916L37.1891 72.7937L37.5405 72.438ZM35.7145 58.6V58.1H35.2145V58.6H35.7145ZM39.2785 58.6H39.7785V58.1H39.2785V58.6ZM45.2625 70.238L45.6362 70.5702L45.6398 70.5661L45.2625 70.238ZM46.1425 58.6V58.1H45.6425V58.6H46.1425ZM49.6625 58.6H50.1625V58.1H49.6625V58.6ZM47.8145 72.438L47.4631 72.0823L47.461 72.0844L47.8145 72.438ZM42.6885 73.764C40.5828 73.764 39.0068 73.1839 37.8919 72.0823L37.1891 72.7937C38.5382 74.1267 40.3942 74.764 42.6885 74.764V73.764ZM37.8941 72.0844C36.7971 70.9874 36.2145 69.393 36.2145 67.224H35.2145C35.2145 69.5723 35.8493 71.4539 37.187 72.7916L37.8941 72.0844ZM36.2145 67.224V58.6H35.2145V67.224H36.2145ZM35.7145 59.1H39.2785V58.1H35.7145V59.1ZM38.7785 58.6V67.092H39.7785V58.6H38.7785ZM38.7785 67.092C38.7785 68.5274 39.0744 69.697 39.7517 70.5133C40.4439 71.3475 41.4623 71.728 42.7105 71.728V70.728C41.6707 70.728 40.9731 70.4192 40.5213 69.8747C40.0547 69.3124 39.7785 68.4139 39.7785 67.092H38.7785ZM42.7105 71.728C43.9278 71.728 44.9309 71.3637 45.6362 70.5702L44.8888 69.9058C44.4208 70.4323 43.7226 70.728 42.7105 70.728V71.728ZM45.6398 70.5661C46.3408 69.76 46.6425 68.5678 46.6425 67.092H45.6425C45.6425 68.4615 45.3576 69.3667 44.8852 69.9099L45.6398 70.5661ZM46.6425 67.092V58.6H45.6425V67.092H46.6425ZM46.1425 59.1H49.6625V58.1H46.1425V59.1ZM49.1625 58.6V67.224H50.1625V58.6H49.1625ZM49.1625 67.224C49.1625 69.3914 48.5736 70.985 47.4631 72.0823L48.1659 72.7937C49.5194 71.4563 50.1625 69.5739 50.1625 67.224H49.1625ZM47.461 72.0844C46.3616 73.1838 44.7945 73.764 42.6885 73.764V74.764C44.9825 74.764 46.8328 74.1268 48.1681 72.7916L47.461 72.0844ZM54.7024 73.78L54.5593 74.2591L54.5667 74.2612L54.7024 73.78ZM51.9744 72.482L51.5186 72.2765L51.3557 72.6379L51.6704 72.8789L51.9744 72.482ZM53.1844 69.798L53.4801 69.3948L52.9823 69.0297L52.7286 69.5925L53.1844 69.798ZM55.5384 70.964L55.6919 70.4881L55.6919 70.4881L55.5384 70.964ZM60.5104 70.964L60.7696 71.3917L60.7788 71.3858L60.5104 70.964ZM60.7964 68.852L60.463 69.2246L60.4733 69.2338L60.4841 69.2424L60.7964 68.852ZM59.6964 68.258L59.5383 68.7324L59.5429 68.7339L59.6964 68.258ZM57.8924 67.774L57.7769 68.2605L57.78 68.2612L57.8924 67.774ZM55.0104 66.938L55.185 66.4695L55.185 66.4695L55.0104 66.938ZM53.0744 65.596L52.6947 65.9214L52.6992 65.9265L53.0744 65.596ZM53.0084 60.712L53.4231 60.9913L53.4257 60.9874L53.0084 60.712ZM55.1864 58.974L54.9878 58.5151L54.9853 58.5162L55.1864 58.974ZM61.6544 58.688L61.7757 58.2029L61.7757 58.2029L61.6544 58.688ZM64.1184 59.7L64.5816 59.8883L64.7399 59.4988L64.3834 59.276L64.1184 59.7ZM63.0184 62.406L62.7718 62.8409L63.2671 63.1218L63.4816 62.5943L63.0184 62.406ZM56.5284 61.68L56.251 61.2639L56.2451 61.268L56.5284 61.68ZM56.6384 64.144L56.4197 64.5936L56.4269 64.5971L56.4342 64.6004L56.6384 64.144ZM59.1684 64.892L59.2839 64.4055L59.2762 64.4038L59.1684 64.892ZM62.0504 65.728L62.225 65.2595L62.225 65.2595L62.0504 65.728ZM63.9644 67.048L63.5886 67.3779L63.5932 67.383L63.9644 67.048ZM64.0304 71.91L63.6169 71.6288L63.6157 71.6307L64.0304 71.91ZM61.8304 73.626L61.6318 73.1671L61.6318 73.1671L61.8304 73.626ZM58.2444 73.764C57.0718 73.764 55.9369 73.6087 54.8381 73.2988L54.5667 74.2612C55.7559 74.5966 56.9823 74.764 58.2444 74.764V73.764ZM54.8455 73.3009C53.7549 72.9752 52.9057 72.5655 52.2784 72.0851L51.6704 72.8789C52.4218 73.4545 53.3912 73.9102 54.5593 74.2591L54.8455 73.3009ZM52.4302 72.6875L53.6402 70.0035L52.7286 69.5925L51.5186 72.2765L52.4302 72.6875ZM52.8887 70.2012C53.5985 70.7217 54.4329 71.1328 55.3849 71.4399L55.6919 70.4881C54.8252 70.2086 54.0903 69.8423 53.4801 69.3948L52.8887 70.2012ZM55.3849 71.4399C56.3413 71.7484 57.3024 71.904 58.2664 71.904V70.904C57.4118 70.904 56.5542 70.7663 55.6919 70.4881L55.3849 71.4399ZM58.2664 71.904C59.3076 71.904 60.1674 71.7566 60.7695 71.3916L60.2512 70.5364C59.8854 70.7581 59.2492 70.904 58.2664 70.904V71.904ZM60.7788 71.3858C61.3816 71.0023 61.7364 70.4518 61.7364 69.754H60.7364C60.7364 70.0536 60.6072 70.3097 60.242 70.5422L60.7788 71.3858ZM61.7364 69.754C61.7364 69.2312 61.5173 68.7884 61.1087 68.4616L60.4841 69.2424C60.6622 69.3849 60.7364 69.5435 60.7364 69.754H61.7364ZM61.1298 68.4794C60.7867 68.1724 60.3533 67.9445 59.8499 67.7821L59.5429 68.7339C59.9488 68.8648 60.2487 69.0329 60.463 69.2246L61.1298 68.4794ZM59.8545 67.7837C59.3928 67.6297 58.774 67.4643 58.0048 67.2868L57.78 68.2612C58.5361 68.4357 59.12 68.5929 59.5383 68.7323L59.8545 67.7837ZM58.0079 67.2875C56.8456 67.0115 55.9066 66.7383 55.185 66.4695L54.8358 67.4065C55.6102 67.695 56.5925 67.9792 57.7769 68.2605L58.0079 67.2875ZM55.185 66.4695C54.5164 66.2204 53.9394 65.8215 53.4496 65.2655L52.6992 65.9265C53.2948 66.6025 54.0084 67.0983 54.8358 67.4065L55.185 66.4695ZM53.454 65.2706C53.0226 64.7672 52.7824 64.0719 52.7824 63.132H51.7824C51.7824 64.2454 52.0702 65.1928 52.6948 65.9214L53.454 65.2706ZM52.7824 63.132C52.7824 62.3334 52.9966 61.6246 53.4231 60.9913L52.5937 60.4327C52.0522 61.2367 51.7824 62.1413 51.7824 63.132H52.7824ZM53.4257 60.9874C53.8468 60.3495 54.4895 59.8263 55.3875 59.4318L54.9853 58.5162C53.9473 58.9723 53.138 59.6079 52.5911 60.4366L53.4257 60.9874ZM55.385 59.4329C56.2886 59.0418 57.4122 58.836 58.7724 58.836V57.836C57.3166 57.836 56.0496 58.0556 54.9878 58.5151L55.385 59.4329ZM58.7724 58.836C59.7148 58.836 60.6347 58.9485 61.5331 59.1731L61.7757 58.2029C60.7967 57.9582 59.7953 57.836 58.7724 57.836V58.836ZM61.5331 59.1731C62.4292 59.3971 63.2005 59.7159 63.8534 60.124L64.3834 59.276C63.6283 58.8041 62.7569 58.4482 61.7757 58.2029L61.5331 59.1731ZM63.6552 59.5117L62.5552 62.2177L63.4816 62.5943L64.5816 59.8883L63.6552 59.5117ZM63.265 61.9711C61.7785 61.1282 60.2717 60.696 58.7504 60.696V61.696C60.0744 61.696 61.4129 62.0705 62.7718 62.8409L63.265 61.9711ZM58.7504 60.696C57.717 60.696 56.8572 60.8599 56.251 61.264L56.8057 62.096C57.1676 61.8548 57.7892 61.696 58.7504 61.696V60.696ZM56.2451 61.268C55.6527 61.6753 55.3244 62.2486 55.3244 62.956H56.3244C56.3244 62.6074 56.4654 62.3301 56.8117 62.092L56.2451 61.268ZM55.3244 62.956C55.3244 63.3103 55.4171 63.6421 55.6154 63.9316C55.8112 64.2173 56.0901 64.4333 56.4197 64.5936L56.8571 63.6944C56.644 63.5907 56.516 63.4767 56.4404 63.3664C56.3674 63.2599 56.3244 63.1296 56.3244 62.956H55.3244ZM56.4342 64.6004C57.0388 64.8709 57.9219 65.1289 59.0606 65.3802L59.2762 64.4038C58.1562 64.1565 57.3527 63.9158 56.8426 63.6876L56.4342 64.6004ZM59.0529 65.3785C60.2152 65.6545 61.1542 65.9277 61.8758 66.1965L62.225 65.2595C61.4506 64.971 60.4683 64.6868 59.2839 64.4055L59.0529 65.3785ZM61.8758 66.1965C62.5462 66.4463 63.1151 66.8385 63.5887 67.3779L64.3401 66.7181C63.7577 66.0548 63.0506 65.5671 62.225 65.2595L61.8758 66.1965ZM63.5932 67.383C64.0326 67.8698 64.2784 68.5528 64.2784 69.49H65.2784C65.2784 68.3739 64.9816 67.4288 64.3356 66.713L63.5932 67.383ZM64.2784 69.49C64.2784 70.2689 64.0597 70.9777 63.6169 71.6288L64.4439 72.1912C64.9984 71.3756 65.2784 70.4711 65.2784 69.49H64.2784ZM63.6157 71.6307C63.1964 72.2532 62.5474 72.7708 61.6318 73.1671L62.029 74.0849C63.0787 73.6305 63.8964 73.0041 64.4451 72.1893L63.6157 71.6307ZM61.6318 73.1671C60.7282 73.5582 59.6046 73.764 58.2444 73.764V74.764C59.7002 74.764 60.9672 74.5444 62.029 74.0849L61.6318 73.1671ZM79.1377 71.14H79.6377V70.64H79.1377V71.14ZM79.1377 74V74.5H79.6377V74H79.1377ZM67.2137 74H66.7137V74.5H67.2137V74ZM67.2137 58.6V58.1H66.7137V58.6H67.2137ZM78.8517 58.6H79.3517V58.1H78.8517V58.6ZM78.8517 61.46V61.96H79.3517V61.46H78.8517ZM70.7557 61.46V60.96H70.2557V61.46H70.7557ZM70.7557 64.804H70.2557V65.304H70.7557V64.804ZM77.9057 64.804H78.4057V64.304H77.9057V64.804ZM77.9057 67.576V68.076H78.4057V67.576H77.9057ZM70.7557 67.576V67.076H70.2557V67.576H70.7557ZM70.7557 71.14H70.2557V71.64H70.7557V71.14ZM78.6377 71.14V74H79.6377V71.14H78.6377ZM79.1377 73.5H67.2137V74.5H79.1377V73.5ZM67.7137 74V58.6H66.7137V74H67.7137ZM67.2137 59.1H78.8517V58.1H67.2137V59.1ZM78.3517 58.6V61.46H79.3517V58.6H78.3517ZM78.8517 60.96H70.7557V61.96H78.8517V60.96ZM70.2557 61.46V64.804H71.2557V61.46H70.2557ZM70.7557 65.304H77.9057V64.304H70.7557V65.304ZM77.4057 64.804V67.576H78.4057V64.804H77.4057ZM77.9057 67.076H70.7557V68.076H77.9057V67.076ZM70.2557 67.576V71.14H71.2557V67.576H70.2557ZM70.7557 71.64H79.1377V70.64H70.7557V71.64ZM85.1635 61.504H85.6635V61.004H85.1635V61.504ZM80.2355 61.504H79.7355V62.004H80.2355V61.504ZM80.2355 58.6V58.1H79.7355V58.6H80.2355ZM93.6555 58.6H94.1555V58.1H93.6555V58.6ZM93.6555 61.504V62.004H94.1555V61.504H93.6555ZM88.7275 61.504V61.004H88.2275V61.504H88.7275ZM88.7275 74V74.5H89.2275V74H88.7275ZM85.1635 74H84.6635V74.5H85.1635V74ZM85.1635 61.004H80.2355V62.004H85.1635V61.004ZM80.7355 61.504V58.6H79.7355V61.504H80.7355ZM80.2355 59.1H93.6555V58.1H80.2355V59.1ZM93.1555 58.6V61.504H94.1555V58.6H93.1555ZM93.6555 61.004H88.7275V62.004H93.6555V61.004ZM88.2275 61.504V74H89.2275V61.504H88.2275ZM88.7275 73.5H85.1635V74.5H88.7275V73.5ZM85.6635 74V61.504H84.6635V74H85.6635Z" fill="black"/>
    </g>
</svg>
