<svg width="911" height="455" viewBox="0 0 911 455" fill="none" xmlns="http://www.w3.org/2000/svg">
    <path d="M424.051 13H422.507V2.76514L419.411 3.90234V2.50781L423.811 0.855957H424.051V13ZM428.741 12.1948C428.741 11.9292 428.819 11.7078 428.974 11.5308C429.134 11.3537 429.372 11.2651 429.688 11.2651C430.003 11.2651 430.241 11.3537 430.401 11.5308C430.567 11.7078 430.65 11.9292 430.65 12.1948C430.65 12.4494 430.567 12.6624 430.401 12.834C430.241 13.0055 430.003 13.0913 429.688 13.0913C429.372 13.0913 429.134 13.0055 428.974 12.834C428.819 12.6624 428.741 12.4494 428.741 12.1948ZM441.134 13.166C439.917 13.166 438.926 12.7676 438.163 11.9707C437.399 11.1683 437.017 10.0975 437.017 8.7583V8.47607C437.017 7.58512 437.186 6.79102 437.523 6.09375C437.867 5.39095 438.342 4.8431 438.951 4.4502C439.565 4.05176 440.229 3.85254 440.943 3.85254C442.111 3.85254 443.019 4.23714 443.666 5.00635C444.313 5.77555 444.637 6.87679 444.637 8.31006V8.94922H438.553C438.575 9.83464 438.832 10.5513 439.325 11.0991C439.823 11.6414 440.454 11.9126 441.217 11.9126C441.76 11.9126 442.219 11.8019 442.595 11.5806C442.972 11.3592 443.301 11.0659 443.583 10.7007L444.521 11.4312C443.768 12.5877 442.639 13.166 441.134 13.166ZM440.943 5.11426C440.324 5.11426 439.803 5.34115 439.383 5.79492C438.962 6.24316 438.702 6.87402 438.603 7.6875H443.102V7.57129C443.057 6.79102 442.847 6.18783 442.471 5.76172C442.094 5.33008 441.585 5.11426 440.943 5.11426ZM448.505 1.84375V4.01855H450.182V5.20557H448.505V10.7754C448.505 11.1351 448.58 11.4062 448.729 11.5889C448.879 11.766 449.133 11.8545 449.493 11.8545C449.67 11.8545 449.914 11.8213 450.224 11.7549V13C449.82 13.1107 449.427 13.166 449.045 13.166C448.359 13.166 447.841 12.9585 447.493 12.5435C447.144 12.1284 446.97 11.5391 446.97 10.7754V5.20557H445.334V4.01855H446.97V1.84375H448.505ZM451.618 8.43457C451.618 7.03451 451.942 5.9222 452.589 5.09766C453.237 4.26758 454.095 3.85254 455.163 3.85254C456.258 3.85254 457.113 4.23991 457.728 5.01465L457.802 4.01855H459.205V12.7842C459.205 13.9463 458.859 14.8621 458.167 15.5317C457.481 16.2013 456.557 16.5361 455.395 16.5361C454.748 16.5361 454.114 16.3978 453.494 16.1211C452.874 15.8444 452.401 15.4653 452.075 14.9839L452.872 14.0625C453.53 14.876 454.335 15.2827 455.287 15.2827C456.034 15.2827 456.615 15.0724 457.03 14.6519C457.451 14.2313 457.661 13.6392 457.661 12.8755V12.1035C457.047 12.8118 456.208 13.166 455.146 13.166C454.095 13.166 453.242 12.7427 452.589 11.896C451.942 11.0493 451.618 9.89551 451.618 8.43457ZM453.162 8.60889C453.162 9.62158 453.37 10.4185 453.785 10.9995C454.2 11.575 454.781 11.8628 455.528 11.8628C456.496 11.8628 457.207 11.4229 457.661 10.543V6.44238C457.191 5.58464 456.485 5.15576 455.544 5.15576C454.797 5.15576 454.214 5.44629 453.793 6.02734C453.372 6.6084 453.162 7.46891 453.162 8.60889Z" fill="white"/>
    <path d="M548.474 127.38L546.997 128.916V133H545.403V120.914H546.997V126.891L552.367 120.914H554.293L549.537 126.251L554.667 133H552.757L548.474 127.38ZM557.406 124.019V134.038C557.406 135.764 556.623 136.627 555.057 136.627C554.719 136.627 554.406 136.578 554.119 136.478V135.25C554.296 135.294 554.528 135.316 554.816 135.316C555.159 135.316 555.419 135.222 555.596 135.034C555.779 134.851 555.87 134.53 555.87 134.071V124.019H557.406ZM555.712 121.636C555.712 121.393 555.787 121.185 555.937 121.014C556.091 120.837 556.316 120.748 556.609 120.748C556.908 120.748 557.135 120.834 557.29 121.005C557.444 121.177 557.522 121.387 557.522 121.636C557.522 121.885 557.444 122.093 557.29 122.259C557.135 122.425 556.908 122.508 556.609 122.508C556.31 122.508 556.086 122.425 555.937 122.259C555.787 122.093 555.712 121.885 555.712 121.636ZM559.481 128.426C559.481 127.546 559.65 126.758 559.987 126.061C560.33 125.358 560.812 124.815 561.432 124.434C562.057 124.046 562.765 123.853 563.557 123.853C564.165 123.853 564.73 123.969 565.25 124.201L565.856 122.973H566.885L566.039 124.674C567.118 125.527 567.657 126.838 567.657 128.609C567.657 129.483 567.486 130.272 567.143 130.975C566.799 131.677 566.318 132.22 565.698 132.602C565.078 132.978 564.37 133.166 563.573 133.166C562.998 133.166 562.472 133.069 561.996 132.875L561.382 134.112H560.353L561.183 132.427C560.048 131.603 559.481 130.269 559.481 128.426ZM561.017 128.609C561.017 129.682 561.285 130.526 561.822 131.141L564.669 125.38C564.326 125.203 563.955 125.114 563.557 125.114C562.793 125.114 562.179 125.416 561.714 126.019C561.249 126.622 561.017 127.486 561.017 128.609ZM566.113 128.426C566.113 127.419 565.873 126.608 565.391 125.994L562.569 131.705C562.873 131.843 563.208 131.913 563.573 131.913C564.342 131.913 564.957 131.611 565.416 131.008C565.881 130.399 566.113 129.583 566.113 128.559V128.426ZM572.023 128.841L571.061 129.846V133H569.525V120.25H571.061V127.961L571.882 126.974L574.68 124.019H576.547L573.053 127.771L576.954 133H575.153L572.023 128.841ZM580.64 128.841L579.677 129.846V133H578.141V120.25H579.677V127.961L580.499 126.974L583.296 124.019H585.164L581.669 127.771L585.57 133H583.769L580.64 128.841ZM590.31 133.166C589.093 133.166 588.102 132.768 587.338 131.971C586.575 131.168 586.193 130.097 586.193 128.758V128.476C586.193 127.585 586.362 126.791 586.699 126.094C587.042 125.391 587.518 124.843 588.127 124.45C588.741 124.052 589.405 123.853 590.119 123.853C591.287 123.853 592.194 124.237 592.842 125.006C593.489 125.776 593.813 126.877 593.813 128.31V128.949H587.729C587.751 129.835 588.008 130.551 588.5 131.099C588.999 131.641 589.629 131.913 590.393 131.913C590.935 131.913 591.395 131.802 591.771 131.581C592.147 131.359 592.477 131.066 592.759 130.701L593.697 131.431C592.944 132.588 591.815 133.166 590.31 133.166ZM590.119 125.114C589.499 125.114 588.979 125.341 588.559 125.795C588.138 126.243 587.878 126.874 587.778 127.688H592.277V127.571C592.233 126.791 592.023 126.188 591.646 125.762C591.27 125.33 590.761 125.114 590.119 125.114ZM597.05 124.019L597.1 125.147C597.786 124.284 598.683 123.853 599.79 123.853C601.688 123.853 602.645 124.923 602.662 127.065V133H601.126V127.057C601.12 126.409 600.971 125.931 600.678 125.621C600.39 125.311 599.939 125.156 599.325 125.156C598.827 125.156 598.389 125.289 598.013 125.554C597.637 125.82 597.344 126.168 597.133 126.6V133H595.598V124.019H597.05Z" fill="white"/>
    <path d="M777.964 133.613C776.597 133.22 775.601 132.738 774.976 132.168C774.356 131.593 774.046 130.885 774.046 130.043C774.046 129.092 774.425 128.306 775.183 127.686C775.947 127.061 776.937 126.748 778.155 126.748C778.985 126.748 779.724 126.909 780.371 127.229C781.024 127.55 781.528 127.993 781.882 128.558C782.242 129.122 782.421 129.739 782.421 130.409H780.819C780.819 129.678 780.587 129.105 780.122 128.69C779.657 128.27 779.001 128.06 778.155 128.06C777.369 128.06 776.755 128.234 776.312 128.583C775.875 128.926 775.656 129.404 775.656 130.019C775.656 130.511 775.864 130.929 776.279 131.272C776.699 131.61 777.41 131.919 778.412 132.202C779.419 132.484 780.205 132.797 780.77 133.14C781.34 133.477 781.76 133.873 782.031 134.327C782.308 134.78 782.446 135.314 782.446 135.929C782.446 136.908 782.064 137.694 781.301 138.286C780.537 138.873 779.516 139.166 778.238 139.166C777.408 139.166 776.633 139.008 775.914 138.693C775.194 138.372 774.638 137.935 774.245 137.381C773.858 136.828 773.664 136.2 773.664 135.497H775.266C775.266 136.228 775.535 136.806 776.071 137.232C776.614 137.653 777.336 137.863 778.238 137.863C779.079 137.863 779.724 137.691 780.172 137.348C780.62 137.005 780.844 136.537 780.844 135.945C780.844 135.353 780.637 134.897 780.222 134.576C779.807 134.249 779.054 133.928 777.964 133.613ZM791.843 134.609C791.843 135.976 791.53 137.077 790.905 137.913C790.279 138.748 789.433 139.166 788.365 139.166C787.275 139.166 786.417 138.82 785.792 138.128V142.453H784.256V130.019H785.659L785.733 131.015C786.359 130.24 787.228 129.853 788.34 129.853C789.419 129.853 790.271 130.259 790.896 131.073C791.527 131.886 791.843 133.018 791.843 134.468V134.609ZM790.307 134.435C790.307 133.422 790.091 132.622 789.66 132.036C789.228 131.449 788.636 131.156 787.883 131.156C786.954 131.156 786.256 131.568 785.792 132.393V136.684C786.251 137.503 786.954 137.913 787.9 137.913C788.636 137.913 789.22 137.622 789.651 137.041C790.089 136.454 790.307 135.586 790.307 134.435ZM795.47 139H793.935V130.019H795.47V139ZM793.81 127.636C793.81 127.387 793.885 127.177 794.034 127.005C794.189 126.834 794.416 126.748 794.715 126.748C795.014 126.748 795.241 126.834 795.396 127.005C795.55 127.177 795.628 127.387 795.628 127.636C795.628 127.885 795.55 128.093 795.396 128.259C795.241 128.425 795.014 128.508 794.715 128.508C794.416 128.508 794.189 128.425 794.034 128.259C793.885 128.093 793.81 127.885 793.81 127.636ZM803.165 136.618C803.165 136.203 803.007 135.882 802.692 135.655C802.382 135.422 801.837 135.223 801.057 135.057C800.282 134.891 799.665 134.692 799.206 134.459C798.752 134.227 798.414 133.95 798.193 133.629C797.977 133.308 797.869 132.927 797.869 132.484C797.869 131.748 798.179 131.125 798.799 130.616C799.424 130.107 800.221 129.853 801.189 129.853C802.208 129.853 803.032 130.115 803.663 130.641C804.299 131.167 804.618 131.839 804.618 132.658H803.074C803.074 132.238 802.894 131.875 802.534 131.571C802.18 131.266 801.732 131.114 801.189 131.114C800.631 131.114 800.193 131.236 799.878 131.479C799.562 131.723 799.405 132.041 799.405 132.434C799.405 132.805 799.551 133.084 799.845 133.272C800.138 133.461 800.667 133.64 801.43 133.812C802.199 133.984 802.822 134.188 803.298 134.426C803.774 134.664 804.125 134.952 804.352 135.29C804.584 135.622 804.701 136.028 804.701 136.51C804.701 137.312 804.38 137.957 803.738 138.444C803.096 138.925 802.263 139.166 801.239 139.166C800.52 139.166 799.883 139.039 799.33 138.784C798.777 138.53 798.342 138.175 798.027 137.722C797.717 137.262 797.562 136.767 797.562 136.236H799.098C799.125 136.75 799.33 137.16 799.712 137.464C800.099 137.763 800.608 137.913 801.239 137.913C801.82 137.913 802.285 137.796 802.634 137.564C802.988 137.326 803.165 137.011 803.165 136.618ZM810.428 139.166C809.211 139.166 808.22 138.768 807.457 137.971C806.693 137.168 806.311 136.097 806.311 134.758V134.476C806.311 133.585 806.48 132.791 806.817 132.094C807.16 131.391 807.636 130.843 808.245 130.45C808.859 130.052 809.523 129.853 810.237 129.853C811.405 129.853 812.312 130.237 812.96 131.006C813.607 131.776 813.931 132.877 813.931 134.31V134.949H807.847C807.869 135.835 808.126 136.551 808.619 137.099C809.117 137.641 809.748 137.913 810.511 137.913C811.054 137.913 811.513 137.802 811.889 137.581C812.265 137.359 812.595 137.066 812.877 136.701L813.815 137.431C813.062 138.588 811.933 139.166 810.428 139.166ZM810.237 131.114C809.618 131.114 809.097 131.341 808.677 131.795C808.256 132.243 807.996 132.874 807.896 133.688H812.396V133.571C812.351 132.791 812.141 132.188 811.765 131.762C811.388 131.33 810.879 131.114 810.237 131.114ZM820.945 136.618C820.945 136.203 820.788 135.882 820.472 135.655C820.162 135.422 819.617 135.223 818.837 135.057C818.062 134.891 817.445 134.692 816.986 134.459C816.532 134.227 816.194 133.95 815.973 133.629C815.757 133.308 815.649 132.927 815.649 132.484C815.649 131.748 815.959 131.125 816.579 130.616C817.204 130.107 818.001 129.853 818.97 129.853C819.988 129.853 820.812 130.115 821.443 130.641C822.08 131.167 822.398 131.839 822.398 132.658H820.854C820.854 132.238 820.674 131.875 820.314 131.571C819.96 131.266 819.512 131.114 818.97 131.114C818.411 131.114 817.974 131.236 817.658 131.479C817.343 131.723 817.185 132.041 817.185 132.434C817.185 132.805 817.332 133.084 817.625 133.272C817.918 133.461 818.447 133.64 819.21 133.812C819.98 133.984 820.602 134.188 821.078 134.426C821.554 134.664 821.905 134.952 822.132 135.29C822.365 135.622 822.481 136.028 822.481 136.51C822.481 137.312 822.16 137.957 821.518 138.444C820.876 138.925 820.043 139.166 819.02 139.166C818.3 139.166 817.664 139.039 817.11 138.784C816.557 138.53 816.123 138.175 815.807 137.722C815.497 137.262 815.342 136.767 815.342 136.236H816.878C816.906 136.75 817.11 137.16 817.492 137.464C817.88 137.763 818.389 137.913 819.02 137.913C819.601 137.913 820.065 137.796 820.414 137.564C820.768 137.326 820.945 137.011 820.945 136.618ZM826.565 127.844V130.019H828.242V131.206H826.565V136.775C826.565 137.135 826.64 137.406 826.789 137.589C826.938 137.766 827.193 137.854 827.553 137.854C827.73 137.854 827.973 137.821 828.283 137.755V139C827.879 139.111 827.486 139.166 827.104 139.166C826.418 139.166 825.901 138.958 825.552 138.543C825.204 138.128 825.029 137.539 825.029 136.775V131.206H823.394V130.019H825.029V127.844H826.565ZM835.588 138.112C834.99 138.815 834.113 139.166 832.957 139.166C831.999 139.166 831.269 138.889 830.765 138.336C830.267 137.777 830.015 136.952 830.01 135.862V130.019H831.545V135.821C831.545 137.182 832.099 137.863 833.206 137.863C834.379 137.863 835.159 137.426 835.546 136.551V130.019H837.082V139H835.621L835.588 138.112ZM843.15 139.166C841.932 139.166 840.942 138.768 840.178 137.971C839.415 137.168 839.033 136.097 839.033 134.758V134.476C839.033 133.585 839.201 132.791 839.539 132.094C839.882 131.391 840.358 130.843 840.967 130.45C841.581 130.052 842.245 129.853 842.959 129.853C844.127 129.853 845.034 130.237 845.682 131.006C846.329 131.776 846.653 132.877 846.653 134.31V134.949H840.568C840.59 135.835 840.848 136.551 841.34 137.099C841.838 137.641 842.469 137.913 843.233 137.913C843.775 137.913 844.235 137.802 844.611 137.581C844.987 137.359 845.316 137.066 845.599 136.701L846.537 137.431C845.784 138.588 844.655 139.166 843.15 139.166ZM842.959 131.114C842.339 131.114 841.819 131.341 841.398 131.795C840.978 132.243 840.718 132.874 840.618 133.688H845.117V133.571C845.073 132.791 844.863 132.188 844.486 131.762C844.11 131.33 843.601 131.114 842.959 131.114Z" fill="white"/>
    <path d="M104.964 123.613C103.597 123.22 102.601 122.738 101.976 122.168C101.356 121.593 101.046 120.885 101.046 120.043C101.046 119.092 101.425 118.306 102.183 117.686C102.947 117.061 103.937 116.748 105.155 116.748C105.985 116.748 106.724 116.909 107.371 117.229C108.024 117.55 108.528 117.993 108.882 118.558C109.242 119.122 109.421 119.739 109.421 120.409H107.819C107.819 119.678 107.587 119.105 107.122 118.69C106.657 118.27 106.001 118.06 105.155 118.06C104.369 118.06 103.755 118.234 103.312 118.583C102.875 118.926 102.656 119.404 102.656 120.019C102.656 120.511 102.864 120.929 103.279 121.272C103.699 121.61 104.41 121.919 105.412 122.202C106.419 122.484 107.205 122.797 107.77 123.14C108.34 123.477 108.76 123.873 109.031 124.327C109.308 124.78 109.446 125.314 109.446 125.929C109.446 126.908 109.064 127.694 108.301 128.286C107.537 128.873 106.516 129.166 105.238 129.166C104.408 129.166 103.633 129.008 102.914 128.693C102.194 128.372 101.638 127.935 101.245 127.381C100.858 126.828 100.664 126.2 100.664 125.497H102.266C102.266 126.228 102.535 126.806 103.071 127.232C103.614 127.653 104.336 127.863 105.238 127.863C106.079 127.863 106.724 127.691 107.172 127.348C107.62 127.005 107.844 126.537 107.844 125.945C107.844 125.353 107.637 124.897 107.222 124.576C106.807 124.249 106.054 123.928 104.964 123.613ZM113.339 117.844V120.019H115.016V121.206H113.339V126.775C113.339 127.135 113.414 127.406 113.563 127.589C113.713 127.766 113.967 127.854 114.327 127.854C114.504 127.854 114.748 127.821 115.058 127.755V129C114.654 129.111 114.261 129.166 113.879 129.166C113.193 129.166 112.675 128.958 112.327 128.543C111.978 128.128 111.804 127.539 111.804 126.775V121.206H110.168V120.019H111.804V117.844H113.339ZM122.362 128.112C121.765 128.815 120.888 129.166 119.731 129.166C118.774 129.166 118.043 128.889 117.54 128.336C117.042 127.777 116.79 126.952 116.784 125.862V120.019H118.32V125.821C118.32 127.182 118.873 127.863 119.98 127.863C121.153 127.863 121.933 127.426 122.321 126.551V120.019H123.856V129H122.396L122.362 128.112ZM129.924 129.166C128.707 129.166 127.716 128.768 126.953 127.971C126.189 127.168 125.807 126.097 125.807 124.758V124.476C125.807 123.585 125.976 122.791 126.313 122.094C126.657 121.391 127.132 120.843 127.741 120.45C128.355 120.052 129.02 119.853 129.733 119.853C130.901 119.853 131.809 120.237 132.456 121.006C133.104 121.776 133.427 122.877 133.427 124.31V124.949H127.343C127.365 125.835 127.622 126.551 128.115 127.099C128.613 127.641 129.244 127.913 130.007 127.913C130.55 127.913 131.009 127.802 131.385 127.581C131.762 127.359 132.091 127.066 132.373 126.701L133.311 127.431C132.558 128.588 131.43 129.166 129.924 129.166ZM129.733 121.114C129.114 121.114 128.593 121.341 128.173 121.795C127.752 122.243 127.492 122.874 127.393 123.688H131.892V123.571C131.847 122.791 131.637 122.188 131.261 121.762C130.884 121.33 130.375 121.114 129.733 121.114Z" fill="white"/>
    <path d="M298.326 403.415C297.917 404.001 297.344 404.441 296.608 404.734C295.877 405.022 295.025 405.166 294.051 405.166C293.066 405.166 292.192 404.936 291.428 404.477C290.665 404.012 290.072 403.354 289.652 402.501C289.237 401.649 289.024 400.661 289.013 399.538V398.484C289.013 396.663 289.436 395.252 290.283 394.25C291.135 393.249 292.33 392.748 293.869 392.748C295.13 392.748 296.146 393.072 296.915 393.719C297.684 394.361 298.155 395.274 298.326 396.458H296.732C296.434 394.859 295.482 394.06 293.877 394.06C292.809 394.06 291.998 394.436 291.445 395.188C290.897 395.936 290.62 397.02 290.615 398.442V399.43C290.615 400.786 290.925 401.865 291.544 402.667C292.164 403.464 293.003 403.863 294.06 403.863C294.657 403.863 295.18 403.796 295.628 403.664C296.077 403.531 296.447 403.307 296.741 402.991V400.277H293.943V398.982H298.326V403.415ZM306.295 405C306.206 404.823 306.134 404.507 306.079 404.054C305.365 404.795 304.513 405.166 303.522 405.166C302.637 405.166 301.909 404.917 301.339 404.419C300.775 403.915 300.493 403.279 300.493 402.51C300.493 401.575 300.847 400.85 301.555 400.335C302.269 399.815 303.271 399.555 304.56 399.555H306.054V398.849C306.054 398.312 305.894 397.886 305.573 397.571C305.252 397.25 304.779 397.089 304.153 397.089C303.605 397.089 303.146 397.228 302.775 397.504C302.405 397.781 302.219 398.116 302.219 398.509H300.675C300.675 398.061 300.833 397.629 301.148 397.214C301.469 396.793 301.901 396.461 302.443 396.218C302.991 395.974 303.592 395.853 304.245 395.853C305.279 395.853 306.09 396.113 306.677 396.633C307.263 397.147 307.568 397.859 307.59 398.766V402.9C307.59 403.724 307.695 404.38 307.905 404.867V405H306.295ZM303.747 403.83C304.228 403.83 304.685 403.705 305.116 403.456C305.548 403.207 305.861 402.883 306.054 402.485V400.642H304.851C302.969 400.642 302.028 401.193 302.028 402.294C302.028 402.775 302.189 403.152 302.51 403.423C302.831 403.694 303.243 403.83 303.747 403.83ZM311.45 396.019L311.5 397.147C312.186 396.284 313.082 395.853 314.189 395.853C316.087 395.853 317.044 396.923 317.061 399.065V405H315.525V399.057C315.52 398.409 315.37 397.931 315.077 397.621C314.789 397.311 314.338 397.156 313.724 397.156C313.226 397.156 312.789 397.289 312.413 397.554C312.036 397.82 311.743 398.168 311.533 398.6V405H309.997V396.019H311.45ZM319.012 400.435C319.012 399.035 319.335 397.922 319.983 397.098C320.63 396.268 321.488 395.853 322.556 395.853C323.652 395.853 324.507 396.24 325.121 397.015L325.196 396.019H326.599V404.784C326.599 405.946 326.253 406.862 325.561 407.532C324.875 408.201 323.951 408.536 322.789 408.536C322.141 408.536 321.507 408.398 320.888 408.121C320.268 407.844 319.795 407.465 319.468 406.984L320.265 406.062C320.924 406.876 321.729 407.283 322.681 407.283C323.428 407.283 324.009 407.072 324.424 406.652C324.844 406.231 325.055 405.639 325.055 404.875V404.104C324.44 404.812 323.602 405.166 322.54 405.166C321.488 405.166 320.636 404.743 319.983 403.896C319.335 403.049 319.012 401.896 319.012 400.435ZM320.556 400.609C320.556 401.622 320.763 402.418 321.178 403C321.593 403.575 322.174 403.863 322.921 403.863C323.89 403.863 324.601 403.423 325.055 402.543V398.442C324.584 397.585 323.879 397.156 322.938 397.156C322.191 397.156 321.607 397.446 321.187 398.027C320.766 398.608 320.556 399.469 320.556 400.609Z" fill="white"/>
    <path d="M501.964 399.613C500.597 399.22 499.601 398.738 498.976 398.168C498.356 397.593 498.046 396.885 498.046 396.043C498.046 395.092 498.425 394.306 499.183 393.686C499.947 393.061 500.937 392.748 502.155 392.748C502.985 392.748 503.724 392.909 504.371 393.229C505.024 393.55 505.528 393.993 505.882 394.558C506.242 395.122 506.421 395.739 506.421 396.409H504.819C504.819 395.678 504.587 395.105 504.122 394.69C503.657 394.27 503.001 394.06 502.155 394.06C501.369 394.06 500.755 394.234 500.312 394.583C499.875 394.926 499.656 395.404 499.656 396.019C499.656 396.511 499.864 396.929 500.279 397.272C500.699 397.61 501.41 397.919 502.412 398.202C503.419 398.484 504.205 398.797 504.77 399.14C505.34 399.477 505.76 399.873 506.031 400.327C506.308 400.78 506.446 401.314 506.446 401.929C506.446 402.908 506.064 403.694 505.301 404.286C504.537 404.873 503.516 405.166 502.238 405.166C501.408 405.166 500.633 405.008 499.914 404.693C499.194 404.372 498.638 403.935 498.245 403.381C497.858 402.828 497.664 402.2 497.664 401.497H499.266C499.266 402.228 499.535 402.806 500.071 403.232C500.614 403.653 501.336 403.863 502.238 403.863C503.079 403.863 503.724 403.691 504.172 403.348C504.62 403.005 504.844 402.537 504.844 401.945C504.844 401.353 504.637 400.897 504.222 400.576C503.807 400.249 503.054 399.928 501.964 399.613ZM510.339 393.844V396.019H512.016V397.206H510.339V402.775C510.339 403.135 510.414 403.406 510.563 403.589C510.713 403.766 510.967 403.854 511.327 403.854C511.504 403.854 511.748 403.821 512.058 403.755V405C511.654 405.111 511.261 405.166 510.879 405.166C510.193 405.166 509.675 404.958 509.327 404.543C508.978 404.128 508.804 403.539 508.804 402.775V397.206H507.168V396.019H508.804V393.844H510.339ZM519.362 404.112C518.765 404.815 517.888 405.166 516.731 405.166C515.774 405.166 515.043 404.889 514.54 404.336C514.042 403.777 513.79 402.952 513.784 401.862V396.019H515.32V401.821C515.32 403.182 515.873 403.863 516.98 403.863C518.153 403.863 518.933 403.426 519.321 402.551V396.019H520.856V405H519.396L519.362 404.112ZM526.924 405.166C525.707 405.166 524.716 404.768 523.953 403.971C523.189 403.168 522.807 402.097 522.807 400.758V400.476C522.807 399.585 522.976 398.791 523.313 398.094C523.657 397.391 524.132 396.843 524.741 396.45C525.355 396.052 526.02 395.853 526.733 395.853C527.901 395.853 528.809 396.237 529.456 397.006C530.104 397.776 530.427 398.877 530.427 400.31V400.949H524.343C524.365 401.835 524.622 402.551 525.115 403.099C525.613 403.641 526.244 403.913 527.007 403.913C527.55 403.913 528.009 403.802 528.385 403.581C528.762 403.359 529.091 403.066 529.373 402.701L530.311 403.431C529.558 404.588 528.43 405.166 526.924 405.166ZM526.733 397.114C526.114 397.114 525.593 397.341 525.173 397.795C524.752 398.243 524.492 398.874 524.393 399.688H528.892V399.571C528.847 398.791 528.637 398.188 528.261 397.762C527.884 397.33 527.375 397.114 526.733 397.114Z" fill="white"/>
    <path d="M1 26H450V247C422.519 247 407.111 247 379.63 247" stroke="white"/>
    <path d="M231 354V247H308" stroke="white"/>
    <path d="M231.5 351.5H176.5" stroke="white" stroke-width="3"/>
    <path d="M2 351V451H230V409.706" stroke="white" stroke-width="3"/>
    <path d="M129.5 352H1" stroke="white" stroke-width="3"/>
    <path d="M1 352.5V25.5" stroke="white"/>
    <path d="M230 352.5V377" stroke="white" stroke-width="3"/>
    <path d="M232 351H300.842M341 351H408.695H450V452H408.695H341M232 452H295.978" stroke="white"/>
    <path d="M428 26H909.499V251.263V328.854M909.499 328.854L910 454H700.282L699.782 390.426V328.854H768.792M909.499 328.854H805.5" stroke="white"/>
    <path d="M910 247H817V272.895M817 296.632V329" stroke="white"/>
    <path d="M741 247H530V283H741V247Z" fill="#E0E0E0" stroke="white"/>
    <path d="M261 351V247H231V351H261Z" fill="#E0E0E0" stroke="white"/>
    <path d="M387 452V438.433M449 351H387V369.09M449 369.09H418H387M387 369.09V386.677M387 386.677H449M387 386.677V404.766M449 404.766H387M387 404.766V422.353M387 422.353H449M387 422.353V438.433M449 438.433H387" stroke="white"/>
    <path d="M387 350.5V332H448" stroke="white"/>
    <path d="M513.038 329H699V453H450V351V329H483.77" stroke="white" stroke-width="3"/>
    <path d="M852.009 297.19L852.242 298.784L852.582 297.348L854.973 288.914H856.317L858.65 297.348L858.982 298.809L859.239 297.182L861.115 288.914H862.717L859.787 301H858.334L855.844 292.193L855.653 291.271L855.462 292.193L852.881 301H851.428L848.506 288.914H850.1L852.009 297.19ZM877.601 297.165C877.451 298.443 876.978 299.431 876.181 300.128C875.39 300.82 874.336 301.166 873.019 301.166C871.591 301.166 870.445 300.654 869.582 299.63C868.724 298.607 868.295 297.237 868.295 295.521V294.359C868.295 293.236 868.495 292.248 868.893 291.396C869.297 290.544 869.867 289.891 870.603 289.437C871.339 288.978 872.191 288.748 873.16 288.748C874.444 288.748 875.473 289.108 876.248 289.827C877.022 290.541 877.473 291.532 877.601 292.799H875.999C875.86 291.836 875.559 291.139 875.094 290.707C874.634 290.275 873.99 290.06 873.16 290.06C872.141 290.06 871.342 290.436 870.761 291.188C870.185 291.941 869.897 293.012 869.897 294.401V295.571C869.897 296.883 870.171 297.926 870.719 298.701C871.267 299.475 872.034 299.863 873.019 299.863C873.904 299.863 874.582 299.664 875.052 299.265C875.528 298.861 875.844 298.161 875.999 297.165H877.601Z" fill="white"/>
    <path d="M852.009 297.19L852.999 297.046L852.993 297.005L852.984 296.965L852.009 297.19ZM852.242 298.784L851.252 298.928L853.215 299.014L852.242 298.784ZM852.582 297.348L851.62 297.075L851.614 297.096L851.609 297.117L852.582 297.348ZM854.973 288.914V287.914H854.217L854.011 288.641L854.973 288.914ZM856.317 288.914L857.281 288.647L857.078 287.914H856.317V288.914ZM858.65 297.348L859.625 297.126L859.62 297.103L859.614 297.081L858.65 297.348ZM858.982 298.809L858.007 299.03L859.97 298.965L858.982 298.809ZM859.239 297.182L858.264 296.96L858.257 296.993L858.252 297.025L859.239 297.182ZM861.115 288.914V287.914H860.317L860.14 288.693L861.115 288.914ZM862.717 288.914L863.689 289.15L863.989 287.914H862.717V288.914ZM859.787 301V302H860.574L860.759 301.236L859.787 301ZM858.334 301L857.372 301.272L857.578 302H858.334V301ZM855.844 292.193L854.865 292.396L854.872 292.431L854.882 292.465L855.844 292.193ZM855.653 291.271L856.633 291.069H854.674L855.653 291.271ZM855.462 292.193L856.422 292.474L856.433 292.435L856.442 292.396L855.462 292.193ZM852.881 301V302H853.63L853.84 301.281L852.881 301ZM851.428 301L850.456 301.235L850.641 302H851.428V301ZM848.506 288.914V287.914H847.236L847.534 289.149L848.506 288.914ZM850.1 288.914L851.075 288.689L850.896 287.914H850.1V288.914ZM851.02 297.334L851.252 298.928L853.231 298.639L852.999 297.046L851.02 297.334ZM853.215 299.014L853.555 297.578L851.609 297.117L851.269 298.553L853.215 299.014ZM853.544 297.62L855.935 289.187L854.011 288.641L851.62 297.075L853.544 297.62ZM854.973 289.914H856.317V287.914H854.973V289.914ZM855.354 289.181L857.686 297.614L859.614 297.081L857.281 288.647L855.354 289.181ZM857.675 297.569L858.007 299.03L859.957 298.587L859.625 297.126L857.675 297.569ZM859.97 298.965L860.227 297.338L858.252 297.025L857.994 298.652L859.97 298.965ZM860.214 297.403L862.09 289.135L860.14 288.693L858.264 296.96L860.214 297.403ZM861.115 289.914H862.717V287.914H861.115V289.914ZM861.745 288.678L858.815 300.764L860.759 301.236L863.689 289.15L861.745 288.678ZM859.787 300H858.334V302H859.787V300ZM859.297 300.728L856.807 291.921L854.882 292.465L857.372 301.272L859.297 300.728ZM856.823 291.99L856.633 291.069L854.674 291.474L854.865 292.396L856.823 291.99ZM854.674 291.069L854.483 291.99L856.442 292.396L856.633 291.474L854.674 291.069ZM854.503 291.912L851.921 300.719L853.84 301.281L856.422 292.474L854.503 291.912ZM852.881 300H851.428V302H852.881V300ZM852.4 300.765L849.478 288.679L847.534 289.149L850.456 301.235L852.4 300.765ZM848.506 289.914H850.1V287.914H848.506V289.914ZM849.126 289.139L851.035 297.415L852.984 296.965L851.075 288.689L849.126 289.139ZM877.601 297.165L878.594 297.281L878.724 296.165H877.601V297.165ZM876.181 300.128L876.839 300.881L876.84 300.881L876.181 300.128ZM869.582 299.63L868.816 300.273L868.818 300.275L869.582 299.63ZM868.893 291.396L867.989 290.968L867.987 290.972L868.893 291.396ZM870.603 289.437L871.128 290.288L871.132 290.285L870.603 289.437ZM876.248 289.827L875.567 290.56L875.57 290.563L876.248 289.827ZM877.601 292.799V293.799H878.706L878.596 292.699L877.601 292.799ZM875.999 292.799L875.009 292.941L875.132 293.799H875.999V292.799ZM875.094 290.707L874.409 291.436L874.413 291.44L875.094 290.707ZM870.761 291.188L869.969 290.577L869.966 290.581L870.761 291.188ZM875.052 299.265L875.699 300.028L875.699 300.028L875.052 299.265ZM875.999 297.165V296.165H875.142L875.01 297.011L875.999 297.165ZM876.607 297.049C876.48 298.137 876.095 298.875 875.523 299.376L876.84 300.881C877.861 299.987 878.422 298.75 878.594 297.281L876.607 297.049ZM875.523 299.376C874.957 299.871 874.157 300.166 873.019 300.166V302.166C874.514 302.166 875.823 301.77 876.839 300.881L875.523 299.376ZM873.019 300.166C871.863 300.166 871.006 299.768 870.347 298.986L868.818 300.275C869.885 301.541 871.318 302.166 873.019 302.166V300.166ZM870.349 298.988C869.68 298.191 869.295 297.07 869.295 295.521H867.295C867.295 297.404 867.768 299.023 868.816 300.273L870.349 298.988ZM869.295 295.521V294.359H867.295V295.521H869.295ZM869.295 294.359C869.295 293.354 869.473 292.516 869.799 291.82L867.987 290.972C867.516 291.981 867.295 293.118 867.295 294.359H869.295ZM869.797 291.824C870.126 291.13 870.571 290.631 871.128 290.288L870.078 288.586C869.163 289.15 868.468 289.957 867.989 290.968L869.797 291.824ZM871.132 290.285C871.692 289.936 872.356 289.748 873.16 289.748V287.748C872.026 287.748 870.986 288.019 870.074 288.589L871.132 290.285ZM873.16 289.748C874.248 289.748 875.015 290.048 875.567 290.56L876.928 289.094C875.93 288.168 874.639 287.748 873.16 287.748V289.748ZM875.57 290.563C876.129 291.078 876.497 291.822 876.606 292.899L878.596 292.699C878.449 291.242 877.916 290.005 876.925 289.092L875.57 290.563ZM877.601 291.799H875.999V293.799H877.601V291.799ZM876.988 292.657C876.834 291.582 876.476 290.625 875.774 289.974L874.413 291.44C874.642 291.652 874.886 292.09 875.009 292.941L876.988 292.657ZM875.779 289.978C875.081 289.323 874.161 289.06 873.16 289.06V291.06C873.818 291.06 874.188 291.228 874.409 291.436L875.779 289.978ZM873.16 289.06C871.857 289.06 870.755 289.56 869.969 290.577L871.552 291.8C871.929 291.312 872.426 291.06 873.16 291.06V289.06ZM869.966 290.581C869.208 291.573 868.897 292.891 868.897 294.401H870.897C870.897 293.133 871.162 292.309 871.555 291.796L869.966 290.581ZM868.897 294.401V295.571H870.897V294.401H868.897ZM868.897 295.571C868.897 297.013 869.198 298.281 869.903 299.278L871.536 298.123C871.145 297.571 870.897 296.753 870.897 295.571H868.897ZM869.903 299.278C870.646 300.33 871.724 300.863 873.019 300.863V298.863C872.343 298.863 871.888 298.621 871.536 298.123L869.903 299.278ZM873.019 300.863C874.039 300.863 874.983 300.634 875.699 300.028L874.406 298.502C874.181 298.693 873.769 298.863 873.019 298.863V300.863ZM875.699 300.028C876.442 299.397 876.816 298.415 876.987 297.319L875.01 297.011C874.871 297.907 874.615 298.325 874.405 298.503L875.699 300.028ZM875.999 298.165H877.601V296.165H875.999V298.165Z" fill="white"/>
    <path d="M822.009 397.19L822.242 398.784L822.582 397.348L824.973 388.914H826.317L828.65 397.348L828.982 398.809L829.239 397.182L831.115 388.914H832.717L829.787 401H828.334L825.844 392.193L825.653 391.271L825.462 392.193L822.881 401H821.428L818.506 388.914H820.1L822.009 397.19ZM847.601 397.165C847.451 398.443 846.978 399.431 846.181 400.128C845.39 400.82 844.336 401.166 843.019 401.166C841.591 401.166 840.445 400.654 839.582 399.63C838.724 398.607 838.295 397.237 838.295 395.521V394.359C838.295 393.236 838.495 392.248 838.893 391.396C839.297 390.544 839.867 389.891 840.603 389.437C841.339 388.978 842.191 388.748 843.16 388.748C844.444 388.748 845.473 389.108 846.248 389.827C847.022 390.541 847.473 391.532 847.601 392.799H845.999C845.86 391.836 845.559 391.139 845.094 390.707C844.634 390.275 843.99 390.06 843.16 390.06C842.141 390.06 841.342 390.436 840.761 391.188C840.185 391.941 839.897 393.012 839.897 394.401V395.571C839.897 396.883 840.171 397.926 840.719 398.701C841.267 399.475 842.034 399.863 843.019 399.863C843.904 399.863 844.582 399.664 845.052 399.265C845.528 398.861 845.844 398.161 845.999 397.165H847.601Z" fill="white"/>
    <path d="M822.009 397.19L822.999 397.046L822.993 397.005L822.984 396.965L822.009 397.19ZM822.242 398.784L821.252 398.928L823.215 399.014L822.242 398.784ZM822.582 397.348L821.62 397.075L821.614 397.096L821.609 397.117L822.582 397.348ZM824.973 388.914V387.914H824.217L824.011 388.641L824.973 388.914ZM826.317 388.914L827.281 388.647L827.078 387.914H826.317V388.914ZM828.65 397.348L829.625 397.126L829.62 397.103L829.614 397.081L828.65 397.348ZM828.982 398.809L828.007 399.03L829.97 398.965L828.982 398.809ZM829.239 397.182L828.264 396.96L828.257 396.993L828.252 397.025L829.239 397.182ZM831.115 388.914V387.914H830.317L830.14 388.693L831.115 388.914ZM832.717 388.914L833.689 389.15L833.989 387.914H832.717V388.914ZM829.787 401V402H830.574L830.759 401.236L829.787 401ZM828.334 401L827.372 401.272L827.578 402H828.334V401ZM825.844 392.193L824.865 392.396L824.872 392.431L824.882 392.465L825.844 392.193ZM825.653 391.271L826.633 391.069H824.674L825.653 391.271ZM825.462 392.193L826.422 392.474L826.433 392.435L826.442 392.396L825.462 392.193ZM822.881 401V402H823.63L823.84 401.281L822.881 401ZM821.428 401L820.456 401.235L820.641 402H821.428V401ZM818.506 388.914V387.914H817.236L817.534 389.149L818.506 388.914ZM820.1 388.914L821.075 388.689L820.896 387.914H820.1V388.914ZM821.02 397.334L821.252 398.928L823.231 398.639L822.999 397.046L821.02 397.334ZM823.215 399.014L823.555 397.578L821.609 397.117L821.269 398.553L823.215 399.014ZM823.544 397.62L825.935 389.187L824.011 388.641L821.62 397.075L823.544 397.62ZM824.973 389.914H826.317V387.914H824.973V389.914ZM825.354 389.181L827.686 397.614L829.614 397.081L827.281 388.647L825.354 389.181ZM827.675 397.569L828.007 399.03L829.957 398.587L829.625 397.126L827.675 397.569ZM829.97 398.965L830.227 397.338L828.252 397.025L827.994 398.652L829.97 398.965ZM830.214 397.403L832.09 389.135L830.14 388.693L828.264 396.96L830.214 397.403ZM831.115 389.914H832.717V387.914H831.115V389.914ZM831.745 388.678L828.815 400.764L830.759 401.236L833.689 389.15L831.745 388.678ZM829.787 400H828.334V402H829.787V400ZM829.297 400.728L826.807 391.921L824.882 392.465L827.372 401.272L829.297 400.728ZM826.823 391.99L826.633 391.069L824.674 391.474L824.865 392.396L826.823 391.99ZM824.674 391.069L824.483 391.99L826.442 392.396L826.633 391.474L824.674 391.069ZM824.503 391.912L821.921 400.719L823.84 401.281L826.422 392.474L824.503 391.912ZM822.881 400H821.428V402H822.881V400ZM822.4 400.765L819.478 388.679L817.534 389.149L820.456 401.235L822.4 400.765ZM818.506 389.914H820.1V387.914H818.506V389.914ZM819.126 389.139L821.035 397.415L822.984 396.965L821.075 388.689L819.126 389.139ZM847.601 397.165L848.594 397.281L848.724 396.165H847.601V397.165ZM846.181 400.128L846.839 400.881L846.84 400.881L846.181 400.128ZM839.582 399.63L838.816 400.273L838.818 400.275L839.582 399.63ZM838.893 391.396L837.989 390.968L837.987 390.972L838.893 391.396ZM840.603 389.437L841.128 390.288L841.132 390.285L840.603 389.437ZM846.248 389.827L845.567 390.56L845.57 390.563L846.248 389.827ZM847.601 392.799V393.799H848.706L848.596 392.699L847.601 392.799ZM845.999 392.799L845.009 392.941L845.132 393.799H845.999V392.799ZM845.094 390.707L844.409 391.436L844.413 391.44L845.094 390.707ZM840.761 391.188L839.969 390.577L839.966 390.581L840.761 391.188ZM845.052 399.265L845.699 400.028L845.699 400.028L845.052 399.265ZM845.999 397.165V396.165H845.142L845.01 397.011L845.999 397.165ZM846.607 397.049C846.48 398.137 846.095 398.875 845.523 399.376L846.84 400.881C847.861 399.987 848.422 398.75 848.594 397.281L846.607 397.049ZM845.523 399.376C844.957 399.871 844.157 400.166 843.019 400.166V402.166C844.514 402.166 845.823 401.77 846.839 400.881L845.523 399.376ZM843.019 400.166C841.863 400.166 841.006 399.768 840.347 398.986L838.818 400.275C839.885 401.541 841.318 402.166 843.019 402.166V400.166ZM840.349 398.988C839.68 398.191 839.295 397.07 839.295 395.521H837.295C837.295 397.404 837.768 399.023 838.816 400.273L840.349 398.988ZM839.295 395.521V394.359H837.295V395.521H839.295ZM839.295 394.359C839.295 393.354 839.473 392.516 839.799 391.82L837.987 390.972C837.516 391.981 837.295 393.118 837.295 394.359H839.295ZM839.797 391.824C840.126 391.13 840.571 390.631 841.128 390.288L840.078 388.586C839.163 389.15 838.468 389.957 837.989 390.968L839.797 391.824ZM841.132 390.285C841.692 389.936 842.356 389.748 843.16 389.748V387.748C842.026 387.748 840.986 388.019 840.074 388.589L841.132 390.285ZM843.16 389.748C844.248 389.748 845.015 390.048 845.567 390.56L846.928 389.094C845.93 388.168 844.639 387.748 843.16 387.748V389.748ZM845.57 390.563C846.129 391.078 846.497 391.822 846.606 392.899L848.596 392.699C848.449 391.242 847.916 390.005 846.925 389.092L845.57 390.563ZM847.601 391.799H845.999V393.799H847.601V391.799ZM846.988 392.657C846.834 391.582 846.476 390.625 845.774 389.974L844.413 391.44C844.642 391.652 844.886 392.09 845.009 392.941L846.988 392.657ZM845.779 389.978C845.081 389.323 844.161 389.06 843.16 389.06V391.06C843.818 391.06 844.188 391.228 844.409 391.436L845.779 389.978ZM843.16 389.06C841.857 389.06 840.755 389.56 839.969 390.577L841.552 391.8C841.929 391.312 842.426 391.06 843.16 391.06V389.06ZM839.966 390.581C839.208 391.573 838.897 392.891 838.897 394.401H840.897C840.897 393.133 841.162 392.309 841.555 391.796L839.966 390.581ZM838.897 394.401V395.571H840.897V394.401H838.897ZM838.897 395.571C838.897 397.013 839.198 398.281 839.903 399.278L841.536 398.123C841.145 397.571 840.897 396.753 840.897 395.571H838.897ZM839.903 399.278C840.646 400.33 841.724 400.863 843.019 400.863V398.863C842.343 398.863 841.888 398.621 841.536 398.123L839.903 399.278ZM843.019 400.863C844.039 400.863 844.983 400.634 845.699 400.028L844.406 398.502C844.181 398.693 843.769 398.863 843.019 398.863V400.863ZM845.699 400.028C846.442 399.397 846.816 398.415 846.987 397.319L845.01 397.011C844.871 397.907 844.615 398.325 844.405 398.503L845.699 400.028ZM845.999 398.165H847.601V396.165H845.999V398.165Z" fill="white"/>
    <path d="M764.702 401V388.914H768.113C769.165 388.914 770.094 389.146 770.902 389.611C771.71 390.076 772.333 390.737 772.77 391.595C773.213 392.453 773.437 393.438 773.442 394.55V395.322C773.442 396.462 773.221 397.461 772.778 398.319C772.341 399.177 771.713 399.835 770.894 400.294C770.081 400.754 769.132 400.989 768.047 401H764.702ZM766.295 390.226V399.697H767.972C769.201 399.697 770.155 399.315 770.836 398.551C771.522 397.788 771.865 396.7 771.865 395.289V394.583C771.865 393.211 771.542 392.146 770.894 391.388C770.252 390.624 769.339 390.237 768.155 390.226H766.295ZM784.964 388.914V397.132C784.958 398.272 784.599 399.204 783.885 399.929C783.176 400.654 782.214 401.061 780.996 401.149L780.573 401.166C779.25 401.166 778.196 400.809 777.41 400.095C776.624 399.381 776.226 398.399 776.215 397.148V388.914H777.792V397.099C777.792 397.973 778.033 398.654 778.514 399.141C778.996 399.622 779.682 399.863 780.573 399.863C781.475 399.863 782.164 399.622 782.64 399.141C783.121 398.659 783.362 397.981 783.362 397.107V388.914H784.964ZM791.638 395.613C790.271 395.22 789.275 394.738 788.649 394.168C788.03 393.593 787.72 392.885 787.72 392.043C787.72 391.092 788.099 390.306 788.857 389.686C789.621 389.061 790.611 388.748 791.829 388.748C792.659 388.748 793.397 388.909 794.045 389.229C794.698 389.55 795.201 389.993 795.556 390.558C795.915 391.122 796.095 391.739 796.095 392.409H794.493C794.493 391.678 794.261 391.105 793.796 390.69C793.331 390.27 792.675 390.06 791.829 390.06C791.043 390.06 790.429 390.234 789.986 390.583C789.549 390.926 789.33 391.404 789.33 392.019C789.33 392.511 789.538 392.929 789.953 393.272C790.373 393.61 791.084 393.919 792.086 394.202C793.093 394.484 793.879 394.797 794.443 395.14C795.013 395.477 795.434 395.873 795.705 396.327C795.982 396.78 796.12 397.314 796.12 397.929C796.12 398.908 795.738 399.694 794.975 400.286C794.211 400.873 793.19 401.166 791.912 401.166C791.082 401.166 790.307 401.008 789.587 400.693C788.868 400.372 788.312 399.935 787.919 399.381C787.532 398.828 787.338 398.2 787.338 397.497H788.94C788.94 398.228 789.208 398.806 789.745 399.232C790.287 399.653 791.01 399.863 791.912 399.863C792.753 399.863 793.397 399.691 793.846 399.348C794.294 399.005 794.518 398.537 794.518 397.945C794.518 397.353 794.311 396.897 793.896 396.576C793.48 396.249 792.728 395.928 791.638 395.613ZM803.832 388.914H805.434V397.472C805.434 398.629 805.085 399.534 804.388 400.187C803.696 400.84 802.772 401.166 801.615 401.166C800.414 401.166 799.479 400.859 798.81 400.245C798.14 399.63 797.805 398.77 797.805 397.663H799.399C799.399 398.355 799.587 398.894 799.963 399.282C800.345 399.669 800.896 399.863 801.615 399.863C802.274 399.863 802.805 399.655 803.209 399.24C803.618 398.825 803.826 398.244 803.832 397.497V388.914ZM808.513 402.038H807.193L812.24 388.914H813.552L808.513 402.038Z" fill="white"/>
    <path d="M10 391H168V444H10V391Z" fill="white"/>
    <rect x="10.5" y="391.5" width="157" height="52" fill="#D3F4FC" stroke="black"/>
    <rect x="18" y="399" width="18" height="36" fill="#C4C4C4"/>
    <rect x="44" y="399" width="114" height="36" fill="#C4C4C4"/>
    <path d="M680 346V443H636V346H680Z" fill="white"/>
    <rect x="680" y="351.74" width="91.2604" height="44" transform="rotate(90 680 351.74)" fill="#C4C4C4"/>
    <rect x="680" y="346" width="9.7574" height="44" transform="rotate(90 680 346)" fill="#FFC123"/>
    <rect x="680" y="433.243" width="9.7574" height="44" transform="rotate(90 680 433.243)" fill="#FFC123"/>
    <rect x="671.5" y="355.757" width="8.5" height="83.2248" fill="#FFC123"/>
    <rect x="665.5" y="363.219" width="26.9763" height="24" transform="rotate(90 665.5 363.219)" fill="#FFEED3"/>
    <rect x="665" y="397.657" width="26.9763" height="24" transform="rotate(90 665 397.657)" fill="#FFEED3"/>
</svg>
