<svg height="511pt" viewBox="-3 0 511 511.99956" width="511pt" xmlns="http://www.w3.org/2000/svg"><path d="m112.558594 197.835938c-10.648438-10.730469-26.957032-15.917969-41.882813-14.128907-37.171875 4.453125-35.148437 52.90625-64.371093 68.851563-.027344.019531-.058594.035156-.089844.050781-5.351563 2.90625-7.355469 9.585937-4.238282 14.820313 9.289063 15.621093 32.175782 40.519531 77.027344 18.847656 0 0 44.160156-71.984375 44.242188-72.113282 1.734375-2.828124-9.128906-14.753906-10.6875-16.328124zm0 0" fill="#ff748f"/><g fill="#84a3e3"><path d="m18.363281 395.976562c-3.671875 9.070313-8.253906 16.148438-12.296875 21.285157-5.695312 7.234375-5.480468 17.542969.679688 24.371093 8.53125 9.453126 17.230468 14.746094 24.101562 17.707032 7.78125 3.351562 16.808594 1.105468 22.183594-5.425782 7.296875-8.84375 12.621094-18.757812 16.488281-27.984374l-18.710937-29.953126zm0 0"/><path d="m137.445312 450.714844c-3.363281 7.027344-7.296874 14.722656-11.886718 23.152344-4.652344 8.535156-2.09375 19.261718 5.964844 24.703124 8.160156 5.496094 19.074218 11.390626 30.332031 13.195313 7.542969 1.21875 15.035156-2.402344 18.996093-8.9375 3.839844-6.324219 9.203126-15.792969 14.839844-27.691406l-25.882812-28.859375zm0 0"/><path d="m292.605469 457.441406c1.566406 7.964844 3.085937 16.910156 4.5 26.949219 1.351562 9.628906 9.792969 16.726563 19.511719 16.285156 9.84375-.445312 22.164062-2.21875 32.285156-7.503906 6.734375-3.515625 10.605468-10.820313 9.945312-18.386719-.597656-6.847656-1.765625-16.714844-3.992187-28.507812l-29.09375-9.007813zm0 0"/><path d="m363.46875 414.890625c3.839844 6.160156 7.90625 13.03125 12.1875 20.699219 4.746094 8.488281 15.1875 12.050781 24.082031 8.117187 8.996094-3.972656 19.8125-10.070312 27.332031-18.621093 5.046876-5.738282 5.976563-14.011719 2.558594-20.84375-3.1875-6.386719-8.097656-15.539063-14.792968-26.15625h-35.914063zm0 0"/></g><path d="m414.832031 378.085938c-9.648437 11.566406-27.238281 28.839843-51.363281 36.804687-34.542969-55.417969-51.136719-53.300781-51.136719-53.300781l41.347657-53.574219c27.652343 22.257813 47.894531 49.023437 61.152343 70.070313zm0 0" fill="#d5d4da"/><path d="m221.792969 387.289062c-4.023438 34.617188-15.527344 65.511719-26.101563 87.847657-15.777344-2.175781-39.273437-8.148438-58.246094-24.421875 27.394532-57.210938 16.980469-69.863282 16.980469-69.863282zm0 0" fill="#d5d4da"/><path d="m123.246094 214.164062c1.734375-2.828124-9.128906-14.753906-10.6875-16.328124-2.917969-2.9375-6.265625-5.441407-9.886719-7.519532-7.839844 4.808594-15.152344 10.601563-21.765625 17.3125-20.765625 21.066406-32.414062 48.851563-32.804688 78.230469-.042968 2.96875.035157 5.917969.222657 8.855469 8.839843-.320313 19.015625-2.800782 30.679687-8.4375 0 0 44.160156-71.984375 44.242188-72.113282zm0 0" fill="#f9496e"/><path d="m498.359375 186.613281c-9.121094-8.800781-23.847656-7.726562-35.515625-7.726562 0 0 .527344-38.113281-20.078125-65.613281l-71.054687 20.917968 3.84375-7.113281v-53.066406l-27.8125-15.507813h-21.230469l.003906.011719c-22.707031-15.90625-48.117187-12.90625-48.117187-12.90625-4.101563.257813-7.703126 2.898437-9.183594 6.734375-19.707032 51.164062 12.527344 80.835938 12.527344 80.835938l-98.433594 74.207031c-7.554688-2.023438-15.542969-3.003907-23.785156-2.789063-44.179688 1.207032-79.933594 37.496094-80.523438 81.679688-.234375 17.589844 5.015625 33.933594 14.136719 47.441406-26.476563-.175781-43.285157 6.035156-53.558594 12.453125-8.421875 5.25-13.910156 14.125-14.902344 23.988281-.988281 9.894532-3.351562 18.5-6.3125 25.816406 15.898438 16.933594 36.546875 25.632813 51.15625 29.953126 7.46875-17.808594 9.472657-33.027344 9.472657-33.027344 29.042968 1.546875 47.101562-7.140625 47.101562-7.140625s58.875 44.574219 138.765625 6.726562c0 0 15.671875 3.902344 27.746094 64.953125 24.90625 3.300782 48-4.53125 62.25-11.164062-4.5625-24.15625-13.601563-56.398438-31.480469-87.425782 0 0 43.242188-36.164062 33.984375-93.34375 0 0 76.03125 41.148438 122.046875-7.085937l1.140625-7.976563 8.980469-4.921874c4.507812-6.964844 8.546875-15.144532 11.976562-24.726563 3.828125-10.6875 6.121094-25.234375-3.144531-34.183594zm0 0" fill="#ebebeb"/><path d="m237.902344 167.679688-18.035156-37.183594c-49.089844 0-54.707032 56.214844-29.234376 90.015625 3.234376 4.289062 9.75 3.917969 12.539063-.671875 3.726563-6.121094 9.984375-14.105469 19.789063-20.460938 18.570312-12.039062 14.941406-31.699218 14.941406-31.699218zm0 0" fill="#f5e277"/><path d="m221.53125 133.929688-1.667969-3.433594c-49.085937 0-54.703125 56.214844-29.230469 90.015625 3.234376 4.289062 9.75 3.917969 12.539063-.671875 1.0625-1.746094 2.339844-3.648438 3.835937-5.613282-17.207031-28.6875-14.417968-68.496093 14.523438-80.296874zm0 0" fill="#f0bc63"/><path d="m281.742188 133.179688-18.039063-37.183594c-49.085937 0-54.703125 56.210937-29.234375 90.011718 3.234375 4.292969 9.75 3.921876 12.542969-.671874 3.722656-6.121094 9.980469-14.105469 19.785156-20.460938 18.574219-12.039062 14.945313-31.695312 14.945313-31.695312zm0 0" fill="#84a3e3"/><path d="m265.367188 99.429688-1.664063-3.433594c-49.085937 0-54.703125 56.210937-29.234375 90.011718 3.234375 4.292969 9.75 3.917969 12.542969-.671874 1.0625-1.746094 2.335937-3.644532 3.835937-5.613282-17.210937-28.6875-14.417968-68.492187 14.519532-80.292968zm0 0" fill="#5c84d9"/><path d="m320.398438 84.773438c-.394532-.371094-.808594-.746094-1.242188-1.125-5.136719-4.460938-11.203125-7.589844-18.132812-9.359376-5.402344-1.378906-10.769532 2.507813-11.085938 8.078126-.527344 9.339843 1.625 16.621093 4.09375 21.753906 2.386719 4.960937 8.667969 6.558594 13.089844 3.277344l12.492187-9.269532c4.363281-3.234375 4.742188-9.628906.785157-13.355468zm0 0" fill="#ff748f"/><path d="m451.316406 2.367188c-6.082031-3.914063-14.101562-2.886719-18.996094 2.441406l-52.453124 54.457031 49.007812 31.554687 28.082031-70.148437c2.824219-6.664063.441407-14.390625-5.640625-18.304687zm0 0" fill="#f5e277"/><path d="m407.511719 191.160156c-1.804688 0-3.617188-.628906-5.082031-1.90625-3.210938-2.808594-3.539063-7.691406-.730469-10.902344 4.53125-5.1875 11.199219-8.160156 18.289062-8.160156 7.089844 0 13.753907 2.972656 18.289063 8.160156 2.808594 3.210938 2.480468 8.09375-.730469 10.902344-3.214844 2.804688-8.097656 2.480469-10.902344-.734375-1.597656-1.828125-4.027343-2.875-6.65625-2.875-2.632812 0-5.058593 1.046875-6.65625 2.875-1.527343 1.746094-3.667969 2.640625-5.820312 2.640625zm0 0" fill="#3d4851"/><path d="m489.527344 245.523438c-.945313-.675782-2.050782-1.15625-3.269532-1.347657-.160156-.027343-15.953124-2.6875-24.914062-16.027343-2.382812-3.542969-7.183594-4.484376-10.722656-2.105469-3.542969 2.378906-4.484375 7.179687-2.105469 10.722656 9.453125 14.070313 23.671875 19.640625 30.890625 21.65625 3.570312-3.742187 6.960938-8.019531 10.121094-12.898437zm0 0" fill="#3d4851"/><path d="m481.082031 206.042969c-3.328125-4.179688-8.332031-5.726563-11.171875-3.460938-2.839844 2.261719-2.441406 7.484375.886719 11.664063 3.332031 4.175781 8.335937 5.726562 11.175781 3.460937s2.441406-7.488281-.890625-11.664062zm0 0" fill="#3d4851"/><path d="m447.984375 43.078125c-9.289063-8.59375-20.570313-15.4375-33.066406-20.199219l-35.050781 36.386719 49.007812 31.550781zm0 0" fill="#f0bc63"/><path d="m326.511719 58.503906c51.410156-30.984375 126.785156-.957031 116.253906 54.769532-7.164063 37.878906-52.832031 36.1875-81.355469 31.21875-.238281-48.339844-16.699218-73.242188-34.898437-85.988282zm0 0" fill="#ff748f"/><path d="m356.777344 47.359375c34.164062 5.824219 61.730468 30.75 55.082031 65.914063-4.050781 21.425781-20.421875 30.183593-39.042969 32.859374 27.945313 3.132813 63.683594.277344 69.949219-32.859374 8.585937-45.425782-39.914063-73.773438-85.988281-65.914063zm0 0" fill="#f9496e"/></svg>